<?xml version="1.0" encoding="UTF-8" standalone="no"?>
<svg xmlns:rdf="http://www.w3.org/1999/02/22-rdf-syntax-ns#" xmlns="http://www.w3.org/2000/svg" height="222.91925" width="222.80196" version="1.1" xmlns:cc="http://creativecommons.org/ns#" xmlns:dc="http://purl.org/dc/elements/1.1/" viewBox="0 0 222.80196 222.91925"><path d="M111.41829,222.91925a111.47015,111.47015,0,1,0-78.82787-32.70768A111.50568,111.50568,0,0,0,111.41829,222.91925Z"/><path d="M111.41829,186.91723c-38.0021,0-71.298-15.41262-88.94608-38.355a96.34367,96.34367,0,0,0,177.77452,0c-17.648,22.94243-50.82635,38.355-88.94609,38.355Z" fill="#f47c30"/><path d="M22.47221,74.32281c17.648-22.82481,50.82633-38.35508,88.94607-38.35508,38.0021,0,71.1804,15.53027,88.82843,38.35508a96.34364,96.34364,0,0,0-177.7745,0Z" fill="#f47c30"/><path d="M213.30626,111.50132a101.94682,101.94682,0,1,0-101.888,101.888A101.95512,101.95512,0,0,0,213.30626,111.50132ZM22.47221,148.56218c17.648,22.82481,50.82633,38.355,88.94607,38.355,38.0021,0,71.1804-15.53024,88.82843-38.355a96.34364,96.34364,0,0,1-177.7745,0Zm177.7745-74.23937c-17.648-22.82481-50.82633-38.35508-88.82843-38.35508-38.11974,0-71.298,15.53027-88.94607,38.35508a96.34364,96.34364,0,0,1,177.7745,0Zm7.29452,33.4136H163.42115v5.765h44.12008c-1.5295,37.53145-44.00244,67.65079-96.123,67.65079s-94.71109-30.11934-96.2406-67.53311H47.88537v-5.88268H15.17768c2.58839-36.59026,44.826-66.00365,96.2406-66.00365S204.83519,71.0285,207.54123,107.73641Z" fill="#fff"/><polygon points="67.181 107.266 67.181 150.092 52.827 150.092 52.827 70.793 69.416 70.793 79.181 113.737 79.181 70.793 94.006 70.793 94.006 150.092 76.828 150.092 67.181 107.266" fill="#fff"/><path d="M136.94912,135.50262c0,10.58881-4.47085,14.589-13.64783,14.589H99.7706V70.79317h23.53069c9.177,0,13.64783,4.00024,13.64783,14.58905v8.94166c0,9.177-2.706,13.29485-8.94168,14.4714,6.23564.94122,8.94168,5.17675,8.94168,14.2361Zm-16.11854-50.1204a2.53586,2.53586,0,0,0-.58827-2.00012,2.45619,2.45619,0,0,0-1.88246-.94122h-2.706V102.9126h2.58839a2.83841,2.83841,0,0,0,2.00011-.8236,3.19475,3.19475,0,0,0,.70592-2.00009Zm0,32.23707a2.63434,2.63434,0,0,0-.70592-2.00011,2.77642,2.77642,0,0,0-1.88246-.82358h-2.58839v23.53071h2.706a2.77639,2.77639,0,0,0,1.88246-.82357,2.53586,2.53586,0,0,0,.58827-2.00012Z" fill="#fff"/><polygon points="142.361 70.793 158.244 70.793 158.244 137.738 169.892 137.738 169.892 150.092 142.361 150.092 142.361 70.793" fill="#fff"/></svg>