<?xml version="1.0" encoding="UTF-8" standalone="no"?>
<svg xmlns:rdf="http://www.w3.org/1999/02/22-rdf-syntax-ns#" xmlns="http://www.w3.org/2000/svg" height="266.50758" width="261.80851" version="1.1" xmlns:cc="http://creativecommons.org/ns#" xmlns:dc="http://purl.org/dc/elements/1.1/" viewBox="0 0 261.80851 266.50758"><path d="M261.80851,49.85746,251.45306,38.62937l-33.10257-7.44664-9.25009,5.70132-3.19972-3.02518V16.63855L197.52323,6.34127l-1.16353-.17452C196.01064,6.10857,160.75554,0,130.91089,0,103.04423,0,65.86931,6.10857,65.46207,6.16675l-1.16354.17452L55.9211,16.63855V33.80069l-3.37426,3.25788L43.23857,31.2991,10.36871,38.62937.01326,49.85746v61.551c-.05817,2.90884-.17452,6.923,5.70133,10.58816,5.11955,3.19973,20.4782,12.39164,20.59455,12.44982l1.39624.81448L29.218,134.621c16.63855-7.44663,37.40765-12.21711,57.4786-15.06777A68.24923,68.24923,0,0,0,82.79874,132.992l-3.37426-5.81767s-11.40265,37.93123.46543,57.0132C82.217,187.969,85.00946,191.16873,93.736,200.477c3.83966,4.18873,9.19192,9.94823,16.11495,17.56937,8.66834,9.541,12.56618,19.14016,17.62754,36.06958.989,3.43243,3.43244,12.39164,3.43244,12.39164s2.5016-8.95921,3.37424-12.39164c4.36326-16.58037,8.95922-26.58676,17.62756-36.01139,5.70132-6.22491,10.29727-11.11176,13.9624-15.06778,10.18093-10.93721,13.38065-14.835,15.9986-18.7329,11.40265-17.10395.46543-57.01319.46543-57.01319l-3.37426,5.7595a45.10908,45.10908,0,0,0-3.607-13.72971c25.365,3.49059,45.90143,9.541,58.933,15.35865l1.57076.69812,20.24551-13.38065c5.70132-3.49059,5.70132-8.26108,5.70132-11.4608Z" fill="#a2a089"/><path d="M258.6088,51.07918,249.766,41.48l-30.89186-6.923L208.635,40.89826l-5.934-5.70133v-17.453l-6.923-8.49378s-34.9642-6.10858-64.92522-6.10858c-27.92483,0-64.92521,6.10858-64.92521,6.10858l-6.923,8.49378V35.08059l-6.05036,5.87584L42.65681,34.61516,11.99768,41.48,3.15481,51.07918v59.39843c0,3.54879.11636,6.39945,4.18873,8.84287l20.59454,12.4498c13.90426-6.22489,37.98942-13.26427,68.125-16.63853a63.38378,63.38378,0,0,0-3.37425,7.912c-.81447-1.91984-1.86165-4.18873-1.86165-4.18873-6.45762,15.126-4.596,24.60876-4.596,24.60876-2.5016-1.8035-5.2941-6.574-5.2941-6.574-4.01418,19.48921-3.14154,36.82587,1.91984,45.61054,2.967,5.11957,7.79567,9.36644,29.49561,33.21891,14.89322,16.34767,17.9766,36.41865,18.442,38.68751.46542-2.26886,3.49059-22.398,18.50018-38.68751,21.35085-23.21249,26.5286-28.09934,29.49561-33.21891,5.06136-8.72651,5.934-26.06316,1.91982-45.61054,0,0-2.79249,4.77047-5.29408,6.574,0,0,1.86167-9.48281-4.59595-24.60876,0,0-1.10537,2.26889-1.86165,4.18873a67.25445,67.25445,0,0,0-3.49061-8.14473c31.00819,3.25788,55.79147,10.47181,70.04478,16.81306l18.84923-12.44981c4.24693-2.55979,4.24693-5.81767,4.24693-8.7847Z" fill="#000943"/><path d="M141.09181,189.13254a10.36308,10.36308,0,0,1-4.18873-3.0252c1.86166,3.08335,3.54879,5.934,4.18873,8.37746a179.30071,179.30071,0,0,0-10.2391,43.05077V176.74088c-1.27989,2.67614-5.5268,10.82087-10.18092,12.39166a40.989,40.989,0,0,1-11.86806,1.7453,121.45625,121.45625,0,0,1,11.86806,20.88545c5.17772,12.21709,8.66833,22.16532,10.18092,36.36045,1.57077-14.19513,5.06136-24.14336,10.2391-36.36045a121.45615,121.45615,0,0,1,11.868-20.88545A40.98878,40.98878,0,0,1,141.09181,189.13254Z" fill="#a2a089"/><path d="M163.48986,165.571a27.306,27.306,0,0,0-5.934,4.01419c.23271.69811.40724,1.39623.58177,2.03618a2.53269,2.53269,0,0,0-.40725.23271c-1.04716.63995-2.09435,1.91984-1.62894,2.5016.34906.4654,1.45442.40724,2.44343,0a4.76333,4.76333,0,0,1-1.16355,3.607c-2.67611,2.61795-5.35224.40722-6.16672-.40725a15.87005,15.87005,0,0,0-1.629,3.49062c1.22172.52359,5.46861,1.80347,8.901-1.04718,4.07235-3.37426,2.09436-10.41364,2.09436-10.41364A19.61926,19.61926,0,0,1,163.48986,165.571Z" fill="#ed1b2f"/><path d="M104.3823,177.96262a4.90513,4.90513,0,0,1-1.10536-3.54879c.93083.34905,2.09435.40724,2.44343,0,.40724-.58179-.63995-1.91984-1.629-2.55979-.17453-.05816-.29087-.11636-.46541-.17452a20.82849,20.82849,0,0,1,.63995-2.03618,29.065,29.065,0,0,0-5.934-4.07238,18.63843,18.63843,0,0,1,2.85066,4.13056s-1.91983,6.9812,2.15254,10.35545c3.43243,2.85066,7.62115,1.57076,8.901,1.04716a19.0657,19.0657,0,0,0-1.62894-3.49058C109.79274,178.428,107.1166,180.63874,104.3823,177.96262Z" fill="#ed1b2f"/><path d="M95.65579,168.0144s-2.55977,6.10854,1.62894,11.34444c3.43244,4.30508,9.19193,3.607,9.19193,3.607s-9.77369-.989-7.912-11.69354C98.6228,171.27228,96.17938,168.71252,95.65579,168.0144Z" fill="#fff"/><path d="M155.22876,182.96582s5.81767.6981,9.19192-3.607c4.2469-5.2359,1.62894-11.28626,1.62894-11.28626-.52359.63994-2.90884,3.1997-2.90884,3.1997C165.00243,181.97681,155.22876,182.96582,155.22876,182.96582Z" fill="#fff"/><path d="M160.93007,162.2549a86.19819,86.19819,0,0,0,5.87584-30.89185c-1.51259-9.77368-9.19191-21.35085-9.19191-21.35085,4.945,29.26289-.5236,46.01777-.5236,46.01777a26.98743,26.98743,0,0,0-3.956,4.18873c.17453-3.0252.63994-5.81767.63994-5.81767-10.06457,10.82087-8.95921,30.83366-8.95921,30.83366A39.046,39.046,0,0,1,160.93007,162.2549Z" fill="#fff"/><path d="M177.39409,146.95441a42.96037,42.96037,0,0,1-6.86484,6.10856,90.599,90.599,0,0,0,.81447-11.92623c-2.55979,13.08976-6.34127,19.89643-6.34127,19.89643,3.956-1.74531,8.14473-3.89783,8.14473-3.89783,3.83966,22.97979-7.7375,30.25188-13.846,37.98938a98.06444,98.06444,0,0,0-9.48279,15.2423s7.563-9.25011,10.29726-12.10074c4.36325-4.65413,12.56617-11.92625,16.17312-19.83826C181.35009,167.25808,177.39409,146.95441,177.39409,146.95441Z" fill="#fff"/><path d="M88.67459,157.13534s4.13054,2.15252,8.08656,3.89783c0,0-3.72331-6.80667-6.28309-19.89643a90.59732,90.59732,0,0,0,.81447,11.92623,40.58422,40.58422,0,0,1-6.86485-6.10856S80.41349,167.25808,85.533,178.428c3.607,7.85384,11.80988,15.12593,16.17313,19.78,2.73431,2.90884,10.29728,12.1008,10.29728,12.1008a94.18818,94.18818,0,0,0-9.541-15.24233C96.41209,187.38722,84.83491,180.057,88.67459,157.13534Z" fill="#fff"/><path d="M108.62921,160.21871a29.87541,29.87541,0,0,0-3.956-4.18873s-5.46862-16.6967-.5236-45.9596c0,0-7.67933,11.519-9.13374,21.35086a85.36532,85.36532,0,0,0,5.81767,30.89182s11.92623,6.86486,16.11494,22.9798c0,0,1.10536-20.071-8.9592-30.89182C108.28013,156.32087,108.51284,158.29887,108.62921,160.21871Z" fill="#fff"/><path d="M71.62881,22.63077l1.68712-5.46863,1.629,4.945Zm-.29089-9.59918c-1.86165,5.46862-3.78149,10.99542-5.70132,16.5222,1.629-.29088,2.44342-.46543,4.07237-.69813l1.04719-3.54875c1.978-.34908,2.967-.46542,4.88684-.8145l1.10535,3.19974c1.629-.23273,2.44342-.34908,4.07238-.58178-2.26889-5.934-3.43243-8.84285-5.70132-14.77687C73.665,12.62437,72.9087,12.74072,71.33792,13.03159Z" fill="#fff"/><path d="M93.91049,22.74712l-.46541.34905-3.54879.40725V12.91524l3.54879-.40722.46541.29087ZM85.82393,10.93725V26.47043c4.07236-.46543,6.10855-.69813,10.18092-1.10535l1.978-1.45441V10.93725l-1.978-1.10537C91.93248,10.23913,89.89629,10.47183,85.82393,10.93725Z" fill="#fff"/><path d="M103.97507,24.72514c4.596-.34908,6.923-.46543,11.57717-.69813V21.5254c-3.02519.11635-4.5378.2327-7.563.40725V17.80209c2.2689-.17452,3.37424-.2327,5.585-.349V14.95143c-2.21072.11635-3.31606.17455-5.585.2909V11.40265c3.02518-.17453,4.53779-.29087,7.563-.40722V8.49381c-4.65415.17452-6.98122.2909-11.57717.64Z" fill="#fff"/><path d="M125.15139,21.23453V8.26111c-1.62894,0-2.44341,0-4.07237.05818V23.91067c4.42143-.17456,6.63214-.17456,11.11175-.17456V21.23453C129.34012,21.17635,127.94388,21.17635,125.15139,21.23453Z" fill="#fff"/><path d="M142.19716,17.97664l1.68713-5.17775,1.68713,5.2941Zm-.29088-9.65735c-2.2689,6.16672-3.43243,9.2501-5.64315,15.41685,1.629,0,2.44343,0,4.13056.11635l1.04717-3.31608c1.978.05817,2.967.05817,5.0032.17452l1.04718,3.37426c1.629.05817,2.44343.11635,4.13055.2327-2.26889-6.39942-3.43242-9.541-5.70133-15.82408C144.29152,8.37746,143.53522,8.37746,141.90628,8.31929Z" fill="#fff"/><path d="M156.56681,24.55058c1.62894.11635,2.44341.17456,4.07237.34908V9.30831c-1.629-.11635-2.44343-.17455-4.07237-.2909Z" fill="#fff"/><path d="M174.6016,23.38707l-.40725.29087-3.60694-.40722V12.68254l3.60694.40725.40725.34905Zm2.15254-12.44982c-4.07237-.46542-6.10857-.69812-10.2391-1.10537V25.42326c4.07237.349,6.16673.58174,10.2391,1.10534l1.91983-1.04717V12.44984Z" fill="#fff"/><path d="M196.06883,16.40585V13.84609c-4.53781-.8145-6.86487-1.16355-11.46082-1.86167V27.57577c4.59595.64,6.923,1.0472,11.46082,1.86167V26.87768c-2.967-.5236-4.47962-.8145-7.44665-1.22172V21.5254l5.5268.87267V19.89646c-2.21072-.40722-3.31608-.58178-5.5268-.93082V15.126C191.58921,15.59138,193.10179,15.82408,196.06883,16.40585Z" fill="#fff"/><path d="M101.1244,103.78729s-30.83366.69811-72.7209,13.14793l-9.541-2.38524,9.36645,5.934s34.61515-12.44981,71.32465-14.36964Z" fill="#ed1b2f"/><path d="M233.3601,116.93523c-41.88725-12.44983-72.72091-13.14794-72.72091-13.14794l1.5126,2.32707c36.76767,1.91983,71.32463,14.36964,71.32463,14.36964l9.42466-5.934Z" fill="#ed1b2f"/><path d="M14.6738,45.31969c-2.618,2.79245-3.89785,4.1887-6.5158,7.03936V66.20511c5.23591-1.45442,7.85386-2.15254,13.14794-3.43241V55.617L22.87671,53.988c4.07237-.989,6.10856-1.45442,10.23911-2.32709l1.62894.93085V66.26331l-1.62894,1.62894c-4.77049.989-7.09756,1.57077-11.80988,2.67614V81.15654c4.71232-1.16353,7.03939-1.68713,11.80988-2.67614l1.62894.93083v14.486L33.11582,95.5262c-4.13055.87264-6.16674,1.338-10.23911,2.32706l-1.57077-.93083V89.70852c-5.29408,1.27988-7.912,1.978-13.14794,3.43242v13.78789c2.618,1.39624,3.89784,2.15254,6.5158,3.607q13.43881-3.49062,27.05217-6.10856c2.618-2.61795,3.956-3.956,6.574-6.574V75.51339c-2.618-1.62894-3.956-2.44341-6.574-4.07235,2.618-2.618,3.956-3.956,6.574-6.5158V43.39984c-2.618-1.62894-3.956-2.44341-6.574-4.07238C32.6504,41.01458,23.633,42.99262,14.6738,45.31969Z" fill="#a2a089" fill-rule="evenodd"/><path d="M73.78134,71.55739c4.24691-.5236,6.39944-.7563,10.64634-1.16355l1.62894,1.10537v14.486l-1.62894,1.45442c-4.2469.46541-6.39943.69812-10.64634,1.2217L72.26875,87.556V73.07ZM65.4039,35.25511c-2.67613,2.50158-4.0142,3.72331-6.63215,6.2831v54.4534c2.618,1.7453,3.956,2.618,6.63215,4.36325C74.47946,99.075,83.61321,98.02778,92.747,97.2715c2.67613-2.32708,4.0142-3.49061,6.69032-5.81767V63.87805c-2.67612-1.91982-4.01419-2.90884-6.69032-4.82865-6.80667.58174-13.67153,1.27989-20.4782,2.15251V46.19233l1.51259-1.45442c4.24691-.5236,6.34126-.75629,10.58815-1.16354l1.629,1.10537v6.86487c5.41044-.52363,8.08656-.75633,13.43882-1.10537V37.00043c-2.67612-1.91984-3.956-2.90884-6.63214-4.82868C83.61321,32.92805,74.47946,33.97521,65.4039,35.25511Z" fill="#a2a089" fill-rule="evenodd"/><path d="M187.69136,63.35448c-5.23592-.63995-7.85387-.93085-13.08976-1.45442V43.2835c5.23589.52359,7.85384.81447,13.08976,1.45441l1.51258,1.33807v16.115ZM202.75913,41.48c-2.618-2.50161-3.956-3.78151-6.63216-6.28313-11.69352-1.51256-23.387-2.73428-35.1969-3.60692V96.7479c5.46861.34906,8.20291.5236,13.67153,1.04718V72.43c3.25788.349,4.88684.46542,8.14472.81447q3.3161,13.08977,6.63215,26.17953c5.35226.63994,8.0284,1.04718,13.38066,1.86165q-3.3161-13.177-6.63216-26.354c2.618-1.74532,3.956-2.618,6.63216-4.30508Z" fill="#a2a089" fill-rule="evenodd"/><path d="M253.6056,65.79789V52.35905c-2.618-2.85066-3.89786-4.24691-6.51582-7.03936-9.01738-2.32707-18.093-4.36326-27.28487-6.16675-2.618,1.62894-3.89786,2.44344-6.574,4.07238V69.87024c2.67611,2.618,3.956,3.956,6.574,6.51582,6.28307,1.2217,12.508,2.55976,18.73291,4.07236l1.57077,1.629V96.80609l-1.57077.93082c-4.07238-.989-6.16675-1.45442-10.23911-2.32706l-1.62894-1.629v-6.923c-5.41044-1.16353-8.08657-1.629-13.497-2.618V97.67874c2.618,2.61793,3.956,3.89783,6.57395,6.51578,9.19193,1.7453,18.2675,3.78149,27.28491,6.10855,2.61794-1.45441,3.8978-2.15254,6.51577-3.54878V79.004c-2.618-2.85066-3.89783-4.24691-6.51577-7.03936-6.22492-1.629-12.508-3.14157-18.79108-4.42143l-1.629-1.629V52.35905l1.629-.93082c4.13052.87265,6.16672,1.33807,10.2391,2.26889l1.57076,1.62894v6.86487C245.519,63.64535,248.25332,64.34347,253.6056,65.79789Z" fill="#a2a089" fill-rule="evenodd"/><path d="M111.07263,30.95V95.468a23.69905,23.69905,0,0,1,20.01278,16.63853s3.89784-14.60235,19.14015-16.6967V84.99621q-12.74071-.52359-25.48142-.34906V67.485c7.563-.05817,11.34447-.05817,18.90743.11638V57.18776c-7.563-.17455-11.34444-.23273-18.90743-.11638V41.01461q12.74072-.17452,25.48142.34907V30.95Q130.5909,30.33916,111.07263,30.95Z" fill="#a2a089" fill-rule="evenodd"/></svg>