<?xml version="1.0" encoding="UTF-8" standalone="no"?>
<svg xmlns:rdf="http://www.w3.org/1999/02/22-rdf-syntax-ns#" xmlns="http://www.w3.org/2000/svg" height="200.63401" width="253.74893" version="1.1" xmlns:cc="http://creativecommons.org/ns#" xmlns:dc="http://purl.org/dc/elements/1.1/" viewBox="0 0 253.74893 200.63401"><path d="M144.44581,183.19632A52.14652,52.14652,0,0,0,183.53033,200.634a54.109,54.109,0,0,0,21.9141-4.7436,52.35968,52.35968,0,0,0,25.7223-69.48362c-.73493-1.46986-1.46984-2.93971-2.27157-4.34274a14.2491,14.2491,0,0,0,6.68111-3.00652c3.80822-3.20692,5.74577-8.01734,5.74577-14.43121V85.986a17.05605,17.05605,0,0,0-3.27375-10.623l15.70064-29.26332H203.17284V37.54789l7.7501-14.56482H71.42117L31.93576,0l12.026,14.8989L17.97222,1.20262,49.03943,46.03291H0L17.63816,70.48582v55.72053l12.69413-2.67245c6.54749-1.33623,13.22861-2.53882,19.90973-3.6746,1.403-.20046,31.26764-4.20912,46.23335-5.34491l43.02641,62.13439c.66811,1.00217,1.403,2.07117,2.138,3.07333Z" fill="#faa21b"/><path d="M70.419,44.29582c0-.20044,0-.33406-.13363-.40088-.06682-.06681-.20043-.06681-.40087-.06681H68.281v4.14229H70.085a.34715.34715,0,0,0,.26725-.13361c.06681-.06681.06681-.13362.06681-.26724Zm-2.138-7.7501v4.61h1.67028a.45669.45669,0,0,0,.4677-.46768V36.87977c0-.26725-.13363-.334-.33406-.334Zm5.47854,3.87506a2.19589,2.19589,0,0,1-.26725,1.13578,1.48918,1.48918,0,0,1-.93536.6681,1.45347,1.45347,0,0,1,1.069.46769,2.0189,2.0189,0,0,1,.33405,1.069v4.54314a2.95071,2.95071,0,0,1-.6013,2.07115,2.73826,2.73826,0,0,1-2.138.66812H64.80687V33.4056h6.88154a1.917,1.917,0,0,1,1.53665.60127,2.438,2.438,0,0,1,.53451,1.60348Z" fill="#faa21b"/><path d="M86.6541,36.54572v6.013h1.7371a.31562.31562,0,0,0,.33406-.33406v-5.3449a.3156.3156,0,0,0-.33406-.334Zm5.54535,7.34922A1.59181,1.59181,0,0,1,90.596,45.4316l1.87072,5.61215H88.79207L87.12179,45.4316H86.6541v5.61215h-3.541V33.4056h6.68112a2.06263,2.06263,0,0,1,1.8039.66808,2.22313,2.22313,0,0,1,.60131,1.67028Z" fill="#faa21b"/><rect x="101.48621" y="33.47241" width="3.47418" height="17.57136" fill="#faa21b"/><path d="M115.04887,51.04375,114.44758,47.77H118.189a.35432.35432,0,0,0,.40087-.40087V44.229c0-.26725,0-.40088-.13362-.46767a3.76626,3.76626,0,0,0-.46768-.06683h-1.80391a2.50506,2.50506,0,0,1-.73491-.06681,1.187,1.187,0,0,1-.66812-.26725.97282.97282,0,0,1-.40085-.60129,2.231,2.231,0,0,1-.20044-1.00216V35.744a2.2233,2.2233,0,0,1,.60129-1.67028,2.30838,2.30838,0,0,1,1.73709-.66808h4.87722l.60131,3.27373h-4.00868a.35434.35434,0,0,0-.40087.40089v3.20692c0,.13364,0,.26724.13364.33406a.56475.56475,0,0,0,.40085.13362H120.327a1.8087,1.8087,0,0,1,1.26941.40087,1.69772,1.69772,0,0,1,.46768,1.403v5.81256a2.95084,2.95084,0,0,1-.60131,2.07117,3.02889,3.02889,0,0,1-2.138.60129Z" fill="#faa21b"/><path d="M136.96294,44.29582a.56489.56489,0,0,0-.1336-.40088.84754.84754,0,0,0-.40089-.06681H134.825v4.14229h1.73709a.51033.51033,0,0,0,.33407-.13361c0-.06681.0668-.13362.0668-.26724Zm-2.138-7.7501v4.61h1.67028a.34711.34711,0,0,0,.26725-.13362.51024.51024,0,0,0,.13363-.33406V36.87977c0-.26725-.0668-.334-.26725-.334Zm5.41172,3.87506a2.19589,2.19589,0,0,1-.26725,1.13578,1.48915,1.48915,0,0,1-.93535.6681,1.45345,1.45345,0,0,1,1.069.46769,2.019,2.019,0,0,1,.33406,1.069v4.54314a2.9507,2.9507,0,0,1-.60131,2.07115,2.73823,2.73823,0,0,1-2.138.66812H131.284V33.4056h6.88155a1.917,1.917,0,0,1,1.53666.60127,2.438,2.438,0,0,1,.5345,1.60348Z" fill="#faa21b"/><path d="M153.13127,46.03291h1.67028l-.80176-6.21344ZM152.7304,48.839l-.26725,2.20476h-3.541l3.20694-17.63815h3.74143l3.20694,17.63815h-3.541l-.26724-2.20476Z" fill="#faa21b"/><polygon points="167.763 33.472 171.103 33.472 172.907 40.488 172.907 33.472 176.515 33.472 176.515 51.044 172.907 51.044 171.037 43.695 171.037 51.044 167.763 51.044 167.763 33.472" fill="#faa21b"/><polygon points="185.735 33.472 192.55 33.472 193.151 36.746 189.343 36.746 189.343 40.888 192.283 40.888 192.283 43.895 189.343 43.895 189.343 47.703 193.018 47.703 192.416 50.977 185.735 50.977 185.735 33.472" fill="#faa21b"/><path d="M46.16653,99.415a1.51606,1.51606,0,0,1-.20043.86857,2.11773,2.11773,0,0,1-.93536.33406c-2.27158.33407-3.40737.5345-5.679.86854V88.65845c2.07115-.26725,3.07332-.33406,5.14446-.53448a1.64135,1.64135,0,0,1,1.2026.20042c.33406.20044.46768.53449.46768,1.1358C46.23334,93.402,46.23334,95.40638,46.16653,99.415Zm-.06681-32.47021V78.50316a1.31527,1.31527,0,0,1-.40087,1.069,2.26259,2.26259,0,0,1-1.00216.40086c-2.138.13362-3.20694.20045-5.27809.40087V66.07627c2.27158-.06683,3.40737-.06683,5.679-.13364A.8858.8858,0,0,1,46.09972,66.94481Zm6.94837,15.63383a5.84024,5.84024,0,0,0,3.07331-2.20478,6.86186,6.86186,0,0,0,.80173-3.34056c.06681-5.679.06681-8.485.06681-14.164a6.05186,6.05186,0,0,0-1.67028-4.54317,6.69977,6.69977,0,0,0-5.01084-1.73709H20.64465l7.54967,10.48936v46.09972c6.81474-1.403,13.56267-2.67246,20.37741-3.80824,3.27376-.5345,5.54534-1.46985,6.88156-2.87288a9.55229,9.55229,0,0,0,1.93752-6.41387c.06682-5.3449.06682-8.01734.06682-13.36224a4.43754,4.43754,0,0,0-1.069-2.93969A3.91263,3.91263,0,0,0,53.04809,82.57864Z" fill="#fff"/><path d="M81.71009,56.58909H77.0333l2.87288,4.00865c0,11.75878-.0668,23.45074-.13362,35.07587a1.51618,1.51618,0,0,1-.20043.86857c-.13362.20042-.40087.26721-.86855.33405l-4.00868.334c-.46767.06682-.73492,0-.86853-.20043a1.1607,1.1607,0,0,1-.20044-.80175c.06681-13.1618.06681-26.3904.13362-39.619H59.32834l2.87288,4.07547c-.06681,12.96137-.06681,25.92274-.13363,38.8841,0,2.80607.60131,4.74362,1.93752,5.81259,1.26942,1.00216,3.541,1.33624,6.81475.93535,4.67679-.5345,7.01517-.80173,11.62515-1.2026,3.34056-.33406,5.61213-1.069,6.88155-2.33838,1.33621-1.26943,2.00433-3.14014,2.00433-5.81259q0-20.14354.13363-40.35394H81.71009Z" fill="#fff"/><path d="M113.37859,94.40422c-1.67028.06681-3.40737.1336-5.61213.20042,0-12.09282.06679-24.11882.06679-36.21167V56.58909h-14.498l2.87288,4.00865v1.87072q-.1002,20.74487-.13361,41.48974c7.01516-.46769,16.03468-.73491,23.11667-.86854Z" fill="#fff"/><path d="M139.50178,102.88924c2.20476.0668,4.34272.0668,6.347.13361V94.40422c-4.61-.13362-6.88155-.13362-11.42469-.20046,0-12.49366,0-25.05418-.06683-37.61467H119.79246l2.93971,4.07547V91.665Z" fill="#fff"/><path d="M183.26311,89.72742l11.55833,7.68328c0-9.88806-.06681-19.7093-.13362-29.59734V65.94263c3.07331.06681,4.61.13364,7.61647.20045v-9.554H175.57982v8.9527c3.0733.06681,4.54316.06681,7.61647.13363C183.26311,73.69274,183.26311,81.71008,183.26311,89.72742Z" fill="#fff"/><path d="M149.38984,103.22329c4.00866.1336,8.75227.40086,13.36224.73491.13361-.0668.26723-.0668.334-.13363a51.98534,51.98534,0,0,1,8.88588-3.14012l-3.541-5.21128c-2.33838-.20042-4.40955-.26722-7.416-.46767V84.71658c3.74141.13364,5.61213.26725,9.35356.40087V76.89968c-3.80824-.13363-5.61215-.20044-9.42037-.33407V65.40815c4.944,0,7.416.06681,12.29325.13362v-8.9527H146.31651l2.93971,4.00867C149.323,74.82854,149.323,88.99249,149.38984,103.22329Z" fill="#fff"/><path d="M217.67089,66.67756c5.14444.13362,7.68328.26724,12.82774.46768l5.61215-10.55617h-23.1835c-2.67244,0-4.61.66811-5.81257,1.80388a6.82232,6.82232,0,0,0-1.8039,4.94405v1.67028c0,5.3449,0,10.68978.06681,15.96787a6.9865,6.9865,0,0,0,.53448,3.14012,4.8689,4.8689,0,0,0,3.40739,2.93971,13.14576,13.14576,0,0,0,2.33838.40085c2.33838.26725,3.4742.33408,5.8794.60131a3.65855,3.65855,0,0,1,1.60344.40085c.33406.20044.46769.66812.46769,1.40305,0,3.94185,0,5.94619.06681,9.95487h0c0,.73493-.46766,1.00216-1.33622.86854-4.8772-.66812-7.28241-1.00216-12.15963-1.60347l-3.00652,3.875,2.472,1.67028a47.72162,47.72162,0,0,1,8.55186,5.47855c2.27158.40085,4.40953.80172,6.21343,1.069.53448.13358,1.069.20042,1.67028.334,3.20694.60131,5.47853.46767,6.68112-.60131,1.26941-1.069,1.93751-3.14014,1.93751-6.28027V85.986c0-2.138-.46767-3.67462-1.46982-4.61a6.74648,6.74648,0,0,0-4.14233-1.67028c-2.80606-.20044-4.20907-.33406-7.082-.5345a1.80882,1.80882,0,0,1-1.26943-.40085,1.22277,1.22277,0,0,1-.46766-1.1358V67.81334C216.26784,67.01162,216.7355,66.61075,217.67089,66.67756Z" fill="#fff"/><path d="M233.83919,75.89752l14.09713-26.39043H199.69866V36.67933l5.47852-10.3557H70.48581L46.30016,12.29324l10.89022,13.429L28.79563,10.75661,55.58691,49.44028H6.68112L21.04552,69.35v52.58043l8.55184-1.73712c6.68112-1.403,13.42905-2.67242,20.11017-3.74141,0,0,31.40126-4.27593,46.76784-5.41171.53449,0,1.13579-.06679,1.67028-.06679l44.16218,63.73784a33.97855,33.97855,0,0,0,2.07115,3.00651,48.58727,48.58727,0,0,0,22.11453,16.43557,47.9265,47.9265,0,0,0,16.97,3.07333,48.94811,48.94811,0,0,0,44.49626-69.35,49.74718,49.74718,0,0,0-5.47853-9.08633,20.54178,20.54178,0,0,0,2.80606.20042,12.176,12.176,0,0,0,8.01735-2.60563c3.00652-2.472,4.47634-6.34708,4.47634-11.692V86.0528c0-4.14228-1.20258-7.416-3.541-9.75443A1.13437,1.13437,0,0,0,233.83919,75.89752Z" fill="#002d73"/><path d="M70.419,44.29582c0-.20044,0-.33406-.13363-.40088-.06682-.06681-.20043-.06681-.40087-.06681H68.281v4.14229H70.085a.34715.34715,0,0,0,.26725-.13361c.06681-.06681.06681-.13362.06681-.26724Zm-2.138-7.7501v4.61h1.67028a.45669.45669,0,0,0,.4677-.46768V36.87977c0-.26725-.13363-.334-.33406-.334Zm5.47854,3.87506a2.19589,2.19589,0,0,1-.26725,1.13578,1.48918,1.48918,0,0,1-.93536.6681,1.45347,1.45347,0,0,1,1.069.46769,2.0189,2.0189,0,0,1,.33405,1.069v4.54314a2.95071,2.95071,0,0,1-.6013,2.07115,2.73826,2.73826,0,0,1-2.138.66812H64.80687V33.4056h6.88154a1.917,1.917,0,0,1,1.53665.60127,2.438,2.438,0,0,1,.53451,1.60348Z" fill="#faa21b"/><path d="M86.6541,36.54572v6.013h1.7371a.31562.31562,0,0,0,.33406-.33406v-5.3449a.3156.3156,0,0,0-.33406-.334Zm5.54535,7.34922A1.59181,1.59181,0,0,1,90.596,45.4316l1.87072,5.61215H88.79207L87.12179,45.4316H86.6541v5.61215h-3.541V33.4056h6.68112a2.06263,2.06263,0,0,1,1.8039.66808,2.22313,2.22313,0,0,1,.60131,1.67028Z" fill="#faa21b"/><rect x="101.48621" y="33.47241" width="3.47418" height="17.57136" fill="#faa21b"/><path d="M115.04887,51.04375,114.44758,47.77H118.189a.35432.35432,0,0,0,.40087-.40087V44.229c0-.26725,0-.40088-.13362-.46767a3.76626,3.76626,0,0,0-.46768-.06683h-1.80391a2.50506,2.50506,0,0,1-.73491-.06681,1.187,1.187,0,0,1-.66812-.26725.97282.97282,0,0,1-.40085-.60129,2.231,2.231,0,0,1-.20044-1.00216V35.744a2.2233,2.2233,0,0,1,.60129-1.67028,2.30838,2.30838,0,0,1,1.73709-.66808h4.87722l.60131,3.27373h-4.00868a.35434.35434,0,0,0-.40087.40089v3.20692c0,.13364,0,.26724.13364.33406a.56475.56475,0,0,0,.40085.13362H120.327a1.8087,1.8087,0,0,1,1.26941.40087,1.69772,1.69772,0,0,1,.46768,1.403v5.81256a2.95084,2.95084,0,0,1-.60131,2.07117,3.02889,3.02889,0,0,1-2.138.60129Z" fill="#faa21b"/><path d="M136.96294,44.29582a.56489.56489,0,0,0-.1336-.40088.84754.84754,0,0,0-.40089-.06681H134.825v4.14229h1.73709a.51033.51033,0,0,0,.33407-.13361c0-.06681.0668-.13362.0668-.26724Zm-2.138-7.7501v4.61h1.67028a.34711.34711,0,0,0,.26725-.13362.51024.51024,0,0,0,.13363-.33406V36.87977c0-.26725-.0668-.334-.26725-.334Zm5.41172,3.87506a2.19589,2.19589,0,0,1-.26725,1.13578,1.48915,1.48915,0,0,1-.93535.6681,1.45345,1.45345,0,0,1,1.069.46769,2.019,2.019,0,0,1,.33406,1.069v4.54314a2.9507,2.9507,0,0,1-.60131,2.07115,2.73823,2.73823,0,0,1-2.138.66812H131.284V33.4056h6.88155a1.917,1.917,0,0,1,1.53666.60127,2.438,2.438,0,0,1,.5345,1.60348Z" fill="#faa21b"/><path d="M153.13127,46.03291h1.67028l-.80176-6.21344ZM152.7304,48.839l-.26725,2.20476h-3.541l3.20694-17.63815h3.74143l3.20694,17.63815h-3.541l-.26724-2.20476Z" fill="#faa21b"/><polygon points="167.763 33.472 171.103 33.472 172.907 40.488 172.907 33.472 176.515 33.472 176.515 51.044 172.907 51.044 171.037 43.695 171.037 51.044 167.763 51.044 167.763 33.472" fill="#faa21b"/><polygon points="185.735 33.472 192.55 33.472 193.151 36.746 189.343 36.746 189.343 40.888 192.283 40.888 192.283 43.895 189.343 43.895 189.343 47.703 193.018 47.703 192.416 50.977 185.735 50.977 185.735 33.472" fill="#faa21b"/><path d="M131.284,125.87229l-11.62515-15.70062h-.334c-1.67028,0-3.60781.0668-5.61215.13361Z" fill="#faa21b"/><polygon points="57.658 40.554 57.658 32.537 46.3 25.589 57.658 40.554" fill="#faa21b"/><path d="M219.54156,161.61627a30.66027,30.66027,0,0,1-1.8707,4.27594c-10.02168,3.1401-24.58651.06678-38.14921-6.07984a91.16233,91.16233,0,0,1-21.11233-13.1618,52.93779,52.93779,0,0,1,2.07115-5.01084l.20044-.26725c10.55617,6.41387,21.24595,3.00652,31.7353-.334a91.55728,91.55728,0,0,1,11.62517-3.14014,63.85991,63.85991,0,0,1,9.888-.86856,38.52166,38.52166,0,0,1,6.48069.53451A38.14055,38.14055,0,0,1,219.54156,161.61627ZM199.565,183.19632a38.69256,38.69256,0,0,1-19.30843,3.34056,107.56572,107.56572,0,0,1-10.02166-14.23082c-4.27592-6.68112-7.95054-12.62731-13.96355-16.56916q.30066-2.10459.80175-4.20912A97.30124,97.30124,0,0,0,177.651,164.0883c12.42688,5.67894,25.92274,8.81907,36.54573,7.34922A38.35956,38.35956,0,0,1,199.565,183.19632Zm-50.97692-18.9076a40.281,40.281,0,0,1-2.472-7.082,20.234,20.234,0,0,1,2.07115.13361,12.9,12.9,0,0,1,3.14013.86855,48.871,48.871,0,0,0,.6681,12.09284A43.77457,43.77457,0,0,1,148.58809,164.28872Zm17.63815,10.5562c2.138,3.34056,4.3427,6.88155,7.01518,10.42253a27.44589,27.44589,0,0,1-3.07333-1.00216,37.59971,37.59971,0,0,1-10.957-6.21346,43.17019,43.17019,0,0,1-3.34056-16.76961C159.87918,164.68959,162.95249,169.5,166.22624,174.84492Zm-20.24379-34.80868a63.8685,63.8685,0,0,0,7.082,8.08417c-.46768,1.73709-.86856,3.541-1.2026,5.34492a14.13709,14.13709,0,0,0-3.00652-.73493,15.576,15.576,0,0,0-3.541-.13364A37.90334,37.90334,0,0,1,145.98245,140.03624Zm10.89023-1.60343-.60131,1.20258c-.6013,1.20262-1.069,2.40519-1.53665,3.541a34.97175,34.97175,0,0,1-6.88156-9.15312,36.80361,36.80361,0,0,1,4.14229-7.6833,17.30119,17.30119,0,0,0,.46768,4.20911A16.18915,16.18915,0,0,0,156.87268,138.43281Zm26.92488-28.59522c-10.957,7.01519-19.108,15.36659-24.5865,24.31927a12.12077,12.12077,0,0,1-2.20477-4.67676,19.20674,19.20674,0,0,1,.73491-9.68764,39.12212,39.12212,0,0,1,9.75445-6.41385A37.68691,37.68691,0,0,1,183.79756,109.83759Zm34.80865,22.71582c-1.53665-.13364-3.07333-.20043-4.67678-.20043a66.74418,66.74418,0,0,0-10.68978.93535,94.84635,94.84635,0,0,0-12.22646,3.27374c-9.554,3.00651-19.24163,6.07981-28.12751.60131,5.8794-9.88806,15.43337-19.108,28.59518-26.524a41.48406,41.48406,0,0,1,5.41171,1.60346,38.30849,38.30849,0,0,1,21.58,19.97655Zm-12.026-20.71146h.20042L170.23492,89.59382l13.29541,15.567a43.81981,43.81981,0,0,0-18.039,3.94183,42.98875,42.98875,0,0,0-13.2286,9.48721L120.52739,97.4107l25.92274,28.86245a42.2894,42.2894,0,0,0-3.34056,7.01518,41.18433,41.18433,0,0,0-2.67244,15.09931l-22.51538-22.983L147.185,171.43752A43.10694,43.10694,0,1,0,206.58021,111.842Z" fill="#faa21b"/><path d="M39.35179,88.65843c2.07115-.26725,3.07332-.334,5.14447-.53448a1.64137,1.64137,0,0,1,1.20259.20043c.33406.20044.46769.53448.46769,1.13579V99.415a1.13376,1.13376,0,0,1-.26725.86857,1.82151,1.82151,0,0,1-.93536.33406c-2.27158.334-3.40737.53446-5.61214.86854ZM46.09972,68.6819v9.82124a1.31523,1.31523,0,0,1-.40087,1.069,2.26243,2.26243,0,0,1-1.00216.40087c-2.138.13361-3.20693.20044-5.27809.40086V66.07625c2.27159-.06682,3.40738-.06682,5.679-.13363q1.00216-.10019,1.00216,1.00218ZM55.38648,106.497c1.33623-1.403,2.00433-3.541,2.00433-6.34708V86.78771A4.48055,4.48055,0,0,0,56.38865,83.848a2.95823,2.95823,0,0,0-1.00217-.80172,4.97515,4.97515,0,0,0-2.40521-.46767,5.01651,5.01651,0,0,0,3.07332-2.20479,6.07955,6.07955,0,0,0,.86854-3.34054v-14.164a6.15417,6.15417,0,0,0-1.67028-4.54316A6.69978,6.69978,0,0,0,50.242,56.58906H20.57785l7.54967,10.48935V113.245c6.81473-1.40305,13.56267-2.67248,20.37741-3.80826C51.84549,108.9022,54.11707,107.90006,55.38648,106.497Z" fill="#fff"/><path d="M82.31139,56.58909H77.0333l2.87288,4.00865v1.87072c0,11.09066-.0668,22.18131-.13362,33.272a1.425,1.425,0,0,1-.20043.80176.96692.96692,0,0,1-.86855.33405c-1.60347.13362-2.40521.20043-4.00868.40087a1.2536,1.2536,0,0,1-.86853-.20044.99742.99742,0,0,1-.20044-.66812v-.13362c.06681-12.62731.06681-25.18781.13362-37.81512V56.65588H59.32834l2.87288,4.00868v1.87072c0,12.36006-.06681,24.72014-.13363,37.0802V100.15c.06682,2.53884.73493,4.27595,1.93752,5.27811,1.33623,1.00216,3.60781,1.33622,6.88156.93535,4.61-.53448,6.94837-.80173,11.62515-1.20262,3.27375-.334,5.61214-1.069,6.88156-2.33836s1.93751-3.14014,1.93751-5.81258c.06681-12.82775.13363-25.65551.13363-38.55V56.65588C87.78991,56.58909,85.51833,56.58909,82.31139,56.58909Z" fill="#fff"/><path d="M114.58119,96.20812l-1.2026-1.8039c-1.73709.06681-3.40737.13362-5.61213.20042,0-12.09282.06681-24.11882.06681-36.21165v-1.8039h-14.498l2.87289,4.00866v1.87071q-.10021,20.74487-.13362,41.48976c7.01516-.46771,16.03468-.73493,23.11667-.86856Z" fill="#fff"/><path d="M134.35732,56.58909H119.79248l2.93969,4.07547V91.665l16.76961,11.22425c2.20476.06682,4.34272.06682,6.34706.13363V94.40422c-4.61-.13362-6.88157-.13362-11.42471-.20046C134.35732,81.71008,134.35732,69.14958,134.35732,56.58909Z" fill="#fff"/><path d="M202.30429,66.20989V56.58907H175.64662v9.01951c3.0065.0668,4.54315.0668,7.54967.13361.06681,7.95055.06681,15.96789.13361,23.98523l6.48068,4.27591,5.07767,3.40737c0-9.88806-.06683-19.7093-.13362-29.59734V65.94263C197.76113,66.07627,199.29778,66.07627,202.30429,66.20989Z" fill="#fff"/><path d="M150.99331,56.58909h-4.61l2.93971,4.07547c0,14.164.06679,28.39476.06679,42.55873,4.00868.20043,8.75229.46768,13.42907.80172a.50656.50656,0,0,1,.26723-.13361.06545.06545,0,0,0,.06683-.06681,49.84444,49.84444,0,0,1,8.88588-3.07333L168.431,95.47319c-2.3384-.20044-4.40955-.26724-7.416-.46766V84.71658c3.74141.13364,5.61212.26727,9.35356.40087V76.89968c-3.80824-.13363-5.61215-.20044-9.42037-.33406V65.40815c4.944,0,7.416.06683,12.29325.13362V56.58909Z" fill="#fff"/><path d="M216.26784,67.81336c0-.80174.46766-1.20261,1.403-1.1358,5.14447.13362,7.68328.26724,12.82773.46768l5.61215-10.55617H212.92728c-2.67247,0-4.61.66811-5.81261,1.80388a6.82244,6.82244,0,0,0-1.80389,4.94405v1.67028c0,5.3449,0,10.68978.06682,15.96787a6.98663,6.98663,0,0,0,.53449,3.14012,4.869,4.869,0,0,0,3.40737,2.93971,13.14618,13.14618,0,0,0,2.33839.40085c2.3384.26725,3.47418.33408,5.87939.60131a3.65839,3.65839,0,0,1,1.60345.40085c.33408.20044.46771.66812.46771,1.40305,0,3.94185,0,5.94619.06679,9.95487h0c0,.73493-.46767,1.00216-1.33622.86854-4.87722-.66812-7.28243-1.00216-12.15965-1.60347l-3.0065,3.87506,2.472,1.67028a14.13811,14.13811,0,0,0,1.403.7349.92241.92241,0,0,1,.26725.20046c.40085.20042.80174.46767,1.20259.6681.06681.06682.13362.06682.13362.13363a34.46871,34.46871,0,0,1,5.47851,3.74143c2.27158.40085,4.47636.80172,6.21345,1.069.5345.13361,1.069.20042,1.7371.334,3.20693.60131,5.41169.46767,6.68112-.60131s1.87071-3.14014,1.87071-6.28024V86.0528c0-2.138-.46768-3.74143-1.403-4.67678a6.35138,6.35138,0,0,0-4.1423-1.60347c-2.87286-.26723-4.27593-.334-7.082-.53448a3.16451,3.16451,0,0,1-1.33622-.40087,1.46884,1.46884,0,0,1-.40085-1.1358c0-3.34056,0-5.21128-.06684-8.08415A16.2742,16.2742,0,0,0,216.26784,67.81336Z" fill="#fff"/></svg>