<?xml version="1.0" encoding="UTF-8" standalone="no"?>
<svg xmlns:rdf="http://www.w3.org/1999/02/22-rdf-syntax-ns#" xmlns="http://www.w3.org/2000/svg" height="289.80583" width="345.77193" version="1.1" xmlns:cc="http://creativecommons.org/ns#" xmlns:dc="http://purl.org/dc/elements/1.1/" viewBox="0 0 345.77193 289.80583"><path d="M20.93121,73.3734c16.59546.23048,40.33619.38416,57.7.23048.7683-.07682.30732,12.13929.61464,14.90518,1.15245-.461,13.29173-2.53541,16.2113-4.072A55.42064,55.42064,0,0,1,86.6984,70.22333c2.38176-.30731,1.15246-.53782,3.45739-.84513-2.2281-6.4538-3.76471-10.83315-2.15127-19.28455-1.53661-.15365-4.994.07685-4.76351-.38414C93.07536,33.575,97.53154,30.34815,108.82567,21.28209c11.90879.53784,28.50423,1.07563,42.33379.53784,5.2245,3.68786,7.75989,6.91476,20.66749,7.29892,11.98561-.2305,20.05285-5.14767,20.05285-7.6831,13.13805-.30731,27.73593,0,39.79835-.61462,10.449,6.06962,20.66751,13.13806,28.04324,27.04444.61466.23048-4.3025,1.15245-3.68784,1.30611,2.38173,4.68668,1.92077,7.29894,1.30611,13.98323,2.76591,2.38175,10.67948,15.75032,10.21847,22.97241a30.26128,30.26128,0,0,0,6.4538-.2305c16.13448-22.51143,44.63873-10.29532,62.69394-7.68308,1.15249,34.497-4.60982,52.245-4.60982,52.245l-4.14889-.461c4.84038,14.982-7.91356,35.57267-7.91356,35.57267s9.9112,5.30132,16.67227,18.05525c4.22572,25.892-21.28209,53.32059-21.28209,53.32059s15.82713,21.9736,14.7515,34.72752C314.11763,262.22355,297.2917,254.31,297.2917,254.31A66.2811,66.2811,0,0,1,273.09,269.90664C250.96268,272.28839,221.306,254.31,221.306,254.31c0,8.98921-16.97958,35.49586-51.09249,35.49586-34.88118,0-52.78276-26.89079-52.78276-35.26536,0,0-17.36376,14.521-49.63272,14.521C36.37421,259.99547,2.79914,207.52,7.1785,183.39513c10.29533-16.51861,22.35777-23.27973,22.35777-23.27973-6.60745-15.82717-9.45019-25.431-9.45019-25.431l-14.06.61464C-3.88514,98.65075,1.41619,73.3734,1.41619,73.3734Z" fill="#e7d2ad" fill-rule="evenodd"/><polygon points="35.76 108.562 51.664 126.31 61.344 104.567 45.517 86.972 35.76 108.562" fill="#ceab7b" fill-rule="evenodd"/><polygon points="49.128 149.666 69.719 161.652 72.177 137.988 51.664 126.079 49.128 149.666" fill="#ceab7b" fill-rule="evenodd"/><polygon points="74.482 184.701 97.762 189.695 92.768 166.416 69.642 161.422 74.482 184.701" fill="#ceab7b" fill-rule="evenodd"/><polygon points="109.363 210.055 133.027 207.674 121.195 187.083 97.608 189.465 109.363 210.055" fill="#ceab7b" fill-rule="evenodd"/><polygon points="150.468 223.501 172.211 213.82 154.54 197.993 132.874 207.52 150.468 223.501" fill="#ceab7b" fill-rule="evenodd"/><polygon points="193.647 223.501 211.395 207.674 189.652 197.993 171.981 213.82 193.647 223.501" fill="#ceab7b" fill-rule="evenodd"/><polygon points="234.751 210.209 246.66 189.618 223.073 187.16 211.164 207.674 234.751 210.209" fill="#ceab7b" fill-rule="evenodd"/><polygon points="269.709 184.855 274.703 161.575 251.501 166.569 246.43 189.695 269.709 184.855" fill="#ceab7b" fill-rule="evenodd"/><polygon points="295.14 149.974 292.682 126.233 272.091 138.142 274.55 161.729 295.14 149.974" fill="#ceab7b" fill-rule="evenodd"/><polygon points="308.509 108.869 298.444 87.357 283.001 104.797 292.528 126.464 308.509 108.869" fill="#ceab7b" fill-rule="evenodd"/><path d="M280.3889,146.51636c16.826,2.68908,51.93764,32.49944,52.47543,39.10689.76832,43.40941-54.08889,79.98088-60.46582,81.05651-18.28575.38417-33.72873-7.60626-53.78157-17.36377-16.28814-10.52582-31.03966-15.13564-33.34459-20.7443,5.68548-1.30614,43.33258-16.67231,43.33258-16.67231l44.63872-4.68668,18.132-29.042s-7.99039-21.28214-10.98679-31.57748Z" fill="#1c2651" fill-rule="evenodd"/><path d="M289.60858,156.8117s14.67469,4.84032,16.82593,9.066c-3.91837.15365-12.21607,3.76471-12.21607,3.76471Z" fill="#ceab7b" fill-rule="evenodd"/><path d="M295.29408,173.17666l13.29172-4.30255s4.60986,8.22088,5.60866,16.21131l-2.30491-3.07326c-4.22572.69149-13.82957,3.07326-13.82957,3.07326Z" fill="#ceab7b" fill-rule="evenodd"/><path d="M314.65546,173.945s8.29771,6.14645,11.2941,11.67824a21.26252,21.26252,0,0,0-8.52822-.15362c-.99876-4.60986-2.84274-11.52462-2.84274-11.52462Z" fill="#ceab7b" fill-rule="evenodd"/><path d="M317.34451,188.54282a85.36611,85.36611,0,0,1,9.527-.15369,60.13165,60.13165,0,0,1-10.98683,27.81276c.922-5.53183,1.53663-11.14049,1.92077-16.82593A63.93511,63.93511,0,0,0,317.34451,188.54282Z" fill="#ceab7b" fill-rule="evenodd"/><path d="M305.5894,236.17791c-15.98082,18.59305-28.04324,22.12728-28.04324,22.12728s7.06842-7.83674,8.98919-12.60025c3.2269-1.383,10.52583-4.91717,19.05405-9.60386Z" fill="#e7d2ad" fill-rule="evenodd"/><path d="M281.08039,245.55128c-16.28815,12.60025-23.2029,12.75391-23.2029,12.75391a54.50425,54.50425,0,0,1-23.27977-5.9928c14.06006-6.06966,20.437-15.28934,20.437-15.28934S271.86068,245.01345,281.08039,245.55128Z" fill="#e7d2ad" fill-rule="evenodd"/><path d="M250.57855,234.56449c-7.99042,6.14645-28.81156,9.91116-28.81156,9.91116s-12.90758-4.60985-18.74672-10.29534c10.60263-1.92077,19.66869-8.29774,19.66869-8.29774l15.2893-.38414a120.67671,120.67671,0,0,0,12.52344,9.06606Z" fill="#e7d2ad" fill-rule="evenodd"/><path d="M5.64188,78.44424l69.22458-.15367-.15368,14.29052c9.91118-1.07563,27.6591-6.68427,27.6591-6.68427l1.07563,4.14885h22.74192V88.50906c26.73713,3.22688,24.509.461,38.18492.84515,13.6759.461,17.74793,4.45618,17.74793,4.45618l.15365-.92195c13.29174,1.38293,38.8764-6.99162,38.8764-6.99162l.69149,3.99522,53.24374.30731S282.3865,76.754,303.054,76.754c11.06366,0,23.20294,4.76351,27.65911,5.916,1.07566,26.12247-3.15006,42.02647-3.15006,42.02647l-7.4526-.07683a26.78089,26.78089,0,0,1,2.38178,11.98559c-1.383,27.27493-33.6519,66.84283-56.62434,68.91726-13.44539,1.30611-18.593-10.75631-18.593-10.75631-61.15735-32.8836-155.2751-18.28573-185.23912,19.515a428.81314,428.81314,0,0,1-25.66149-44.71554l2.61225-1.383C29.3826,149.43592,24.61909,128.4611,24.61909,128.4611s-15.05884,1.07563-15.13567.84511a198.322,198.322,0,0,1-3.76471-50.862Z" fill="#1c2651" fill-rule="evenodd"/><path d="M9.86758,80.28819l58.39142.15365-.07683,16.21131c11.9856.69149,29.57986-5.76231,29.57986-5.76231s3.53421,23.04924,9.83435,42.64109c-.69148-9.91117-.61464-20.36016-.61464-20.36016H103.678l.53782-19.20771h26.81395l.15366-1.07562c15.13566,1.99759,15.82715.23048,31.88479.07682,14.21371-.07682,18.59306,5.60866,21.35895,9.527.461-1.92077,1.69029-5.83914,1.69029-5.83914,12.90758.23048,30.34817-5.76231,30.34817-5.76231s6.14647,28.50423,5.60866,42.94844c1.84394-4.60988,3.07322-20.66751,3.07322-20.66751l-3.38055-.15366.84514-19.054,57.77677-.15367s5.30135-13.138,24.43221-13.36855c9.988-.15365,18.36256,3.9952,22.66511,4.45618a135.13791,135.13791,0,0,1-2.38178,32.4226l-11.90876-.69147s6.68424,9.75753,5.99279,18.28575c-1.9976,25.431-33.03725,62.69394-52.01446,63.38543-13.13808.38414-16.74914-16.826-16.74914-16.826l-4.072,5.455c-41.94962-19.82236-81.90165-17.44059-81.90165-17.44059l2.91957-20.898,3.611-.07683,2.68909-9.14288a23.30128,23.30128,0,0,1-13.13807,1.30615l-.15365,7.83673,3.07322.15366-.84514,20.82116c-50.32419,0-83.13094,21.66627-83.13094,21.66627l-1.30612-2.53539c-7.2221,5.07083-16.365,13.82953-16.365,13.82953C50.51108,183.8561,42.367,168.49,42.367,168.49l2.38175-1.22931a204.74856,204.74856,0,0,1-16.97961-47.94239l-14.982.99876C9.02244,105.2582,9.86758,80.365,9.86758,80.365Z" fill="#f79239" fill-rule="evenodd"/><path d="M13.93961,84.51388H63.95647c-.23049,15.59663.76832,28.65789.76832,28.65789l-11.29414.53779c-1.22929-7.83674-.69148-15.67347-4.60985-15.21249-.69148,31.03966,14.06,59.92805,15.13567,61.92565,1.76711,3.30374,3.611,1.92077,3.611,1.92077l10.52583,21.43582a139.49637,139.49637,0,0,0-15.36617,12.4466c-8.98921-14.67472-14.59786-25.892-14.59786-25.892s2.68908-.30735.69148-4.22572c-16.59545-33.34459-18.74672-54.08889-19.36136-67.38064-4.91718.84514-1.69029,16.365-1.69029,16.365l-11.44779.69147C13.1713,102.49229,13.93961,84.51388,13.93961,84.51388Z" fill="#1c2651" fill-rule="evenodd"/><path d="M71.33223,98.57392c9.83435-.15366,24.04805-4.4562,24.04805-4.4562,6.91478,39.03007,16.28813,58.46826,16.28813,58.46826a1.77141,1.77141,0,0,0,.84514,1.53663,2.11292,2.11292,0,0,0,1.76711.38414c2.07443-.38414,1.53662-1.53663,1.53662-1.53663s-4.91719-23.66387-4.072-43.17891c.23051-4.072-3.07322-2.76591-3.07322-2.76591l.15366-11.06364,25.892-.15365-.461,11.06361s-3.15006-.61462-3.22689,1.2293a301.4695,301.4695,0,0,0,1.5366,41.64232c.461,3.53423,3.22692,2.22808,3.22692,2.22808l1.84393,13.29176a194.93232,194.93232,0,0,0-38.33858,9.75748l-6.68428-16.44179s2.53542.15366,1.9976-1.38295c-.61465-1.53662-3.2269-7.45258-3.2269-7.45258l-5.30132.69148,1.53661,6.60742c.76831,3.22692,3.30373,1.92077,3.30373,1.92077L98.223,175.5584c-7.14527,2.91957-16.51863,7.83673-16.51863,7.83673-3.76471-6.22327-7.22209-12.60025-10.37216-19.2077,0,0,2.61224.461,1.53662-2.7659-9.4502-29.8872-5.2245-48.24976-1.53662-62.77078Z" fill="#1c2651" fill-rule="evenodd"/><path d="M135.7933,95.347c14.44417,1.30611,16.90278-.38418,27.73591-.38418,15.904,0,19.976,6.30013,19.82235,16.74912-.30731,25.35418-16.90278,23.04925-16.90278,23.04925a24.00637,24.00637,0,0,1-9.29652-1.383l-.38416,15.21251c-.15366,3.15009,3.07323,2.07443,3.07323,2.07443l-.5378,12.83077c-9.9112.23048-21.20532,1.61342-21.20532,1.61342l-1.69027-13.21491s3.30371.84514,3.07323-1.8439a362.40866,362.40866,0,0,1-.84515-41.87282c.30733-1.69029-3.22689-1.45976-3.22689-1.45976a110.94184,110.94184,0,0,1,.38417-11.29414Z" fill="#1c2651" fill-rule="evenodd"/><path d="M189.959,98.57392a109.45931,109.45931,0,0,0,23.81755-4.4562c8.83555,34.6507,2.91959,56.93163,2.91959,56.93163s-.53782,2.53543.15365,2.91958c.69147.461.84512.15368,2.07443.15368.99882,0,1.38295-1.383,1.38295-1.383a128.1954,128.1954,0,0,0,9.91119-44.33137c.0768-2.15126-3.38058-1.53664-3.38058-1.53664l.61466-10.91h23.66389s5.455,16.05765,5.68548,29.88719c2.07443-5.99282,2.68907-16.74911,2.68907-16.74911.38418-2.53543-3.53421-2.07444-3.53421-2.07444l.30733-11.06364h22.2041l-.38415,11.29412a2.83264,2.83264,0,0,0-3.5342,2.84276c-1.383,35.95681-28.88842,69.45505-28.88842,69.45505l-15.13568-6.14645a92.45056,92.45056,0,0,0,10.52586-37.64709s-3.53425,12.60025-6.76113,17.90155c-2.15125,3.68789,1.844,3.38054,1.844,3.38054s-4.76355,10.37219-8.52822,15.51984c-16.9028-5.60864-36.41782-7.83676-36.41782-7.83676l4.22568-12.98439a1.89252,1.89252,0,0,0,1.69029-.15365,2.1416,2.1416,0,0,0,.922-1.383c.38414-1.99758.69147-5.07082.69147-5.07082l-5.60863-.38414a40.633,40.633,0,0,0-1.61346,4.60982c-.76832,2.76591,1.92077,2.07444,1.92077,2.07444s-1.69027,6.99162-3.76472,12.98443c-8.37455-.84514-19.74552-1.30613-19.74552-1.30613l1.844-12.52344s2.68908,1.07565,3.45738-2.38174C175.74532,146.05535,187.11627,110.71316,189.959,98.57392Z" fill="#1c2651" fill-rule="evenodd"/><path d="M305.51258,84.51388c8.22087-.30733,14.29049,2.91955,17.90155,3.611a117.74313,117.74313,0,0,1-1.76711,24.89317l-12.90756-.69147s.30731-9.60385-3.61106-9.83433c-2.76592-.15368-2.68909,3.38053-2.68909,3.38053-.53779,5.2245,12.4466,13.9064,12.60025,29.19574.1537,17.05641-27.65906,57.08532-47.4046,59.15971-9.37337.9988-11.60145-8.91237-14.36737-16.59545,12.75391-17.90157,21.359-41.1813,21.359-41.1813l12.75393,2.0744s-10.60267,23.43343-7.14529,24.20172c2.53541.61466,9.14287-5.83912,11.21731-18.90037,1.53661-9.75751-12.36977-24.4322-10.67948-36.87878C283.539,86.58829,295.83186,84.74437,305.5894,84.437Z" fill="#1c2651" fill-rule="evenodd"/><path d="M72.86885,100.41786a101.199,101.199,0,0,0,20.97481-3.99519c7.29892,36.9556,13.7527,51.24614,15.51983,56.00965,1.84393,4.76351,3.84154,4.072,3.84154,4.072l3.15006,11.21729c-5.53183,1.383-15.904,4.994-15.904,4.994a110.853,110.853,0,0,1-5.455-12.83075s2.38176-.15367.30732-5.76231c-.7683-2.07445-2.99639-6.30014-2.99639-6.30014-3.99521.69148-8.2209,1.15249-8.2209,1.15249,1.84393,14.36734,5.76231,11.98559,5.76231,11.98559a141.73331,141.73331,0,0,0,5.9928,13.52222c-5.07083,2.07446-13.4454,6.4538-13.4454,6.4538l-8.37455-15.67349s2.30492-.53782.53781-5.14768C62.804,129.53673,72.86885,100.41786,72.86885,100.41786Z" fill="#fff" fill-rule="evenodd"/><path d="M110.82328,97.72878,132.72,97.65193l-.23048,7.37575s-3.07323-.84514-3.2269,4.22572a228.11146,228.11146,0,0,0,1.69027,40.9508c.38417,4.4562,3.4574,3.76473,3.4574,3.76473s.69147,5.83912,1.383,9.75753c-6.99162,1.07563-17.21013,3.38054-17.21013,3.38054l-3.15-10.91s2.91957.23052,1.76711-5.455c-4.84035-24.43222-3.76472-41.64229-3.76472-41.64229.15367-4.60987-3.07323-3.9184-3.07323-3.9184Z" fill="#fff" fill-rule="evenodd"/><path d="M137.48357,97.191c15.21251,1.38292,21.2053-.38418,27.27492-.38418,15.13568,0,16.74914,7.75993,16.74914,14.521,0,24.04806-15.51983,21.81994-15.51983,21.81994l-10.449-1.38292-.461,17.05643c0,4.30253,2.9964,3.76472,2.9964,3.76472s-.30731,4.76351-.461,9.066c-5.83915.15367-17.90159,1.38295-17.90159,1.38295l-1.22928-9.45019s2.76591.69145,2.53541-5.455c-1.30613-27.04445-.61464-38.87638-.61464-38.87638-.07684-5.14769-3.2269-4.22572-3.2269-4.22572Z" fill="#fff" fill-rule="evenodd"/><path d="M191.342,100.11055a110.40985,110.40985,0,0,0,21.2053-3.68792c8.22092,35.64953,2.2281,54.47306,2.2281,54.47306-.76831,4.14887,1.07563,4.76353,1.07563,4.76353s-3.68788,8.37455-5.07084,10.60263c-6.14645-1.53659-17.28694-2.91955-17.28694-2.91955l3.07323-9.83435s2.76591.84514,3.4574-3.45736c.2305-1.30615.84515-6.60746.84515-6.60746l-8.91237-.38416-2.38178,6.30013c-1.15245,3.611,1.69029,3.76469,1.69029,3.76469s-1.84394,7.52941-2.99641,9.60385c-5.68547-.84514-16.21129-1.07562-16.21129-1.07562l1.30613-9.14287s2.22808.461,3.15-2.45856C184.27355,126.84766,191.342,100.11055,191.342,100.11055Z" fill="#fff" fill-rule="evenodd"/><path d="M229.21959,97.72878H249.7334c8.83556,28.27372,4.37936,44.79234,4.37936,44.79234,4.14887-4.22568,6.83794-32.19209,6.83794-32.19209.69146-6.30013-3.07321-4.84034-3.07321-4.84034l.15366-7.83676,18.593.15367-.15366,7.75989s-3.84154-.84512-3.91836,4.76354c-.461,32.96041-27.58228,66.99644-27.58228,66.99644-4.30253-1.92077-12.13928-4.76349-12.13928-4.76349,16.365-34.497,7.4526-53.70473,7.4526-53.70473s2.4586,13.29174-7.60626,34.42022c-2.15125,4.533.61466,5.14765.61466,5.14765s-5.14769,10.91-6.76111,11.83193c-4.76351-1.38294-13.44539-3.61106-13.44539-3.61106l5.14767-10.75628s2.68906.84512,4.37935-3.45739a136.24686,136.24686,0,0,0,9.21968-43.48625c-.15364-4.60988-3.22688-3.91839-3.22688-3.91839Z" fill="#fff" fill-rule="evenodd"/><path d="M305.12844,86.281c9.75747.30731,13.2917,2.68907,16.67223,3.22688a122.28923,122.28923,0,0,1-1.69028,21.82l-9.68065-.53782s0-10.52582-5.455-10.37215c-4.37933.15368-4.37933,5.60864-4.37933,5.60864-.69149,4.60988,13.2917,18.13208,12.7539,28.35059-1.22928,23.81756-31.347,56.54749-45.17652,58.08408-9.14287.9988-10.29534-8.22087-12.83077-14.44419,12.60029-18.28571,20.28337-39.56786,20.28337-39.56786l9.066,1.45978s-6.99161,15.904-6.83794,20.66751c0,1.84392,0,4.072,2.91959,4.2257,1.84394,0,10.98679-6.4538,12.60025-22.1273.84515-8.98919-11.371-21.74311-10.75631-34.80435.30732-9.14288,5.2245-22.05045,22.51146-21.51263Z" fill="#fff" fill-rule="evenodd"/><path d="M54.50629,117.78162l8.605-.30733a89.94465,89.94465,0,0,0,2.07443,35.6495A172.00437,172.00437,0,0,1,54.50629,117.78162Z" fill="#1c2651" fill-rule="evenodd"/><path d="M82.70319,107.2558c0,8.22092,6.45379,26.89079,6.45379,26.89079l-8.29773.53783S80.78242,118.47311,82.70319,107.2558Z" fill="#1c2651" fill-rule="evenodd"/><path d="M156.384,107.0253c3.611.07685,9.066-.7683,8.83554,8.52822-.30733,8.75871-5.916,8.37455-9.4502,8.60508Z" fill="#1c2651" fill-rule="evenodd"/><path d="M194.56887,131.76483s5.455-17.05645,6.2233-25.50787c1.45978,3.22692,1.9976,25.73836,1.9976,25.73836l-8.2209-.30734Z" fill="#1c2651" fill-rule="evenodd"/><path d="M277.623,116.47551c2.76589,7.83672,7.06842,17.36377,7.06842,17.36377l-10.21851-1.383A70.946,70.946,0,0,0,277.623,116.47551Z" fill="#1c2651" fill-rule="evenodd"/><path d="M82.70319,132.61l4.072-.15368s-3.15007-8.14407-3.68788-12.21609A95.07363,95.07363,0,0,0,82.70319,132.61Z" fill="#f79239" fill-rule="evenodd"/><path d="M158.2279,108.63878c3.45739.461,4.84033.69147,4.994,6.45378.15366,7.14527-3.07322,6.60743-5.60866,6.99161Z" fill="#f79239" fill-rule="evenodd"/><polygon points="196.874 129.921 200.101 118.704 201.099 130.228 196.874 129.921" fill="#f79239" fill-rule="evenodd"/><path d="M15.70672,86.43466H62.11253a250.98762,250.98762,0,0,0,.76831,25.20048l-7.83674.30733C53.89163,98.42026,52.20136,95.808,46.66954,96.65315c-.30732,27.65908,13.06123,59.62071,14.75152,63.0781,2.9964,6.14647,5.2245,4.84036,5.2245,4.84036s4.072,9.21967,9.29652,18.43939C70.2566,187.15985,63.265,193.15264,63.265,193.15264c-4.60984-7.14529-8.83554-14.521-12.75391-22.05045,0,0,2.91957-.76827-1.22929-8.68188C30.3814,126.1562,31.07288,96.80678,31.07288,96.80678c-8.91237-.84512-5.455,16.826-5.455,16.826l-7.83674.38416c-3.07323-12.75392-1.9976-27.50545-1.9976-27.50545Z" fill="#fff" fill-rule="evenodd"/><path d="M35.52907,161.03738c1.15246,2.53541,3.45739,7.22209,3.45739,7.22209l-2.68908,1.30611C46.439,189.92576,49.97326,183.77931,56.8112,194.61245c1.383,2.15125,5.455,3.30374,10.75632,2.22808,3.53422-.76832,10.75632-10.67948,31.96162-18.28574a218.52923,218.52923,0,0,1,61.0805-12.29294c54.08889-2.76587,95.88485,23.58708,105.02774,29.73357,52.01448,35.11167,61.46464,70.838,61.46464,70.838s-54.473-37.263-123.77444-41.25819c-10.29532-.61462-32.57627-1.30611-49.09489,5.30134-11.90878,4.76352-38.95323,21.05165-50.78518,25.892a113.95678,113.95678,0,0,1-33.4214,7.83674c-20.82116-7.9136-39.26055-32.34575-40.874-34.497C7.87,202.44918,10.9432,185.16225,10.9432,185.16225,10.9432,182.70368,23.54346,166.87652,35.52907,161.03738Z" fill="#1c2651" fill-rule="evenodd"/><path d="M17.24333,182.089A80.08337,80.08337,0,0,1,28.53746,170.5644a90.364,90.364,0,0,0-2.9964,11.06362,51.02768,51.02768,0,0,0-8.37456.461Z" fill="#ceab7b" fill-rule="evenodd"/><path d="M30.15091,181.32071a47.98641,47.98641,0,0,1,2.38176-10.449,81.39364,81.39364,0,0,0,6.30012,10.06482S32.91682,181.85854,30.15091,181.32071Z" fill="#ceab7b" fill-rule="evenodd"/><path d="M16.014,185.23908h9.29653a77.96569,77.96569,0,0,0,1.53662,27.65906C17.70432,201.604,16.014,185.23908,16.014,185.23908Z" fill="#ceab7b" fill-rule="evenodd"/><path d="M29.53627,185.00859c3.61105.5378,11.60145-.76831,11.60145-.76831a57.16148,57.16148,0,0,0-1.15246,12.52342H28.69113s-.61465-8.06722.922-11.75511Z" fill="#ceab7b" fill-rule="evenodd"/><path d="M28.69113,200.45159l11.67828-.53788s3.53422,10.91,7.06844,15.75038c-2.76591,3.91833-12.06244,8.605-12.06244,8.605C29.3826,213.436,28.69113,200.45159,28.69113,200.45159Z" fill="#ceab7b" fill-rule="evenodd"/><path d="M45.59391,186.3147a49.66335,49.66335,0,0,0,5.53182,8.22092l-7.2221,1.8439s.23049-7.22207,1.69028-9.988Z" fill="#ceab7b" fill-rule="evenodd"/><polygon points="44.672 199.683 52.816 197.301 57.503 201.22 47.438 206.982 44.672 199.683" fill="#ceab7b" fill-rule="evenodd"/><path d="M64.87844,200.98942c3.76471.53783,13.59905-4.22572,13.59905-4.22572l-5.916,9.60385A28.25608,28.25608,0,0,1,64.87844,200.98942Z" fill="#ceab7b" fill-rule="evenodd"/><path d="M48.97447,210.36275l12.06243-7.52943c6.30013,4.30251,16.13447,10.06482,16.13447,10.06482s-4.84034,14.67472-9.45018,19.20771a48.59318,48.59318,0,0,1-20.12968-11.98559l4.994-3.68789C50.35741,214.58843,48.97447,210.36275,48.97447,210.36275Z" fill="#ceab7b" fill-rule="evenodd"/><path d="M39.06329,226.11305l5.83913-3.99519c7.52943,8.9124,19.976,12.52342,19.976,12.52342s-5.68548,3.53423-10.37216,1.30611C50.66473,234.10345,39.06329,226.11305,39.06329,226.11305Z" fill="#ceab7b" fill-rule="evenodd"/><path d="M75.32744,207.6737l5.53181-8.9124s12.06245.69145,19.20771-.38414c-1.15246,7.06842-11.44779,22.28093-10.06483,19.89915a4.28335,4.28335,0,0,1-4.4562,2.22813l-7.06843-1.30611,3.15007-7.60626Z" fill="#ceab7b" fill-rule="evenodd"/><path d="M80.091,195.68807l4.91717-5.83917c5.916-4.84035,20.05285-9.066,20.05285-9.066s-8.06724,10.06485-10.52583,14.90519A90.66284,90.66284,0,0,1,80.091,195.68807Z" fill="#ceab7b" fill-rule="evenodd"/><path d="M98.684,196.07221s5.83913-11.21731,9.14286-13.44539a40.71372,40.71372,0,0,1,13.06124,3.53423s-9.68069,14.13688-11.90879,17.82473a46.25314,46.25314,0,0,1-7.99039,0l2.76591-8.52823Z" fill="#ceab7b" fill-rule="evenodd"/><polygon points="100.067 207.136 107.135 207.136 95.918 215.126 100.067 207.136" fill="#ceab7b" fill-rule="evenodd"/><polygon points="114.204 200.836 117.508 195.458 121.81 195.765 114.204 200.836" fill="#ceab7b" fill-rule="evenodd"/><path d="M108.97934,179.63042c8.4514-4.84034,20.74432-6.3001,20.74432-6.3001l-10.06484,8.22087Z" fill="#ceab7b" fill-rule="evenodd"/><path d="M122.19423,182.78051s8.14407-7.06846,11.29413-10.06486c15.59666-2.38177,20.97481,1.92078,20.97481,1.92078s-7.45258,2.84274-11.29412,8.22087c-8.22089,1.9976-19.36138,10.67948-19.36138,10.67948l-4.60985-.38414,6.6843-8.91236Z" fill="#ceab7b" fill-rule="evenodd"/><path d="M144.47516,170.33392c10.21851-1.45981,18.36256-1.844,18.36256-1.844a57.88542,57.88542,0,0,0-9.45018,2.76591C150.23747,170.25705,144.47516,170.33392,144.47516,170.33392Z" fill="#ceab7b" fill-rule="evenodd"/><path d="M146.70328,182.62682s3.68787-3.76472,7.22208-4.84034c3.76471,2.76591,8.37457,6.83794,8.37457,6.83794-5.14767-.922-10.37217-1.61342-15.59665-2.07443Z" fill="#ceab7b" fill-rule="evenodd"/><path d="M156.7681,172.40834a51.34409,51.34409,0,0,1,13.52222-3.38057c11.90878,5.76231,16.365,7.99043,16.365,7.99043s-8.91237,1.53659-20.05285,8.22088c-3.38056-4.072-10.2185-8.75871-10.2185-8.75871l3.68787-2.22812Z" fill="#ceab7b" fill-rule="evenodd"/><path d="M173.6709,168.64363s8.22089,2.9964,11.29412,4.8403c2.99639-1.30611,7.45258-3.30371,7.45258-3.30371s-11.37095-1.30611-18.82353-1.53659Z" fill="#ceab7b" fill-rule="evenodd"/><path d="M187.96141,174.79008l8.52821-4.30255s18.05525,5.9928,28.81156,21.97362c-3.91837.922-9.14285,4.072-9.14285,4.072l-21.58948-5.9928c-2.53541-3.45736-9.68068-10.52582-9.68068-10.52582l6.91479-2.07443-3.91837-3.15005Z" fill="#ceab7b" fill-rule="evenodd"/><path d="M189.03706,188.927c-3.68788-.922-17.44061-3.15009-17.44061-3.15009Z" fill="#1c2651" fill-rule="evenodd"/><path d="M204.71054,171.79368c18.2089,4.68665,37.72392,14.75151,37.72392,14.75151s-12.06246-.61466-17.13328,1.22928C219.00105,179.24624,204.71054,171.79368,204.71054,171.79368Z" fill="#ceab7b" fill-rule="evenodd"/><path d="M227.5293,190.23311s9.29652-1.69029,16.36494-.76835a36.58425,36.58425,0,0,1,8.52823,13.21491L242.204,206.2139l-9.066-3.68789c-.922-3.53423-6.53065-7.4526-6.53065-7.4526l2.61224-1.45976Z" fill="#ceab7b" fill-rule="evenodd"/><polygon points="223.457 196.917 227.76 200.067 220.845 197.839 223.457 196.917" fill="#ceab7b" fill-rule="evenodd"/><path d="M249.50292,191.69288l5.37813,7.60625,11.29414,1.92077a81.08474,81.08474,0,0,0-16.67227-9.4502Z" fill="#ceab7b" fill-rule="evenodd"/><polygon points="270.478 204.754 280.158 211.823 273.474 210.286 270.478 204.754" fill="#ceab7b" fill-rule="evenodd"/><polygon points="288.149 217.354 290.915 222.579 297.829 226.267 288.149 217.354" fill="#ceab7b" fill-rule="evenodd"/><polygon points="255.957 202.296 267.097 204.139 272.706 215.28 266.175 216.432 252.807 210.286 250.425 206.752 257.109 205.292 255.957 202.296" fill="#ceab7b" fill-rule="evenodd"/><path d="M274.54976,213.05188l9.83434,2.07438c5.07082,7.4526,4.84034,12.13929,4.84034,12.13929l-3.15005,1.07562-15.21255-9.60385,5.916-.61462-2.22807-4.994Z" fill="#ceab7b" fill-rule="evenodd"/><polygon points="292.067 225.729 301.133 230.953 304.514 240.788 288.917 229.801 292.221 228.495 292.067 225.729" fill="#ceab7b" fill-rule="evenodd"/><path d="M279.3901,229.26314a12.72606,12.72606,0,0,1,3.91837,6.53059,226.41412,226.41412,0,0,1,22.28093,11.52463C296.677,237.25354,279.3901,229.26314,279.3901,229.26314Z" fill="#e7d2ad" fill-rule="evenodd"/><path d="M247.42849,223.50083l2.07439-8.52822s27.12131,9.21967,28.58108,18.90035C271.63018,229.80094,247.42849,223.50083,247.42849,223.50083Z" fill="#e7d2ad" fill-rule="evenodd"/><path d="M207.63011,200.45159s25.892,8.144,27.6591,9.066c4.45616,2.45864,6.2233,12.3698,6.2233,12.3698l-24.89321-4.533C215.62052,211.36155,207.63011,200.45159,207.63011,200.45159Z" fill="#e7d2ad" fill-rule="evenodd"/><path d="M144.091,191.69288c22.66509-1.45981,38.6459,3.91833,40.48984,4.8403,14.36736,7.22211,24.89319,20.05285,24.89319,20.05285l-26.19932-2.61222S172.13426,202.67967,144.091,191.69288Z" fill="#e7d2ad" fill-rule="evenodd"/><path d="M132.18225,194.84293a5.50091,5.50091,0,0,1,5.60865-.922c16.51862,7.06846,29.34937,20.28337,29.34937,20.28337s-11.90876,2.76588-20.82117,8.52819c-14.521-.38414-31.03964-10.60262-31.03964-10.60262C121.19544,204.37,132.18225,194.84293,132.18225,194.84293Z" fill="#e7d2ad" fill-rule="evenodd"/><path d="M110.28547,215.89458c9.68066,12.44659,27.12127,15.36616,27.12127,15.36616s-11.06365,7.06842-13.36857,8.37453c-9.68068,5.37818-33.11408-8.52818-33.11408-8.52818S103.60118,223.65449,110.28547,215.89458Z" fill="#e7d2ad" fill-rule="evenodd"/><path d="M86.31424,233.71935c7.06843,9.45015,20.437,15.21247,20.437,15.21247s-11.67829,5.99279-23.43341,5.99279c-4.60984,0-22.81875-12.83073-22.81875-12.83073S75.32743,240.40363,86.31424,233.71935Z" fill="#e7d2ad" fill-rule="evenodd"/><path d="M73.63715,230.18512l3.53421-7.22212a24.32419,24.32419,0,0,1,6.6843,1.07563C80.70558,226.65089,73.63715,230.18512,73.63715,230.18512Z" fill="#ceab7b" fill-rule="evenodd"/><polygon points="337.474 132.764 337.474 134.07 335.246 134.07 335.246 140.447 333.709 140.447 333.709 134.07 331.405 134.07 331.405 132.764 337.474 132.764" fill="#fff" fill-rule="evenodd"/><polygon points="341.239 140.447 339.856 134.223 339.856 140.447 338.319 140.447 338.319 132.764 340.624 132.764 342.007 138.68 343.467 132.764 345.772 132.764 345.772 140.447 344.158 140.447 344.158 134.223 342.852 140.447 341.239 140.447" fill="#fff" fill-rule="evenodd"/><path d="M289.14761,200.52841c2.68909,1.69029,8.75871,2.84275,8.75871,2.84275s-2.15127,8.83553-5.14767,12.83073c-4.76349-4.60982-10.5258-9.527-10.5258-9.527Z" fill="#ceab7b" fill-rule="evenodd"/><path d="M296.75387,189.69528a23.83363,23.83363,0,0,1,1.8439,9.83433l-7.4526-1.76711A29.25433,29.25433,0,0,0,296.75387,189.69528Z" fill="#ceab7b" fill-rule="evenodd"/><path d="M301.90154,203.37116a50.78972,50.78972,0,0,0,11.83191,0c.76836,3.3037-2.45856,18.28573-6.91472,24.2017-5.916-1.84395-11.832-8.83554-11.832-8.83554A51.32425,51.32425,0,0,0,301.90154,203.37116Z" fill="#ceab7b" fill-rule="evenodd"/><path d="M300.36493,187.85134c7.91356.38413,11.06361-2.1513,11.06361-2.1513l2.15126,3.68789s.15365,7.52943-.5378,10.21851c-3.30374,1.45977-10.21851.61462-10.21851.61462a35.39908,35.39908,0,0,0-2.45856-12.29294Z" fill="#ceab7b" fill-rule="evenodd"/><path d="M109.9013,24.81632s26.353.69147,38.56906,0c13.98322,12.52343,39.1069,7.37575,46.17532-.53783,6.377.15367,35.18851-.53779,35.18851-.53779,19.36138,10.91,24.12489,22.58826,24.12489,22.58826l-2.38175.53781s4.68668,6.30013,1.844,16.826c10.75629,13.52222,11.7551,26.58348,11.7551,26.58348H235.21234c-3.611,3.45738-13.82951,7.60623-15.75028,7.37573,4.84032,42.48745-21.74312,56.16333-21.74312,56.16333s11.60143-17.59425,2.91955-51.323c-16.59544.69147-32.72992-13.13808-32.72992-13.13808-3.611,7.60625-27.1981,13.13808-27.1981,13.13808s-7.22211,20.59064,3.611,49.78636C117.58438,137.604,122.8857,96.03849,122.8857,96.03849s-19.82235-4.91717-30.57865-22.51142l2.84274-.53783c-6.76112-15.443-3.38057-25.6615-3.38057-25.6615l-3.07323.30735C96.6864,35.03484,109.9013,24.81632,109.9013,24.81632Z" fill="#1c2651" fill-rule="evenodd"/><path d="M111.3611,30.34815h27.4286s-2.91959,2.22808-3.76472,4.4562a23.24256,23.24256,0,0,1,7.91357-3.07326c5.37815,7.22211,20.437,11.60147,20.437,11.60147l-7.14527,1.84392s4.68666,5.68551,14.36736,8.98921c11.06364-3.611,17.13326-9.68068,17.13326-9.68068a17.74739,17.74739,0,0,1-8.45138-1.69026c11.52463-.23051,17.05644-10.37217,17.05644-10.37217s7.45259.15365,12.98442,4.30254c-.53781-2.91959-3.99521-6.14649-3.99521-6.14649s15.75032-1.92077,21.20532-1.383c3.84154.30733,14.44419,7.37577,17.82473,13.13808l-2.61224.461s12.83073,14.521-2.76591,22.66508a17.37335,17.37335,0,0,0-9.14287-11.44777s10.06482,15.7503-4.4562,19.7455c-1.07563-9.37337-6.91477-12.60025-6.91477-12.60025s5.83914,13.599-6.14645,16.44179a21.3873,21.3873,0,0,0-6.2233-14.21369s4.45619,11.06364,1.15246,15.904c-10.98681,3.61105-14.44418,14.13684-14.44418,14.13684A26.34088,26.34088,0,0,1,171.366,80.365c-8.60505,12.06246-23.81754,11.52463-23.81754,11.52463a18.92512,18.92512,0,0,0-11.4478-13.13807s-1.53662-8.4514,6.06964-17.44061c-8.60505,4.84036-9.83435,15.75034-9.83435,15.75034L125.037,73.75756a17.605,17.605,0,0,1,3.84154-15.443c-6.91477,3.07322-8.98921,13.29173-8.98921,13.29173s-15.51983-3.76471-2.07443-20.36016c-9.14286,5.68547-9.68067,12.06242-9.68067,12.06242-6.14647-2.76591-17.59426-12.90756-1.15248-23.12607l-4.7635-.30731C104.29265,35.18849,111.3611,30.34815,111.3611,30.34815Z" fill="#ceab7b" fill-rule="evenodd"/><path d="M96.6864,60.92682c2.07444,2.91957,21.74313,11.2173,27.27495,29.81036-17.28694-6.6843-21.20532-20.2065-21.20532-20.2065a17.85541,17.85541,0,0,0,.15367,6.06962,24.15579,24.15579,0,0,1-6.14647-15.67348Z" fill="#ceab7b" fill-rule="evenodd"/><path d="M157.9974,34.80435c11.371,2.61224,26.4298-.30735,26.4298-.30735C170.98181,44.10086,157.9974,34.80435,157.9974,34.80435Z" fill="#ceab7b" fill-rule="evenodd"/><path d="M219.3084,93.34942c-1.2293-12.44659,21.43577-20.36018,28.65789-31.4238-1.22928,13.4454-8.83554,18.51622-8.83554,18.51622a16.007,16.007,0,0,0,.53779-6.60745c-2.61223,3.4574-3.76467,13.52222-20.36014,19.59184Z" fill="#ceab7b" fill-rule="evenodd"/><path d="M126.18945,78.67473s14.67467,5.68548,16.7491,12.75392a46.80807,46.80807,0,0,0-13.29173-4.072c-.461-3.45739-3.45737-8.60506-3.45737-8.60506Z" fill="#f79239" fill-rule="evenodd"/><path d="M199.63971,89.892a24.30053,24.30053,0,0,1,16.51862-9.14287A14.85546,14.85546,0,0,0,212.24,86.281C206.1703,86.0505,199.63971,89.892,199.63971,89.892Z" fill="#f79239" fill-rule="evenodd"/><path d="M195.10668,64.38419c3.07323.30733,3.9952,5.14765,3.45739,6.14647-.461.9988-8.29773,2.91957-10.52583,8.29772-.53781-4.994,5.53181-14.67468,7.06844-14.521Z" fill="#1c2651" fill-rule="evenodd"/><path d="M147.47158,64.38419c-3.45739.38416-3.84154,5.455-3.45739,6.14647.53782.9988,8.29773,2.91957,10.52581,8.29772.53783-4.994-5.53181-14.67468-7.06842-14.521Z" fill="#1c2651" fill-rule="evenodd"/><path d="M165.75731,63.15491s3.30371-2.91957,5.14765-2.91957,4.994,2.91957,4.994,2.91957a19.88463,19.88463,0,0,0-4.84034,3.611A24.15776,24.15776,0,0,0,165.75731,63.15491Z" fill="#1c2651" fill-rule="evenodd"/><path d="M109.133,44.485s8.45138-6.76113,19.13087-5.37815c7.14527,15.443,21.12848,11.21727,21.12848,11.21727a43.36294,43.36294,0,0,1,13.44539,12.44662c-10.91-7.60626-15.51982-7.60626-15.51982-7.60626-21.12847,10.37217-23.89439-4.60985-27.35177-11.21731C117.43074,42.10326,109.133,44.485,109.133,44.485Z" fill="#1c2651" fill-rule="evenodd"/><path d="M232.7538,44.485s-8.45142-6.76113-19.1309-5.37815c-7.06842,15.443-21.05163,11.21727-21.05163,11.21727a43.62735,43.62735,0,0,0-13.52222,12.44662c10.91-7.60626,15.59665-7.60626,15.59665-7.60626,21.05165,10.37217,23.81756-4.60985,27.27494-11.21731C224.45606,42.02641,232.7538,44.485,232.7538,44.485Z" fill="#1c2651" fill-rule="evenodd"/><path d="M124.49917,41.9496a18.43734,18.43734,0,0,0,4.45619,4.994s0,5.99279,4.37936,8.75871a19.003,19.003,0,0,1-.23051-5.53181s4.84035,3.68786,8.4514,4.533C124.49917,65.383,122.42473,43.10206,124.49917,41.9496Z" fill="#f79239" fill-rule="evenodd"/><path d="M217.38763,41.9496a17.24816,17.24816,0,0,1-4.4562,4.994s0,5.99279-4.30252,8.75871a22.13569,22.13569,0,0,0,.15367-5.53181s-4.84034,3.68786-8.4514,4.533C217.38763,65.383,219.46206,43.10206,217.38763,41.9496Z" fill="#f79239" fill-rule="evenodd"/><path d="M201.02265,94.57872a5.75852,5.75852,0,0,1,2.38176-1.92077c1.15247-.53785,1.92077.84511,1.92077.84511s5.76231,10.60265,5.14767,28.8884c3.91837-8.98921-.76832-28.58107-.84515-30.04086-.15365-1.53661.69149-1.76709.69149-1.76709l3.07323-.30733c3.53423,10.06485,5.2245,38.56906-9.37337,55.08768,7.14529-17.28693,1.15247-45.02283-3.07323-50.78514Z" fill="#fff" fill-rule="evenodd"/><path d="M128.80169,90.73718a12.18666,12.18666,0,0,1,3.30371,1.22928,2.36677,2.36677,0,0,1,.69148,1.5366,53.88048,53.88048,0,0,0-.53781,22.97242,59.07705,59.07705,0,0,1,5.14767-22.58825l1.92077.53782c-3.30373,5.37813-4.2257,15.82713-4.37935,28.04322,0,7.83676.23049,15.59669,3.07322,21.51263-16.51862-22.05042-10.29533-52.245-9.29652-53.16691Z" fill="#fff" fill-rule="evenodd"/><path d="M247.42849,79.36621c4.37934,2.45859,10.75629,10.29533,10.75629,10.29533H235.51969S244.89306,83.20776,247.42849,79.36621Z" fill="#ceab7b" fill-rule="evenodd"/><path d="M247.96629,76.06249a27.92962,27.92962,0,0,0,3.99519-7.06844,25.66193,25.66193,0,0,1,4.60986,13.82955C254.03591,79.904,247.96629,76.06249,247.96629,76.06249Z" fill="#ceab7b" fill-rule="evenodd"/><path d="M169.67568,182.24268a52.03757,52.03757,0,1,1-52.01446,52.01442A52.07616,52.07616,0,0,1,169.67568,182.24268Z" fill="#1c2651" fill-rule="evenodd"/><path d="M126.88092,210.97741c-6.14647,11.4478-6.06965,22.51141-4.68669,33.49824q20.3986-22.58828,45.25335-27.1981c-7.14527-16.2113-21.05165-17.44059-40.64349-6.30014Z" fill="#f79239" fill-rule="evenodd"/><path d="M168.36955,221.34958q-28.12008,6.68424-42.79476,31.27012c1.69028,6.4538,5.68548,11.29414,10.37215,15.82713C157.45959,255.76979,173.20989,241.47922,168.36955,221.34958Z" fill="#f79239" fill-rule="evenodd"/><path d="M170.59767,220.65809c5.07083,24.97-6.14649,41.48864-28.42742,52.09129,3.53421,3.53419,9.75751,6.14645,17.82475,8.22091,21.66629-12.21611,33.80555-30.96281,27.19812-62.54032A92.68436,92.68436,0,0,0,170.59767,220.65809Z" fill="#f79239" fill-rule="evenodd"/><path d="M190.34317,218.73732c8.37455,25.58464.84514,45.79114-17.51742,62.38663,16.13448-1.84394,30.34815-8.75871,39.491-29.964-9.14289-7.91357-13.29174-18.51622-13.98321-30.886A40.773,40.773,0,0,0,190.34317,218.73732Z" fill="#f79239" fill-rule="evenodd"/><path d="M200.56168,221.34958c1.69027,8.8355,4.91717,16.90276,13.59905,22.7419a23.02847,23.02847,0,0,0,1.30611-14.521A76.35292,76.35292,0,0,0,200.56168,221.34958Z" fill="#f79239" fill-rule="evenodd"/><path d="M171.90378,187.083c8.60506,8.68188,14.82833,18.05525,17.44059,28.73473a27.40609,27.40609,0,0,1,8.98921,1.30615,69.442,69.442,0,0,1,1.30613-18.28577c-7.68308-7.299-17.13328-10.83314-27.81276-11.67828Z" fill="#f79239" fill-rule="evenodd"/><path d="M158.15106,188.23547c-9.83436,1.45977-15.82715,6.37694-21.58946,11.29411,17.51741-2.45857,29.11888,2.61225,33.26774,17.51745a90.99283,90.99283,0,0,1,16.365-1.69028c-5.07084-13.98323-13.52224-24.12488-28.04326-27.19814Z" fill="#f79239" fill-rule="evenodd"/><path d="M204.86419,204.2163c-3.45738.38414-4.2257,6.83794-4.68668,14.21367,6.14647,1.15249,10.52582,4.4562,14.67469,8.22092-1.2293-8.83554-4.30252-16.4418-9.988-22.35776Z" fill="#f79239" fill-rule="evenodd"/><path d="M128.95536,18.28569a16.694,16.694,0,0,1-4.76352.76832,14.32762,14.32762,0,0,1-8.45139-2.4586,7.818,7.818,0,0,1-3.76471-6.83794,7.90725,7.90725,0,0,1,3.91837-6.76111A15.20642,15.20642,0,0,1,124.576.53779a18.03166,18.03166,0,0,1,4.14887.5378l.76831,4.84034a9.32031,9.32031,0,0,0-4.533-1.22928c-3.91836,0-6.83794,2.07442-6.83794,5.14769S120.965,14.982,125.037,14.982a9.25229,9.25229,0,0,0,4.68668-1.383l-.84514,4.68668Z" fill="#1c2651" fill-rule="evenodd"/><path d="M140.17265,12.06242l3.15006-4.76352,3.15007,4.84034Zm-9.91117,5.99279,5.9928.9988,2.38174-3.68785h9.37337l2.38176,3.68785,6.30012-.9988L143.47638.23048Z" fill="#1c2651" fill-rule="evenodd"/><polygon points="157.997 1.229 164.067 0.768 164.067 18.439 157.997 18.9 157.997 1.229" fill="#1c2651" fill-rule="evenodd"/><path d="M173.90138,4.60982h.461c2.84276,0,4.30254.922,4.30254,2.53539,0,1.53663-1.45978,2.4586-4.2257,2.4586h-.53781Zm-5.99279,14.36736,5.99279-.461V10.8331l7.29892,8.29774,5.9928-1.53659-6.45378-6.76115c2.61224-.99876,3.84154-2.45857,3.84154-4.533,0-3.22692-3.07323-5.30135-8.91238-5.30135h-7.75989Z" fill="#1c2651" fill-rule="evenodd"/><polygon points="187.885 0 204.019 10.449 204.019 1.152 209.858 0.691 209.858 19.592 193.801 9.066 193.801 18.593 187.885 18.977 187.885 0" fill="#1c2651" fill-rule="evenodd"/><path d="M215.69735,13.59905a9.27411,9.27411,0,0,0,4.994,1.45976c1.92077,0,3.07325-.61466,3.07325-1.53659,0-1.30615-1.99762-1.4598-4.84036-2.15129-4.14886-.922-6.06963-2.38174-6.06963-4.994,0-3.30374,3.45739-5.60865,8.91237-5.60865a14.90649,14.90649,0,0,1,7.83674,1.9976L226.3,5.68544a7.4278,7.4278,0,0,0-4.22568-1.30611c-1.69029,0-2.76592.61463-2.76592,1.45981,0,1.30611,2.07445,1.3829,5.14768,2.15125,3.76469.84511,5.76231,2.68905,5.76231,5.14765,0,3.45737-3.76474,5.83914-9.527,5.83914a15.42762,15.42762,0,0,1-8.60505-2.30491l3.53423-3.15005Z" fill="#1c2651" fill-rule="evenodd"/></svg>