<?xml version="1.0" encoding="UTF-8" standalone="no"?>
<svg xmlns:rdf="http://www.w3.org/1999/02/22-rdf-syntax-ns#" xmlns="http://www.w3.org/2000/svg" height="246.35145" width="227.28966" version="1.1" xmlns:cc="http://creativecommons.org/ns#" xmlns:dc="http://purl.org/dc/elements/1.1/" viewBox="0 0 227.28966 246.35145"><g id="ISLA"><path d="M215.47468,124.23949c-2.86147-2.87147-1.71688-1.66092-2.239-6.28392-.26487-2.40025-.95492-4.80971-.95492-7.55712,0-.61156,4.91036-7.10974,4.91036-8.18828,0-.44157-8.29311-14.2717-9.30155-15.92112-2.00257-3.28481-3.35436-4.21821-6.48312-6.2914-2.57114-1.70391-4.80265-3.8953-7.474-5.30765,0-4.69631-2.67136-4.87425-1.29078-11.44677.80789-3.85522,1.63752-7.66992,2.417-11.67049,1.82424-9.39869-8.332-16.3783-8.332-19.14159l-.15036-.67316,1.14793-8.41995,6.54116-1.0625a58.00169,58.00169,0,0,0,2.61375-5.23934V8.84541c-2.65674-.22119-5.6928-1.31064-8.18913-1.31064-.38305,0-6.09006,6.13266-7.16321,6.85514l4.87447,8.5413c-7.16654,8.24636-2.29918,9.246-16.05287,12.44827a23.94107,23.94107,0,0,1-4.45553-4.0649c-1.29828-1.39833-4.04817-2.06524-6.047-2.465-5.03192-1.00839-9.12985-3.71714-12.83471-4.529-1.92361-.42484-4.95968-2.36727-6.10426-2.3002-1.18719.07122-4.8494,1.59467-6.72626,1.98627-5.59673,1.1711-7.21667,1.80521-14.09705,2.7144l-5.01357.14933-.0823.04556v-.05266l-11.48254.34486L90.74559,15.72557c-1.01549.53431-14.38989,6.55-14.41872,6.55-.15331,0-5.58167-5.23934-5.89286-5.23934-1.25529,0-5.2141,3.27394-7.20957,3.27394l-2.8.11258L64.53314,26.536A145.16811,145.16811,0,0,0,60.063,40.74082c-.48956,2.49992.54012,13.90366.54012,17.89987C57.5496,63.19913,51.731,71.981,47.37162,74.88844c-3.10412,2.07046-5.71787,3.91955-8.78649,5.96246-4.49809,3.00429-4.18732,3.14215-4.1798,10.56517L9.827,101.88017c-.086,3.81595-2.62123,11.51928-3.247,15.43087-1.27321,8.00156,1.93785,9.67707,1.93785,15.69364l.08606,2.29918L7.20581,152.33046c-.09274,1.028,12.96714,22.06229,14.54739,24.43748,2.6676,4.00271,4.85984,7.80569,7.5241,11.80378.03217.0497,9.55136,9.35668,9.97,9.68336,3.61875,2.82715,6.78721,5.76338,10.63533,8.69585,4.30179,3.27706,7.34492,4.84144,11.91153,7.74884,4.03359,2.56943,7.83867,4.9033,12.02266,7.30231,2.62123,1.50548,6.92674,8.21963,8.79692,11.01423l6.49065-4.02649c3.33306.77616,13.02394,5.24084,15.3987,5.24084h.32834a11.89048,11.89048,0,0,0,3.62632-1.343l6.16188,4.38948.25734.45577,4.50562,1.69891.18967.03965c2.5995.13911,4.44877.23227,6.55832.40021,3.39405.26649,3.29045-.67966,5.23537-1.70935l.65082-9.82875c2.80757-1.48585,8.97239-4.13214,11.211-5.829,3.05027-2.30837,5.9539-5.8198,9.10106-7.92974l6.84449.02507,3.64048-3.30089,5.24208-4.25914c2.49633,0,17.16571-4.36989,20.8985-5.30684,5.69323-1.42528,4.70948-.80118,7.492-5.6105,1.899-3.28459,1.74861-6.74632,1.74861-11.68679v-2.94834c3.2825-.76525,8.34663-5.43213,9.18332-8.43308l6.21163-.74066v-2.94829c0-5.05746,1.41946-4.71158-1.25529-8.24346-1.23689-1.63081-3.98346-4.38238-3.41827-6.56837.87224-3.39778,2.006-3.08449,2.38481-8.116a98.62345,98.62345,0,0,0,.52216-9.9904l4.05866-3.44248.56143-.1199,1.73108-1.52011c1.627.37762,3.77249,2.29417,4.91707,2.29417a1.72084,1.72084,0,0,0,.97956-.98169c0-.6412-7.56671-7.40172-8.59639-8.43766" fill="#ffb819" fill-rule="evenodd"/><path d="M215.88194,121.538c-.05681-2.56152-1.47707-9.57642-.56519-11.37389,1.34507-2.638,3.37609-5.21658,4.8281-7.954-2.44581-4.62761-5.93966-9.29654-8.08929-13.86256-2.99261-6.3509-5.46053-7.649-10.71724-11.55666-2.46754-1.82565-4.67732-2.44953-5.4998-5.64139-1.26949-4.91438-1.70977-3.24973-.0681-8.7059,1.25529-4.16576,3.75829-13.55047,5.34273-16.89854l-1.93867-5.2517c0-4.91664-7.86331-9.6988-7.86331-12.77495v-2.95h3.60832c1.05437,0,7.53082-10.7607,7.53082-12.44853l-.0142-9.45066L192.627,0c-1.00089.66962-13.76084,14.06888-13.76084,14.08749,0,1.12136,4.585,7.39377,4.585,8.51662,0,.00252-3.04355,4.50583-3.34769,4.84294-.72183.81936-4.9743,2.03662-6.47936,2.03662-.58316,0-3.92665-2.97421-4.64558-3.54505-2.18471-1.73711-2.68557-1.65126-5.76757-2.42091-1.9888-.49628-11.01509-4.19006-12.52347-4.19006h-8.1858c-4.94885,0-14.46513,5.24084-20.31163,5.24084H104.503c-.69382,0-12.67387-10.65877-13.432-11.79142-1.22646.64664-13.67144,6.55058-14.08623,6.55058-.41436,0-6.1076-5.24015-6.2254-5.24015-1.67008,0-5.593,2.23253-7.8462,2.30854-3.2896.1107-6.84821-.01608-10.1775-.01253l6.555,11.135c-.08564,4.14489-2.08115,10.34355-1.98422,14.0858.11738,4.88324,1.00462,9.79235,1.00462,15.39785v.65416c0,.93447-9.45862,13.092-10.67459,13.89489-2.564,1.69515-12.99888,9.51731-14.88326,10.019l-.65459,8.17767L4.58458,100.24226C3.70815,104.00888,0,118.215,0,121.20967c0,3.50057,2.62123,7.53625,2.62123,11.795,1.45205,2.17132,1.96335,16.35863,1.96335,20.3091,4.49894,6.71625,9.02586,14.67854,13.303,21.754,2.19891,3.63967,4.88114,6.923,6.78725,10.57313,1.899,3.64215,5.35693,6.715,8.1674,9.52672A158.67871,158.67871,0,0,0,51.706,211.35295c2.16007,1.627,20.32959,12.988,21.89273,13.42287l6.98774,15.67858c.8973-.47369,7.20876-4.25876,7.53792-4.25876.23227,0,8.39676,2.7925,9.30155,3.143,1.35512.533,3.46506,1.42694,4.52358,1.70182,3.0862.81248,3.69357-.58607,5.17484-.58607,1.44448,0,7.86331,4.8636,7.86331,4.8636l14.0858,1.03345c1.566,0,2.41822-1.18385,3.90116-1.31248l1.00881-10.48168c7.6745-4.05861,11.62245-5.81266,17.93015-11.55016,4.79217-4.35941,11.28282-8.87965,16.55039-12.93788,1.53431-1.18762,19.27813-5.39705,22.97213-6.509,6.24379-1.87685,4.48808-2.20768,7.54583-7.19828,1.78412-2.9145,1.83425-8.93312,1.83425-13.23573,1.43781-.76363,4.43084-2.23151,5.31394-3.52854,1.19844-1.76239,2.24944-4.41121,4.5273-4.64639,5.01734-.51091,4.8281.89478,4.88495-3.96049.0355-2.72026.99795-5.31728.99795-8.17621-.48289-.71431-5.24293-7.17741-5.24293-7.20581,0-1.7348,2.12457-3.92789,2.29627-6.54955.193-2.89234.65041-5.88581.65041-8.19289.43609-.64835,3.98011-4.58667,4.58457-4.58667,2.30294,0,3.06862.82753,4.8352.92318l3.62586-5.12094Zm7.20957,12.12083c-1.14458,0-3.29-1.91655-4.91707-2.29417l-1.73108,1.52011-.56143.1199-4.05866,3.44248a98.62345,98.62345,0,0,1-.52216,9.9904c-.37886,5.03154-1.51257,4.71825-2.38481,8.116-.56519,2.186,2.18137,4.93756,3.41827,6.56837,2.67474,3.53188,1.25529,3.186,1.25529,8.24346v2.94829l-6.21163.74066c-.83669,3.00095-5.90082,7.66783-9.18332,8.43308v2.94834c0,4.94047.15036,8.40219-1.74861,11.68679-2.78249,4.80932-1.79875,4.18523-7.492,5.6105-3.73279.937-18.40218,5.30684-20.8985,5.30684l-5.24208,4.25914-3.60122,3.27582h-6.88375c-3.14715,2.10994-6.05079,5.62137-9.10106,7.92974-2.23861,1.69681-8.40343,4.34311-11.211,5.829l-.65082,9.82875c-1.94492,1.02969-1.84508,1.90941-5.24581,1.63791-.90483-.07143-6.54788-.37724-6.54788-.37724l-4.59125-1.65417-.3363-.50424-6.18694-4.37695a11.89048,11.89048,0,0,1-3.62632,1.343H104.503c-2.37476,0-12.06565-4.46468-15.3987-5.24084l-6.49065,4.02649c-1.87018-2.7946-6.17569-9.50875-8.79692-11.01423-4.184-2.399-7.98907-4.73288-12.02266-7.30231-4.56661-2.9074-7.60974-4.47178-11.91153-7.74884-3.84811-2.93247-7.01657-5.8687-10.63533-8.69585-.4186-.32668-9.93779-9.63365-9.97-9.68336-2.66426-3.99809-4.8565-7.80107-7.5241-11.80378-1.58025-2.37519-14.64013-23.40946-14.54739-24.43748L8.604,135.30386l-.08606-2.29918c0-6.01657-3.21106-7.69208-1.93785-15.69364.62576-3.91159,3.161-11.61492,3.247-15.43087l24.5783-10.4641c-.00753-7.423-.31829-7.56089,4.1798-10.56517,3.06862-2.04291,5.68237-3.892,8.78649-5.96246C51.731,71.981,57.5496,63.19913,60.60316,58.64069c0-3.9962-1.02969-15.39995-.54012-17.89987A145.16811,145.16811,0,0,1,64.53314,26.536L60.4244,20.42273l2.8-.11258c1.99547,0,5.95429-3.27394,7.20957-3.27394.31119,0,5.73956,5.23934,5.89286,5.23934.02883,0,13.40323-6.01567,14.41872-6.55L103.5051,27.2081l10.92444-.29742c14.85524.04282,15.40957-2.1726,19.751-2.79922,1.89482-.27338,5.53907-2.0199,6.72626-2.09112,1.14458-.06707,4.18065,1.87536,6.10426,2.3002,3.70486.81188,7.80278,3.52063,12.83471,4.529,1.99886.39978,4.74875,1.06669,6.047,2.465a23.94107,23.94107,0,0,0,4.45553,4.0649c13.75369-3.20229,8.88633-4.20191,16.05287-12.44827l-4.87447-8.5413c1.07315-.72248,6.78015-6.85514,7.16321-6.85514,2.49633,0,5.5324,1.08945,8.18913,1.31064v8.1908a58.00169,58.00169,0,0,1-2.61375,5.23934l-6.54116,1.0625L186.57623,31.758l.15036.67316c0,2.76329,10.15624,9.7429,8.332,19.14159-.77945,3.99868-1.60908,7.81527-2.417,11.67049C191.261,69.81575,193.9324,69.9937,193.9324,74.69c2.67136,1.41236,4.90287,3.60374,7.474,5.30765,3.12876,2.07319,4.48055,3.0066,6.48312,6.2914,1.00844,1.64942,9.30155,15.47955,9.30155,15.92112,0,1.07854-4.91036,7.57672-4.91036,8.18828,0,2.74742.69005,5.15687.95492,7.55712.52216,4.623-.62242,3.41245,2.239,6.28392,1.02968,1.03593,8.59639,7.79645,8.59639,8.43766a1.72084,1.72084,0,0,1-.97956.98169" fill="#002856" fill-rule="evenodd"/></g><g id="CBGC"><path d="M184.72068,111.30829a23.91251,23.91251,0,0,0-3.50518-11.20514.07552.07552,0,0,0-.01754-.0284,23.70768,23.70768,0,0,0-7.4489-7.99553A26.46923,26.46923,0,0,0,163.132,88.313c-.02545-.00274-.04675-.0065-.07558-.01005a32.06347,32.06347,0,0,0-3.8903-.245,23.64245,23.64245,0,0,0-8.83623,1.63017,23.30657,23.30657,0,0,0-7.15235,4.57645L133.229,98.01285a18.1112,18.1112,0,0,0-3.1108-7.2618V90.7427a15.26538,15.26538,0,0,0-8.2038-6.3l-.0213-.0098a20.05369,20.05369,0,0,0-6.71244-1.21016,16.7912,16.7912,0,0,0-12.14756,5.13219l-.81915.22975A30.003,30.003,0,0,1,114.15843,81.631c3.2754-1.11032,8.03835-2.67744,13.55278-4.49077C143.442,71.966,163.021,65.52611,167.5483,63.26389c3.46129-1.72941,6.91964-3.70251,7.92469-7.149.69343-2.37707.1036-5.08582-1.80623-8.28375-1.323-2.21187-3.87985-3.33451-7.60268-3.33451a33.94189,33.94189,0,0,0-9.22258,1.59676c-1.04389.2143-8.21381,1.73356-18.19125,4.46571a309.20485,309.20485,0,0,0-39.05755,13.34c-.64.273-1.30165.561-2.02392.87741L40.08394,83.68015a2.29925,2.29925,0,0,0,1.23356,4.4252l32.42407-7.51867a28.63924,28.63924,0,0,0-3.25076,4.723L50.47913,92.14646A2.29866,2.29866,0,0,0,51.60947,96.588L67.60472,93.8464a40.4714,40.4714,0,0,0-.29994,9.419,25.75073,25.75073,0,0,0,4.56661,12.58447,41.4972,41.4972,0,0,0,6.301,7.24089l-23.28712,6.17236a2.29847,2.29847,0,0,0,.919,4.49685l18.58474-2.7073-5.34987,1.81962a2.3,2.3,0,0,0,1.05142,4.45591l7.76685-1.05895v12.68264a18.74124,18.74124,0,0,0,1.39478,7.86874,9.145,9.145,0,0,0,1.44114,2.16426,2.30217,2.30217,0,0,0-1.74861,1.94577l-.218,1.70143a8.32939,8.32939,0,0,0-.787-1.06023c-1.84884-2.13539-4.54488-3.22026-8.00323-3.22026A10.19589,10.19589,0,0,0,63.11,160.72218c-2.51057,2.18056-3.77959,5.65478-3.77959,10.32623v13.20275c0,4.67355,1.269,8.14653,3.77959,10.33a10.20652,10.20652,0,0,0,6.82652,2.36727,11.06036,11.06036,0,0,0,5.42837-1.29079,2.31893,2.31893,0,0,0,1.67384.72226h8.17493a2.2972,2.2972,0,0,0,2.28121-2.03517l.09316-.82753,2.58907,2.28a2.31548,2.31548,0,0,0,1.49842.5702l3.11832.03384h.0284a2.41484,2.41484,0,0,0,.32539-.0213h7.25595c.04636,0,.0965-.00376.14663-.00376.04637,0,.0965.00376.13954.00376h18.1089a2.2921,2.2921,0,0,0,2.28164-2.03517l.1036-.88267,2.714,2.36017a2.28744,2.28744,0,0,0,1.5101.56476h.01754l2.45291-.0234a1.66779,1.66779,0,0,0,.254.0163h8.9143c.04722,0,.10069-.00376.15078-.00376.05056,0,.1036.00376.15374.00376h25.18232a2.29979,2.29979,0,0,0,2.28917-2.03517l.10694-.9328,2.78583,2.39234a2.274,2.274,0,0,0,1.44072.55433l2.93957.06934a2.296,2.296,0,0,0,2.3393-2.51891l-3.18647-32.90863a2.30323,2.30323,0,0,0-2.28831-2.07863h-10.4102a2.304,2.304,0,0,0-2.03474,1.23732,2.29738,2.29738,0,0,0-2.04188-1.23732h-5.21406c.00376-.04842.0071-.09565.0071-.14325V148.16863q2.48946.15476,4.70234.15455a41.12294,41.12294,0,0,0,8.629-.79284c7.30984-1.59488,7.73173-5.13266,7.57385-6.57671-.27487-2.56361-2.81385-4.48765-6.1899-4.81475A22.52924,22.52924,0,0,0,177.74,129.42015c.06433-.066.18967-.20134.3363-.37262a25.89321,25.89321,0,0,0,4.02982-6.18279,24.68292,24.68292,0,0,0,2.61456-11.55645M96.96055,101.10987c.02173-.53888.06433-1.0669.11823-1.58987l.90479-.09359a18.775,18.775,0,0,0,.87976,5.961,15.89759,15.89759,0,0,0,7.17322,9.43441.18867.18867,0,0,0-.01754.02631,21.50735,21.50735,0,0,1-5.715-4.57829,13.0882,13.0882,0,0,1-3.34349-9.16m27.11017,57.12976.77278.68214h-.85132Zm2.4675-41.77075,8.16034-1.49295a26.49383,26.49383,0,0,0,.86218,4.17855c-.13243-.00167-.2001-.00338-.2001-.00338a2.30307,2.30307,0,0,0-2.346,2.26162l-.02545,1.54308a2.28119,2.28119,0,0,0,.08978.66417h-1.29075c-2.32843-.919-5.03864-1.67632-8.15367-2.54436-3.13629-.87514-6.60888-1.84469-10.528-3.20067l5.12094-.65955a.32205.32205,0,0,0,.0426-.0071l.22932-.028a1.43343,1.43343,0,0,0,.14663-.0234,17.2698,17.2698,0,0,0,5.54993-1.69681,2.30668,2.30668,0,0,0,2.34221,1.00881m29.36632,20.72937c.19672-.19215.38973-.39854.58688-.60989.26444.02631.5255.04761.79037.06853a30.88173,30.88173,0,0,0,3.23989.11652,26.33038,26.33038,0,0,1-4.61713.42485m-24.08416-29.81871a17.8837,17.8837,0,0,0,1.48-4.97011,2.2426,2.2426,0,0,0,1.07315.04846l2.24947-.43195c-.01839.07058-.03217.145-.04637.22012l-.19382,1.35093a21.38851,21.38851,0,0,0-1.57276,5.24208l-4.79217,1.622a18.38462,18.38462,0,0,0,1.78788-3.05733.07848.07848,0,0,0,.01459-.02425" fill="#fff"/><path d="M91.95451,156.85777h2.968V143.5782H89.26895v3.04817h.57186v3.87233c0,1.18218-.27192,2.28455-1.34092,2.28455-1.10155,0-1.34464-1.10236-1.34464-2.28455V134.19687c0-1.17966.27526-2.28164,1.34464-2.28164,1.069,0,1.34092,1.102,1.34092,2.28164v5.19528l5.23913-2.1818-.13239-2.03683c-.061-5.70285-2.35641-7.90425-6.44766-7.90425-3.36146,0-6.41921,1.83254-6.41921,8.47821v13.20437c0,6.64062,1.86347,8.47406,5.19276,8.47406a5.98969,5.98969,0,0,0,2.328-.40312,4.22979,4.22979,0,0,0,2.07781-1.63209Z" fill="#005c82"/><path d="M103.71607,156.85777v-13.247s2.7854,12.06484,3.397,13.247h5.34649l-4.077-13.7261c2.97545-1.7691,3.06486-4.89787,3.06486-8.52753,0-6.113-2.87147-6.7651-7.69914-6.7651h-5.1034v29.01872Zm0-24.86109c2.328,0,2.6605,1.02053,2.6605,3.70777,0,2.73236-.36842,3.75119-2.6605,3.75119Z" fill="#005c82"/><polygon points="121.353 145.325 122.24 132.405 122.304 132.405 123.191 147.06 121.353 145.325" fill="#005c82"/><polygon points="132.743 156.858 136.716 156.858 136.716 135.704 136.776 135.704 140.531 156.858 147.047 156.858 147.047 127.839 143.074 127.839 143.074 145.857 143.013 145.857 139.769 127.839 132.743 127.839 132.743 156.858" fill="#005c82"/><polygon points="96.506 192.158 100.48 192.158 100.48 171.006 100.544 171.006 104.303 192.158 110.814 192.158 110.814 163.141 106.841 163.141 106.841 181.157 106.777 181.157 103.537 163.141 96.506 163.141 96.506 192.158" fill="#005c82"/><path d="M137.12346,192.15831V178.91382s2.7854,12.06235,3.39319,13.24449H145.874l-4.08411-13.72653c2.97883-1.76658,3.0682-4.89829,3.0682-8.52543,0-6.113-2.87147-6.7651-7.70248-6.7651h-5.10255v29.01706Zm0-24.85856c2.32424,0,2.66049,1.018,2.66049,3.70606,0,2.73155-.36466,3.75123-2.66049,3.75123Z" fill="#005c82"/><polygon points="164.201 180.625 165.088 167.705 165.152 167.705 166.039 182.358 164.201 180.625" fill="#005c82"/><path d="M120.46237,180.62483l.88725-12.91949h.06057l.88729,14.65266Zm-1.95582-17.48358-3.69728,29.01706h4.27668l.82586-7.13061,8.20752,7.13061h.16751l-2.81423-29.01706Z" fill="#005c82"/><polygon points="84.874 180.625 85.76 167.705 85.821 167.705 86.708 182.358 84.874 180.625" fill="#005c82"/><path d="M71.34213,180.29024,71.31,185.80091c0,1.18218-.27526,2.28164-1.37347,2.28164-1.04055,0-1.31586-1.09946-1.31586-2.28164v-16.301c0-1.18214.2753-2.28164,1.31586-2.28164,1.09821,0,1.37347,1.0995,1.37347,2.28164v4.5729l5.07414-2.12542V170.314c0-6.27677-2.7499-7.74217-6.44762-7.74217-3.36146,0-6.39,1.83382-6.39,8.47654v13.20275c0,6.644,3.02854,8.47735,6.39,8.47735,4.28045,0,6.44762-2.6066,6.44762-8.02705v-4.41121Z" fill="#005c82"/><rect x="149.47861" y="163.14125" width="5.07414" height="29.01706" fill="#005c82"/><path d="M170.96027,161.22094h-10.4102l-4.07662,32.01929V161.22094h-8.91888v29.863L144.01431,179.177c2.765-2.47,2.765-6.20162,2.765-9.27066,0-8.01576-4.75294-8.68541-9.62365-8.68541h-7.02324v30.05474l-2.9145-30.05474H116.811l-4.07286,32.00466V161.22094h-18.152v30.4967l-2.95706-30.4967H81.2264l-2.9216,22.91365v-5.76633H70.54095v-1.88977l7.76386-3.25285V170.314c0-6.41169-2.81423-9.665-8.36832-9.665-3.10374,0-8.30693,1.35179-8.30693,10.39933v13.20275c0,9.04964,5.2032,10.39809,8.30693,10.39809,4.67727,0,6.80184-2.57324,7.71377-5.39915l-.61156,4.83062h8.17493l.59693-5.189,5.89,5.1765,3.11456.0355v-.023h7.58844v-1.63l.28617,1.63h18.1089l.60112-5.21244,6.00819,5.21954,2.72445-.02549v.01839h8.9143v-.58525l.30452.58525h25.18232l.61156-5.23789,6.065,5.21616,2.93623.07143Z" fill="#002856"/><path d="M128.22669,92.05372a13.02166,13.02166,0,0,0-7.1064-5.45531c-6.26133-2.23257-12.40152-1.00484-16.86077,3.80029l-11.683,3.29084,10.08772-1.27406a14.48159,14.48159,0,0,0-1.64792,3.1854L96.48519,97.271l4.15892-.42818a14.61985,14.61985,0,0,0,.42189,7.88585,13.64745,13.64745,0,0,0,10.69594,9.86092l-3.90826,1.645,10.10941-1.30332.01086-.00291.23184-.02969v-.00334a14.30026,14.30026,0,0,0,11.51847-8.46358c2.31419-5.12094,1.74233-9.6491-1.49757-14.378" fill="#0082ca"/><path d="M166.5219,61.20468c5.95057-2.97169,9.15119-5.53218,5.17441-12.19346-2.71773-4.54155-14.26417-.69279-14.26417-.69279s-29.47822,5.9927-56.93842,17.69621q-1.0721.45581-2.09531.91189L40.7991,85.86486l40.75274-9.44942a31.06778,31.06778,0,0,0-9.44442,10.772L51.21974,94.32176l19.3784-3.319a33.94336,33.94336,0,0,0-1.00129,12.10051c.57606,8.19542,6.11512,15.34943,13.41033,21.08278l-27.532,7.30022,27.314-3.98179a8.45833,8.45833,0,0,0-2.0995,3.82887L69.78318,135.049l10.48455-1.43032c-.06434.65878-.10694,1.36432-.10694,2.12876v13.20437c0,4.463.74022,10.39643,7.11264,10.39643a7.83363,7.83363,0,0,0,3.029-.53927.75808.75808,0,0,0,.07853-.0305h15.25879v-.58358l.30075.58358h15.745l.60446-5.17608,5.86823,5.18108,2.66092-.01463v.00962h7.81361v-1.63043l.2966,1.63043h10.038V145.6848c5.75752.51425,11.03553.49376,15.141-.40016,10.05554-2.19519,5.29217-8.22134-1.33759-6.63061a26.00868,26.00868,0,0,1-13.8034-.17209V125.91873H131.34087c-4.95638-2.0456-12.15509-3.2854-21.58488-6.80689-9.44108-3.52225-15.39118-10.04716-15.09085-18.08637a22.70166,22.70166,0,0,1,.93657-5.7446l-10.26318-.30075,12.49135-4.56473c2.69977-4.26415,7.47354-8.20688,15.58752-10.96033,12.44827-4.22616,47.154-15.2732,53.10451-18.25037m-35.7028,81.64376v11.0138l-1.08773-11.2465c.36132.076.72642.155,1.08773.2327m-17.63731-4.3047c.90816.24728,1.84554.50419,2.818.76153l-2.02387,15.89456-3.369-11.32461a8.33852,8.33852,0,0,0,2.57486-5.33148m-16.46018.06391v3.05065H89.40095Z" fill="#002856"/><path d="M91.95451,156.85777h2.968V143.5782H89.26895v3.04817h.57186v3.87233c0,1.18218-.27192,2.28455-1.34092,2.28455-1.10155,0-1.34464-1.10236-1.34464-2.28455V134.19687c0-1.17966.27526-2.28164,1.34464-2.28164,1.069,0,1.34092,1.102,1.34092,2.28164v5.19528l5.23913-2.1818-.13239-2.03683c-.061-5.70285-2.35641-7.90425-6.44766-7.90425-3.36146,0-6.41921,1.83254-6.41921,8.47821v13.20437c0,6.64062,1.86347,8.47406,5.19276,8.47406a5.98969,5.98969,0,0,0,2.328-.40312,4.22979,4.22979,0,0,0,2.07781-1.63209Z" fill="#ffc627"/><path d="M103.71607,156.85777v-13.247s2.7854,12.06484,3.397,13.247h5.34649l-4.077-13.7261c2.97545-1.7691,3.06486-4.89787,3.06486-8.52753,0-6.113-2.87147-6.7651-7.69914-6.7651h-5.1034v29.01872Zm0-24.86109c2.328,0,2.6605,1.02053,2.6605,3.70777,0,2.73236-.36842,3.75119-2.6605,3.75119Z" fill="#ffc627"/><path d="M121.35338,145.32471l.88643-12.91949h.06433l.88682,14.65433ZM119.40051,127.839l-3.70109,29.01872h4.27672l.82625-7.13228,8.37837,7.13228L126.37029,127.839Z" fill="#ffc627"/><polygon points="132.743 156.858 136.716 156.858 136.716 135.704 136.776 135.704 140.531 156.858 147.047 156.858 147.047 127.839 143.074 127.839 143.074 145.857 143.013 145.857 139.769 127.839 132.743 127.839 132.743 156.858" fill="#ffc627"/><polygon points="96.506 192.158 100.48 192.158 100.48 171.006 100.544 171.006 104.303 192.158 110.814 192.158 110.814 163.141 106.841 163.141 106.841 181.157 106.777 181.157 103.537 163.141 96.506 163.141 96.506 192.158" fill="#ffc627"/><path d="M137.12346,192.15831V178.91382s2.7854,12.06235,3.39319,13.24449H145.874l-4.08411-13.72653c2.97883-1.76658,3.0682-4.89829,3.0682-8.52543,0-6.113-2.87147-6.7651-7.70248-6.7651h-5.10255v29.01706Zm0-24.85856c2.32424,0,2.66049,1.018,2.66049,3.70606,0,2.73155-.36466,3.75123-2.66049,3.75123Z" fill="#ffc627"/><path d="M164.201,180.62483l.88682-12.91949h.06433L166.039,182.358Zm-1.95248-17.48358-3.701,29.01706h4.27711l.82543-7.13061,8.37918,7.13061-2.81838-29.01706Z" fill="#ffc627"/><path d="M120.46237,180.62483l.88725-12.91949h.06057l.88729,14.65266Zm7.82447,11.53348-2.81423-29.01706h-6.96605l-3.69728,29.01706h4.27668l.82586-7.13061" fill="#ffc627"/><path d="M84.874,180.62483l.88639-12.91949h.061l.88686,14.65266Zm-1.95625-17.48358-3.69772,29.01706h4.28045l.82586-7.13061,8.3717,7.13061-2.80713-29.01706Z" fill="#ffc627"/><path d="M71.34213,180.29024,71.31,185.80091c0,1.18218-.27526,2.28164-1.37347,2.28164-1.04055,0-1.31586-1.09946-1.31586-2.28164v-16.301c0-1.18214.2753-2.28164,1.31586-2.28164,1.09821,0,1.37347,1.0995,1.37347,2.28164v4.5729l5.07414-2.12542V170.314c0-6.27677-2.7499-7.74217-6.44762-7.74217-3.36146,0-6.39,1.83382-6.39,8.47654v13.20275c0,6.644,3.02854,8.47735,6.39,8.47735,4.28045,0,6.44762-2.6066,6.44762-8.02705v-4.41121Z" fill="#ffc627"/><rect x="149.47861" y="163.14125" width="5.07414" height="29.01706" fill="#ffc627"/><path d="M178.56629,101.65414c3.95172,6.81108,4.05155,12.87607.75815,19.9098-4.13047,8.80069-12.14085,12.894-21.78909,12.03224-9.00079-.64082-15.58084-5.17355-18.545-13.78629-2.69271-7.70919-1.47335-14.21237,3.70815-20.56854,5.31433-6.50027,11.69389-8.90451,19.99-7.8915,7.39838,1.13641,12.13713,4.06845,15.87787,10.30429" fill="#ffc627"/><path d="M179.23089,101.27614c-3.77587-6.28768-8.69251-9.48078-16.44931-10.66942a29.82394,29.82394,0,0,0-3.61542-.22872,20.4778,20.4778,0,0,0-14.75083,5.89791l-10.4783,3.94671,8.2894-1.59449c-.03593.0497-.079.0965-.1249.1483a27.3534,27.3534,0,0,0-2.69643,3.93c-.18257-.04218-.36886-.07854-.551-.10441l-.22517,1.52678c.01463,0,.0284.00629.043.00629a19.01537,19.01537,0,0,0-1.76281,6.44428L126.123,114.22822l10.71472-1.95873a23.54819,23.54819,0,0,0,1.42279,7.81275c.1575.46745.33668.92194.51839,1.368-2.06314.043-3.42579.0234-3.46506.0234l-.02507,1.541c.08564.00167.48293.00834,1.12285.00834.73689,0,1.78831-.00834,3.05446-.04136a19.67476,19.67476,0,0,0,14.31469,10.90062c-.44029.48289-.92985.9654-1.391,1.41278-.19719.19172-.39015.38053-.56853.55976l-.25776.2857,1.155,1.028.20763-.23976c.17166-.16794.3538-.34631.5397-.52926a22.53793,22.53793,0,0,0,2.07777-2.2123q.93864.12845,1.9207.2022c.85427.07349,1.71606.11442,2.55275.11442a21.16077,21.16077,0,0,0,16.0604-6.64438s.114-.122.25734-.28779a23.62223,23.62223,0,0,0,3.69061-5.66021c3.45043-7.37208,3.21068-13.732-.79451-20.63535m-39.51127,18.30106a21.71587,21.71587,0,0,1-1.32668-7.59263,18.55013,18.55013,0,0,1,.14325-1.95535,17.89081,17.89081,0,0,1,1.64463-5.44428,14.9115,14.9115,0,0,1,4.50976,3.36232,31.21216,31.21216,0,0,1,2.17012,2.4888c.28236.35384.55809.71349.83754,1.09235a48.37381,48.37381,0,0,1,5.04574,8.64867,82.15554,82.15554,0,0,1-12.30544,1.22393c-.26106-.58731-.50463-1.19429-.71893-1.82381m15.08,12.92453a18.39729,18.39729,0,0,1-13.62464-9.57642,79.34813,79.34813,0,0,0,12.16925-1.29455c.19677.51673.37553,1.01467.5255,1.48961l.0681.2753c1.47,5.59172,1.30914,8.05169.8618,9.10606m5.2174.45616c-.7866,0-1.602-.03593-2.42823-.1107-.41817-.02964-.833-.07186-1.24442-.11656.79452-2.5193-.11446-6.67989-.91526-9.72844l-.0752-.30452c-.13948-.43862-.30743-.91317-.49333-1.41069.1859-.04846.37181-.09607.55433-.14787.87933-.24142,1.73065-.49624,2.55318-.75691a31.632,31.632,0,0,0,6.07209,6.0629c.83336.69634,1.62662,1.35512,2.38186,2.03812.33964.609,1.06524,1.9562,1.25486,2.41822l1.427-.58063c-.2682-.665-1.28035-2.49051-1.3952-2.69814l-.06019-.11361-.09646-.08521c-.80833-.73561-1.68428-1.46121-2.52477-2.16469a32.21557,32.21557,0,0,1-5.5211-5.38491,59.077,59.077,0,0,0,6.55789-2.69228,15.20537,15.20537,0,0,0,1.173,2.43285,37.30583,37.30583,0,0,0,4.45925,4.74832c.98708.95535,2.26034,2.191,2.83973,2.85893a19.76408,19.76408,0,0,1-14.519,5.73583m18.606-11.70142a21.985,21.985,0,0,1-3.0465,4.81475c-.56853-.64458-1.46664-1.52054-2.80756-2.81719a39.19168,39.19168,0,0,1-4.20859-4.44252,13.93213,13.93213,0,0,1-1.11575-2.32758c8.41054-4.41874,11.52929-9.12861,11.701-9.39929l-1.29832-.83506c-.03927.06309-2.968,4.496-10.896,8.73387-1.881-6.60721-.95872-15.7371.38639-21.135l-1.50214-.36988a54.71185,54.71185,0,0,0-1.50219,13.15531,34.0027,34.0027,0,0,0,1.21978,9.06384,55.54727,55.54727,0,0,1-6.92007,2.83973c-.01086-.01963-.02507-.03884-.03593-.05681-2.97507-5.36784-4.41245-15.019-5.22788-22.0001-.0213-.15036-.03217-.30495-.05347-.45449l-1.53388.18c.0213.18671.04595.37638.06724.56853.82668,7.01619,2.2712,16.63936,5.2926,22.24781-.69677.21721-1.39811.4269-2.13458.62948-.24271.06562-.49.13-.74023.19176a49.65927,49.65927,0,0,0-5.70367-9.71886c-.73018-.96035-1.48794-1.87643-2.26739-2.71983a17.65585,17.65585,0,0,0-5.40291-4.18566,26.00263,26.00263,0,0,1,2.40654-3.46754c.46073-.5702.94029-1.09946,1.41941-1.60574a21.12438,21.12438,0,0,1,4.674-3.74785,17.99768,17.99768,0,0,1,5.471-2.058q.79954-.16227,1.63081-.26a22.59608,22.59608,0,0,1,2.67141-.1575,28.21935,28.21935,0,0,1,3.40445.21371c7.33114,1.123,11.77242,4.002,15.32646,9.92709,3.77292,6.49317,3.98765,12.23358.726,19.19292" fill="#002856"/></g></svg>