<svg height="310.156199" viewBox="0 0 126.08304 121.22099" width="322.418189" xmlns="http://www.w3.org/2000/svg"><g transform="matrix(.76393147 0 0 .76393147 -.000024 -.000145)"><path d="m37.277195 105.99202c-4.069256 4.22454-8.138512 8.44908-10.724612 11.14268-2.586099 2.69361-3.688995 3.85623-4.445515 4.84369s-1.166623 1.7997-1.371679 2.81106c-.205056 1.01135-.205056 2.22175-.05972 3.19528.145334.97352.435989 1.71011 1.6969 3.32908 1.260912 1.61896 3.49199 4.12019 5.457835 6.08315 1.965844 1.96296 3.666347 3.38755 5.637191 4.86286 1.970844 1.47532 4.211904 3.00127 6.909144 4.56387 2.697241 1.56259 5.850493 3.16174 8.812384 4.53006 2.961891 1.36833 5.732244 2.50575 8.415403 3.41515 2.683158.9094 5.278962 1.59073 7.694648 2.10596s4.651116.86434 6.990786 1.14308c2.33967.27873 4.783439.48707 7.362427.58842 2.578988.10136 5.293035.0957 7.798816.003 2.505782-.0929 4.803151-.2731 7.455342-.5997 2.652188-.3266 5.659035-.79958 7.731225-1.21064s3.20962-.76017 4.74125-1.29793c1.53162-.53776 3.45736-1.26414 5.34374-2.06093 1.88637-.79678 3.73327-1.66392 5.73509-2.69439 2.00181-1.03047 4.15841-2.2242 6.04723-3.36558 1.88881-1.14138 3.50974-2.23034 5.20018-3.4796 1.69045-1.24926 3.45031-2.65874 4.91159-3.94483s2.62391-2.44871 4.12501-4.05334 3.34059-3.65116 4.60279-5.14031c1.26219-1.48915 1.94702-2.42084 2.44075-3.26894s.79633-1.61257.9556-2.30538c.15927-.69282.17521-1.31394.12743-1.97092-.0478-.65699-.15926-1.34978-.41808-1.92713-.25881-.57734-.66493-1.0392-1.73203-1.96296-1.06711-.92377-2.79511-2.30935-4.52315-3.69497 0 0-11.94498-9.67543-11.94498-9.67543h26.87901c.77151-.0279 1.54301-.0557 2.14975-.28269.60674-.22696 1.0487-.65298 1.76142-1.66633.71273-1.01335 1.69618-2.61395 2.4746-4.146901.77842-1.53295 1.35177-2.99818 1.83754-4.3201.48576-1.32192.88392-2.50047 1.15145-4.1443.26753-1.64384.40441-3.75285.47848-5.53941.0741-1.78656.0853-3.25057.0178-4.86385-.0676-1.61327-.21397-3.37571-.5293-5.07627-.31534-1.70055-.79959-3.33911-1.31764-4.78064s-1.06987-2.68594-1.62734-3.8065c-.55746-1.12056-1.12054-2.11721-1.68082-2.90836s-1.11774-1.37676-1.70054-1.66956c-.58281-.29281-1.19093-.29281-1.79907-.29281h-25.41962c.93171-.56736 1.86342-1.13472 2.87079-1.90018 1.00737-.76547 2.09036-1.72902 3.07782-2.68861.98746-.95958 1.87934-1.91516 2.75531-3.01013s1.73599-2.32926 2.42483-3.53572c.68883-1.20645 1.20643-2.385 1.63248-3.7786.42604-1.39359.76049-3.00215.68882-4.54705-.0717-1.5449-.54947-3.02605-1.07505-4.29223-.52559-1.26617-1.09893-2.31731-2.16496-3.58765s-2.62467-2.75981-3.87701-3.85931c-1.25235-1.0995-2.19832-1.80898-2.78394-2.40023-.58562-.59126-.81085-1.06424-.94036-1.85821-.12951-.79398-.1633-1.90887-.25339-2.8774-.0901-.968528-.2365-1.790625-.64193-2.528283-.40544-.737658-1.06987-1.390828-2.1116-2.241108-1.04174-.850279-2.4607-1.897608-4.95523-3.575646-2.49454-1.678038-6.06447-3.986667-8.85742-5.659059-2.79296-1.672393-4.80879-2.708461-7.73127-3.986695-2.92249-1.278233-6.75143-2.798548-9.572537-3.750178-2.82111-.95163-4.634226-1.334524-6.712058-1.666752-2.077832-.332227-4.420247-.613767-6.571278-.692599-2.15103-.07883-4.11055.04505-6.650125.394169-2.539575.349122-5.659041.923464-8.55336 1.559765-2.894318.636301-5.56332 1.334521-8.575894 2.303051-3.012575.968531-6.368535 2.207308-8.941882 3.367288-2.573348 1.159979-4.363944 2.241094-5.726636 3.237775-1.362691.996682-2.297405 1.908873-2.990013 2.76478-.692607.855908-1.143071 1.655482-1.458405 2.421294-.315333.765812-.495519 1.497817-.641924 2.196057-.146405.698241-.259021 1.362676-.585619 1.96519-.326599.602513-.867156 1.143071-2.038405 2.179175-1.171248 1.036105-2.973107 2.567686-4.442789 3.851546-1.469681 1.28386-2.6071 2.31992-3.598152 3.39544s-1.835673 2.19042-2.539542 3.1871c-.70387.99668-1.266952 1.87509-1.79063 2.79294-.523678.91784-1.007929 1.87508-1.272583 2.78167-.264654.90658-.309701 1.76247-.25339 2.5677.05631.80522.213974 1.55975.484262 2.20168s.653185 1.17123.87842 1.63296c.225236.46174.292806.8559.298437 1.45841.0056.60252-.05068 1.41336-.101357 2.41005-.05068.99668-.09573 2.17915-.06194 3.27156.03379 1.0924.146403 2.09469.270284 3.13642.123882 1.04173.259021 2.12284.439212 3.24904.180192 1.12619.405424 2.2974.546198 3.00127.140775.70387.197082.94036-3.05447 1.05861-3.251551.11825-9.810701.11825-16.369982.11825-.425873-.0113-.851744-.0225-1.440554.34067-.588809.3632-1.340519 1.10083-2.0148273 1.91873-.6743082.8179-1.2711756 1.71602-1.9943401 3.08855-.7231646 1.37253-1.5725853 3.21939-2.2143078 5.11438s-1.0757145 3.838-1.3404958 5.62379-.3603394 3.41426-.3862198 5.04676c-.02588 1.63249.017917 3.26892.1911224 4.88549s.4758065 3.21319.9038396 4.89346c.4280332 1.68028.9814725 3.44412 1.6026188 5.00097.6211463 1.55684 1.3099572 2.906591 2.1858341 4.144891.8758769 1.23829 1.9387559 2.36504 2.7067109 2.92843s1.240943.56339 1.71394.56339z" fill="#f9f9f9"/><g fill="#103675"><path d="m66.138526 124.15253c-1.12667-.38735-5.21365-2.37633-6.64842-3.23551-1.47629-.88402-4.28344-2.76873-4.48422-3.01064-.11903-.14343.0726-.25471.95067-.55203.60486-.20481 2.56541-.98081 4.35677-1.72442 15.45982-6.4176 26.352635-9.74272 36.846135-11.24767 3.689319-.52909 4.588499-.60278 4.588499-.37592 0 .41071-.85083 2.69827-1.38662 3.72816-3.370119 6.47777-12.297559 11.86246-25.439064 15.34385-5.40461 1.43177-7.13004 1.64277-8.78375 1.07418z" stroke-width=".225251"/><path d="m79.517111 127.01794c-.25724-.12009-.2552-.12663.0422-.13568.46195-.014 3.88082-1.15543 5.97164-1.99363 8.866-3.55433 15.893579-10.45834 19.814029-19.46563.78381-1.80081.5177-1.71522 3.4711-1.11657 3.01431.611 4.35906 1.27143 5.86331 2.87962.95936 1.02563 1.55465 2.1989 1.96093 3.86477l.30791 1.26251-1.85594 1.79784c-1.02076.98883-2.50998 2.32296-3.30936 2.96476-6.46551 5.19081-14.971109 8.76194-23.211279 9.7454-1.94412.23204-8.66594.37798-9.05452.19661z" stroke-width=".225251"/><path d="m34.84061 139.39973c-.18582-.15436-1.04132-.97901-1.9011-1.83258l-1.56325-1.55191.30403-.71779c.16722-.39481.32018-.77439.33991-.84352.0275-.0964-.53096-.68662-2.39782-2.53392-1.33854-1.32453-2.54761-2.55254-2.68683-2.72891-.23844-.30213-.24712-.32956-.14978-.47299.53821-.79312 10.28022-10.68779 12.51453-12.71064 1.04395-.94514 1.42119-1.21401 1.58232-1.12779.4157.22249 3.08909 2.75953 5.8875 5.58726 2.53966 2.56625 2.6462 2.69187 2.68552 3.16611.0233.28075-.004.43358-.11898.67152-.22215.45889-1.69812 2.02549-7.40109 7.85547-4.10816 4.19966-5.36617 5.60272-5.5359 6.17429-.0516.17381-.13975.40355-.19585.51049-.16896.32216-.76718.83759-.97023.83598-.0303-.00024-.20716-.12674-.39298-.28107zm-1.0332-8.52014c.86396-1.71593 1.17806-2.21242 1.39962-2.21242.1731 0 .63558.34751 1.24866.93827l.53393.51451 4.14536-4.18695c2.27994-2.30283 4.14442-4.20325 4.14329-4.22318-.001-.0198-.52975-.58359-1.17469-1.25253l-1.17263-1.21629-5.80202 5.83681c-3.19111 3.21022-5.81155 5.86142-5.8232 5.89156-.028.0723 1.4701 1.61708 1.56751 1.61639.0415 0 .46184-.76809.93417-1.70617z" stroke="#fd0013" stroke-opacity=".884422" stroke-width=".5"/><path d="m45.19877 144.92643c-1.09019-.57515-2.90296-1.71889-3.52954-2.22695l-.19876-.16115.42864-.73594c2.30619-3.95949 10.23353-16.45084 10.50664-16.55564.05-.0193.24942.0454.44305.14348.94874.48077 3.17698 1.89651 3.67987 2.33804l.24128.21186-.2496.44799c-1.17163 2.10275-6.54195 10.66424-9.11828 14.53652-1.41313 2.124-1.53412 2.29743-1.60262 2.29743-.0222 0-.29249-.13303-.60068-.29564z" stroke="#fd0013" stroke-opacity=".884422" stroke-width=".5"/><path d="m64.707 153.28149c-.72467-.1792-2.01147-.59814-3.22538-1.05007l-1.47081-.54756-.0112-.74766c-.006-.41121-.015-2.73931-.0197-5.17356-.008-4.15567-.0383-5.00025-.17934-5.00025-.15454 0-.74384 1.50767-2.11292 5.40567-.95392 2.71598-1.29011 3.6163-1.43128 3.83289-.11463.17587-.15768.17185-1.27963-.11959-.91916-.23873-2.43117-.7534-2.87667-.97917-.25549-.12946-.33295-.20537-.33295-.32631 0-.46823 1.41023-4.74118 4.18263-12.67312 1.04461-2.98868 1.97067-5.58848 2.05791-5.77733.16369-.35433.47412-.71499.61541-.71499.25817 0 3.54343 1.03976 4.67281 1.47892l.54848.21325.0428.31205c.0235.17164.0437 2.23105.0449 4.5765.002 4.23553.066 6.35296.19574 6.48266.0452.0452.11502-.0427.21014-.26442.24874-.57984.97346-2.559 1.75463-4.79179.84488-2.41491 1.50627-4.19794 1.69684-4.57454.11549-.22823.14271-.24488.31268-.19117 3.70661 1.17166 4.08057 1.35467 3.97267 1.94432-.14545.79492-3.80594 11.40574-5.35565 15.52475-.95846 2.54748-1.31383 3.21834-1.69606 3.20177-.0995-.004-.24172-.0228-.31604-.0413z" stroke="#fd0013" stroke-opacity=".884422" stroke-width=".5"/><path d="m84.89384 155.57493c-1.8069-.0597-2.89591-.10496-3.2603-.13563-1.08675-.0914-1.68832-.1262-4.34144-.2509-2.40494-.11306-4.22866-.28133-4.39905-.40593-.0519-.0379-.0617-.11321-.0725-.55406-.0179-.73356.0925-4.85082.18075-6.74272.0104-.22299.0566-1.27201.10273-2.33119.13165-3.02472.30239-6.15209.43902-8.04095.0659-.91141.25175-2.93325.2714-2.95291.008-.008.33044.0182.71589.059.9381.0991.94872.1 1.91709.1569 1.34728.0792 2.05738.1144 3.76709.18685 3.5713.15131 5.52777.28472 6.19463.42235.48765.10068.5544.21254.49298.82627-.0643.6427-.14611.75067-.61482.81156-.54209.0704-2.45053.0306-5.00855-.10454-1.9066-.1007-2.18359-.0759-2.32246.20799-.11254.23005-.18688 1.40536-.46464 7.34634-.23502 5.02661-.35706 7.12197-.49193 8.44637-.0454.44598-.0826.84627-.0826.88958l-.00003.0787 1.15715-.0119c1.2482-.0127 1.30164-.0201 1.46843-.20127.13883-.15081.21187-.57581.29526-1.71812.19061-2.61083.30505-5.74252.22534-6.16585-.0568-.3016-.11821-.36613-.3791-.39833-.63882-.0789-.95679-.34473-1.00146-.83728-.0327-.36015.20134-.90794.44902-1.05121.16238-.0939.55701-.13581 1.06256-.11279 2.19859.10001 3.48284.24013 4.24008.46262.28477.0837.40044.14086.77925.38523l.29043.18735-.0211.36124c-.0116.1987-.0584 1.23545-.10408 2.30391-.18095 4.23633-.29876 6.22909-.4724 7.99029-.0458.46455-.0833.86362-.0834.88685-.00008.0233-.0344.0399-.0762.037-.0418-.003-.42569-.0169-.85308-.0309z" stroke="#fd0013" stroke-opacity=".884422" stroke-width=".5"/><path d="m93.1273 154.91268c-.0614-.0302-.13229-.0951-.15764-.14412-.0254-.049-.10917-.347-.18625-.6622-.82471-3.37193-3.80595-16.73125-4.16631-18.66974-.0383-.2059-.0397-.27763-.007-.3555.068-.1616.36702-.32824.87851-.4895.93753-.29559 5.15793-1.27924 7.01598-1.63521 1.14955-.22026 1.51212-.26365 2.22435-.26633.5918-.003.68616.006.92758.0754.54012.15637.94958.43268 1.61139 1.08734.40243.39809.43738.44346.5988.7775.41332.85537.57478 1.49905 2.45357 9.78133l1.10372 4.86555-.37539.92866c-.40661 1.00592-.83145 1.89982-.97696 2.05558-.22393.23971-2.15791.75438-6.80616 1.81118-1.35307.30763-2.77947.63521-3.16977.72797-.3903.0927-.74277.16828-.78328.16785-.0405 0-.12384-.0254-.1852-.0557zm5.28476-3.00236c1.19107-.20627 1.6726-.4018 1.83973-.74703.0897-.18534.0806-.32107-.0882-1.31397-.60011-3.52975-2.86445-13.23438-3.35487-14.37849-.0728-.16992-.18684-.2672-.39066-.33335-.31401-.10192-1.48531.0461-2.2013.27829-.22905.0743-.23485.079-.24485.19862-.0311.37211 2.3172 11.21934 3.29407 15.21598.20742.84862.23059.91977.33283 1.02203.0994.0994.12904.10988.31155.10988.11091 0 .33668-.0233.50171-.052z" stroke="#fd0013" stroke-opacity=".884422" stroke-width=".501"/><path d="m112.82388 149.2172c-.43604-1.05389-2.7686-8.29992-4.49988-13.97875-1.15075-3.77463-1.57915-5.43592-1.50444-5.83415.0277-.14771.091-.20473.59232-.53321 1.01549-.6654 3.44928-1.96821 4.2631-2.28206.26035-.10041.27428-.10223.3604-.0477.4276.2707 4.14729 4.33866 8.18425 8.95054 3.48634 3.98285 5.62583 6.55751 5.55047 6.67943-.0404.0653-.56628.43667-.99991.70604-1.09791.68207-2.32863 1.33837-2.81744 1.50246-.36632.12298-.51027.10449-.71206-.0915-.33627-.32652-1.223-1.3821-2.8484-3.39077-.60147-.74327-1.14021-1.40814-1.19722-1.47751-.0887-.10784-.12363-.12615-.24194-.12668-.25442 0-.72451.20097-1.19623.51429-.44268.29401-.64192.52327-.64192.73864 0 .0772.0959.38214.24011.76356.85812 2.26957 1.78702 5.20131 1.78702 5.64007 0 .12412-.0769.19415-.54057.49223-1.14264.73462-3.44951 2.02004-3.62525 2.02004-.0315 0-.0898-.0936-.15241-.24495zm2.06401-11.14406c.44953-.22384.63251-.34557.63251-.4209 0-.21778-1.24602-1.92876-1.87475-2.57432-.33884-.3479-.42269-.38475-.42262-.18576.00013.37415.59668 2.21882.93538 2.8924.21143.42047.35248.47627.72948.28858z" stroke="#fd0013" stroke-opacity=".884422" stroke-width=".501"/><path d="m131.46344 137.34397c-1.09787-.98062-3.8313-3.62164-10.98722-10.61574l-3.64303-3.56066.53607-.54427c.29483-.29938 1.44629-1.47931 2.55879-2.62213 4.61106-4.7366 5.5631-5.60702 6.19959-5.66819.22551-.0217.36266.0324.75731.29847.77846.52486 1.87268 1.52019 4.93547 4.4895 2.78727 2.70219 7.81257 7.66009 8.55553 8.44079l.49133.51626-.0878.12565c-.19336.27665-1.66842 1.88206-3.28176 3.57177-2.53053 2.65033-5.50427 5.64152-5.72725 5.76088-.0449.0241-.11145-.0177-.307-.19233zm2.72406-5.13498c.074-.0496.22576-.16481.33725-.25609.25024-.20489 1.43588-1.33884 1.43588-1.37326 0-.0138-.72596-.73063-1.61326-1.59296-.88729-.86235-3.52075-3.42309-5.85213-5.69057-2.33139-2.26746-4.32357-4.20108-4.42707-4.29694l-.18818-.17428-.94084.93374-.94084.93374 1.00957.99565c.55527.54761 2.23414 2.20509 3.73083 3.68332 3.00897 2.97185 4.55619 4.48053 5.82692 5.68179 1.08333 1.0241 1.33543 1.2454 1.41915 1.24571.0375.00014.12872-.0403.20272-.0899z" stroke="#fd0013" stroke-opacity=".884422" stroke-width=".5"/></g><path d="m37.01927 130.45177s-1.78641 1.78641-1.78641 1.78641 1.10225-2.56347 1.10225-2.56347z" fill="#e2061d"/><path d="m36.4238 137.90149s-1.09803-1.1825-1.09803-1.1825.57435-.72638.57435-.72638 1.18249 1.1825 1.18249 1.1825z" fill="#e2061d"/><path d="m119.26126 52.64403c.47382.53233.99796.937893 1.3934 1.420594s.74516.934046 1.0361 1.340956c3.5999 5.034812 6.22858 12.07711 7.27555 19.4914.29906 2.11775.41389 7.8363.20387 10.1519-.43531 4.79941-1.57243 9.44335-3.32618 13.58384-.91919 2.1702-2.67554 5.69302-3.21267 6.44391l-.47114.65865-.54114-1.13165c-1.45258-3.03768-4.33305-4.77885-9.28435-5.6121-2.03936-.34322-7.77024-.34155-10.60461.003-9.2878 1.12932-19.52038 3.93713-33.71793 9.25219-7.64114 2.86057-9.15482 3.34409-11.48708 3.66948-1.45193.20254-4.71366.28789-5.49611.1438v.00008c-2.60708-.48009-4.00557-1.5159-6.17339-4.5724-3.49464-4.92723-6.17567-11.26598-7.37347-17.4331-.73226-3.77021-.81468-4.69807-.81892-9.21888-.004-4.43063.0534-5.15662.68157-8.59999l.32388-1.7753 2.992958 1.015668m-.0043.0013c-.87961 3.49242-.740173 3.906503-.728163 9.358453.0119 5.4097.10556 6.4425.86997 9.59506.56762 2.34101.75054 2.70804 1.69677 3.40447.99571.73285 3.86018 2.21009 5.71793 2.94878 3.71454 1.47701 10.1019 2.78718 13.04121 2.67497l1.08113-.0412.30598-1.21629c.46347-1.84235 3.07842-13.61924 4.6961-21.14973 1.6074-7.48268 2.31819-10.55016 2.48281-10.71478.1638-.1638.60178.95586 1.15164 2.94412 1.21775 4.40325 2.02131 8.88371 2.25408 12.56821.31794 5.03254.18936 15.47157-.21473 17.43409-.0537.26074.004.26961 1.5264.23283.87021-.0212 1.77545-.0689 2.01162-.10644l.00007-.00017c.50968-.0809.49557-.031.78151-2.76243.61121-5.83864 1.56995-19.2568 2.30295-32.23138.22584-3.99749.60678-13.35257.60808-14.93319.00079-1.00344.0407-2.32813.0886-2.94376l.0871-1.11934.33088.3085c.4553.42447 1.70474 2.17265 2.84561 3.9815 3.95945 6.27764 6.28942 11.69213 7.9917 18.5715 1.38652 5.60327 1.62956 7.94888 1.62956 15.72715 0 5.94297-.0303 6.33656-.82632 10.72457-.30114 1.66002-.51584 3.04991-.47713 3.08862.0746.0746 4.92527-.42241 5.00613-.51293.0994-.11133.65179-12.44211 1.2282-27.41937.51058-13.26656.48336-12.78769.70985-12.48686.10621.14108.55642.97722 1.00047 1.85807 4.352685 8.63438 7.417075 19.08979 8.363415 28.53512.0819.81762.19443 2.90129.25004 4.63042.0637 1.98065.1563 3.19908.25028 3.29306.1088.1088 1.20373.0698 4.04568-.14422 5.71133-.43 11.41378-.92642 11.48735-1 .12979-.12977 1.10214-4.27037 1.44924-6.17127.45128-2.47155.61262-4.25699.61669-6.82453.007-4.10726-.39026-7.84717-1.15562-10.8925-1.36746-5.4411-3.75696-10.64305-6.95128-15.133-.72321-1.01657-1.03151-1.660955-1.5959-2.021066l2.64409-.888374" fill="#15337a"/><path d="m133.16259 52.01538c1.43149-1.50103 2.82839-3.81421 3.215-5.32384.11696-.4567.21206-1.3689.21134-2.0271-.002-2.01131-.58584-2.85888-3.98763-5.7911-6.35292-5.47595-11.35241-8.88664-14.06017-9.59191-1.52409-.39698-4.7941-.19995-6.92468.41725-1.86936.54152-3.33034 1.3799-5.29803 3.04024-1.40426 1.18494-2.89193 2.23642-3.84715 2.71918-.84812.42865-2.23165.62484-4.50221.63841-1.33508.008-1.86158.24144-2.04649.90731-.31422 1.1316.0165 2.84406.80423 4.16462.56828.95264 2.92619 3.36503 4.32637 4.42632.56037.42474 1.50298 1.04834 2.0947 1.38579 2.02678 1.1558 6.3355 2.67258 8.10791 2.85416.74467.0763.88071.0562.95663-.14168.29902-.77925-5.13755-4.68252-10.00967-7.18662l-2.15613-1.10815.53442-.14264c2.96477-.79126 7.2415-1.32164 9.4538-1.17239 3.43953.23201 7.91205 1.66775 13.24392 4.25146 3.66541 1.77614 6.00374 3.24077 7.54474 4.72567 1.04719 1.00906 1.30707 1.53508 1.30707 2.64556 0 .75949.0341.88382.24215.88382.13318 0 .48863-.25847.78988-.57436zm-13.52847.8543c-2.85371-3.25496-7.07427-7.32186-9.53167-9.06571-1.0899-.77343-1.89199-1.47151-1.89199-1.64666 0-.35023 1.97591.10916 5.74354 1.33535 3.41811 1.11244 6.15717 2.27528 10.62315 4.51001 3.96731 1.98517 5.4708 2.98685 5.80584 3.86805.21818.57385.1338 1.69415-.21128 2.80516-.18326.58989-.31026 1.09542-.28226 1.12342.15429.15431 4.84367-3.91805 6.32517-5.49291 1.13322-1.20459 2.4364-3.07551 2.74894-3.94649.36526-1.01791-.0128-4.29506-.61633-5.34281-.96023-1.66693-4.95284-6.3199-8.95128-10.43176-1.46902-1.51069-2.70881-2.89742-2.75501-3.08168-.0515-.20526.032-.63304.21565-1.10485 1.20396-3.09261 1.21932-3.25781.37511-4.03386-1.28437-1.18065-7.84679-5.62086-11.02842-7.46194-7.90729-4.57565-16.59249-7.57531-28.73712-9.9251-3.91107-.75675-3.89436-.7573-2.23158.0754 1.61284.80766 1.8476 1.12201.92202 1.23457-.32033.0389-1.98115.10547-3.6907.14777-7.57822.18769-14.09396 1.45981-21.15089 4.12951-2.86329 1.0832-10.24054 4.39409-10.10123 4.5334.0197.0197.94764-.0865 2.06217-.23601 2.29928-.30837 6.17446-.40812 6.41894-.16524.2355.23398-.42687.70901-2.52458 1.81055-2.30679 1.21131-3.78847 2.18072-6.88786 4.50641-4.1943 3.14724-7.51823 6.00787-12.87261 11.07834-3.33501 3.15817-4.33835 4.24103-4.33835 4.68225 0 .48509 1.86237 1.0844 3.36973 1.0844.61633 0 1.39715-.10692 1.96346-.26887 1.52651-.43654 1.51255-.36505-.5235 2.67954-1.90571 2.84972-3.77655 6.8109-4.28204 9.0665-.56599 2.52558-.71388 6.84721-.31925 9.3294.44725 2.81318 1.40125 5.54654 3.39149 9.71708l.99081 2.07624 1.43707 2.80228.99668 1.67238.25339-1.61326.38008-1.67238.0996-.24821c1.99359-7.88873 5.49638-14.26281 11.49077-20.9048l1.58554-1.75683-1.12387-.0398c-1.31336-.0465-3.52055.25199-5.31893.71927-2.80301.72826-5.21601 1.99268-7.14965 3.74639-.55319.50171-1.04948.91221-1.10278.91221-.43084 0 1.03677-7.31669 2.12215-10.57987.82363-2.47621 2.63101-6.42062 4.34786-9.48873 3.57886-6.39558 9.51235-12.42105 16.16964-16.42028 3.35389-2.0148 8.84203-4.38639 12.54131-5.41951 1.1335-.31655 2.06091-.61763 2.06091-.66913 0-.21362-1.08823-.30184-6.5206-.52856-.0557-.002-.10135-.0627-.10135-.13417 0-.18362.70721-.35229 3.10826-.74128 4.08939-.66252 5.97818-.80492 10.67622-.80492 3.26274 0 4.92229.0598 6.45394.23228 9.63594 1.08556 18.52968 4.11308 28.34513 9.64901 4.18298 2.35921 7.63553 4.56036 7.63553 4.86796 0 .26866-.661.8472-1.29146 1.13036-1.89771.85232-7.39876.87971-10.61137.0528-1.56716-.40338-2.38165-.90064-4.44936-2.7165-1.07776-.94647-2.40298-2.01104-2.94494-2.36569-2.0559-1.34538-4.32095-1.89876-8.7649-2.14138-2.38083-.13-5.07678-.16219-4.16935-.0498 4.69987.58214 5.70552.85474 6.63328 1.79814.6931.70477 1.13739 1.39752 1.13739 1.77342 0 .31522-.51936.93255-.78455.93255-.13875 0 .0455.23606.4828.61862.38895.34026.71015.72033.71315.84463.003.12433.1324-.0138.28692-.30689.18552-.35192.2868-.81095.2981-1.35141.0119-.56722.0704-.81852.19061-.81852.19389 0 1.91315 1.29715 1.91815 1.44709.002.0526-.2695.2554-.60267.45066-.71311.41791-1.28623 1.05524-1.28623 1.43031 0 .43527.36128 1.00521.96444 1.52149.65714.56251 1.2551.71498 1.93013.49221.53151-.17542 1.42997-1.12896 1.42997-1.51765 0-.23125-.023-.234-.32153-.0384-.27611.18086-.33208.18314-.39618.0161-.15278-.39814.0581-.76118.44224-.76118.5564 0 3.2486 1.81409 3.2486 2.18901 0 .0899-.1841.1139-.49061.0642-.5886-.0955-1.02005.10565-1.66439.776l-.46572.48453h.47934c.59656 0 1.33053.24672 1.33053.44725 0 .33597-2.96904 2.84398-4.41528 3.7297-.8489.51988-2.01843.7724-4.09867.88498-8.10687.4387-12.11526 1.03571-18.31175 2.72732-3.26852.89228-11.68038 3.75227-11.51695 3.9157.0258.0258 1.35061-.2191 2.94397-.5443 3.84509-.78473 6.33725-1.06442 9.51898-1.06442 4.69737-.002 7.1179.6264 8.8748 2.30219.90798.86609 1.56541 2.02282 1.29544 2.27936-.0934.0887-2.38253.62154-5.08705 1.18404-2.70453.5625-4.94768 1.05309-4.98478 1.09019-.0938.0938.20764.52559 1.1489 1.64597.44449.52906 1.13173 1.42534 1.52719 1.99176.39546.56639.81844 1.06143.93994 1.09993.1215.0386.59955-.0838 1.06233-.27178 2.57077-1.04461 4.96551-1.05561 10.15642-.0467 2.42952.47217 13.79516 2.94972 15.43956 3.3656 1.4751.37306 2.36305.63646 2.93236 1.01304l.4226-.0125 1.46923-.33446z" fill="#d70c18"/><path d="m111.93332 49.480309c-.97152-.0677-1.94305-.13537-3.00994-.3486s-2.22909-.57199-3.77312-1.33699c-1.54402-.76501-3.46975-1.93622-4.97322-3.11872-1.503467-1.18251-2.584577-2.37624-3.254657-3.33914-.67009-.96289-.929101-1.69489-1.069874-2.43255s-.163296-1.48093-.05067-1.96519c.112621-.48426.360374-.70949.765814-.77143.40542-.0619.9685.0394 1.6386.0845.67007.045 1.44713.0338 2.196047-.062.74891-.0957 1.46966-.27592 2.22984-.67009.76019-.39417 1.55976-1.0023 2.31995-1.64423.76018-.64193 1.48091-1.31763 2.32557-1.95393.84463-.6363 1.81314-1.23316 2.74787-1.65548.93475-.42233 1.83567-.67008 2.838-.86153 1.0023-.19146 2.10595-.3266 3.01816-.34349.91222-.0169 1.63296.0845 2.43256.29281.7996.20835 1.678.52368 2.56769.99668.8897.473 1.79063 1.10365 2.79857 1.81879 1.00795.71513 2.12285 1.5147 3.40671 2.52828s2.73661 2.2411 4.00358 3.33914c1.26697 1.09803 2.34808 2.06653 3.15331 2.78166.80522.71513 1.33452 1.17686 1.6949 1.70054s.55183 1.10928.55746 1.93704c.006.82776-.17456 1.89761-.51242 2.81546-.33786.91784-.83337 1.68363-1.40773 2.46634s-1.22753 1.58228-1.6739 2.07964c-.44636.49736-.68589.69248-.92542.88761.0916-.42604.18315-.85208.18514-1.31197.002-.45988-.0856-.95359-.27075-1.36569-.18515-.41211-.46785-.74259-1.5887-1.53694-1.12086-.79435-3.07979-2.05253-4.776-3.07981-1.6962-1.02728-3.12956-1.82359-4.40371-2.41288-1.27414-.58929-2.38898-.97152-3.58137-1.41004-1.19238-.43853-2.46223-.93332-3.78416-1.25392-1.32192-.3206-2.69584-.46699-4.06979-.52892-1.37396-.0619-2.74788-.0394-4.12747.15206-1.37958.19146-2.76476.55183-3.80086.78833-1.03609.2365-1.72305.34911-2.410017.46173.54057.25902 1.081127.51805 1.891997.94037.81086.42233 1.89197 1.00793 3.0435 1.6752 1.15154.66727 2.37343 1.41617 3.37574 2.10878s1.78499 1.32889 2.46053 1.91094c.67553.58206 1.24388 1.10985 1.81224 1.63766z" fill="#f9f9f9"/><path d="m100.68514 25.960649c.20704-.0239.62113-.0717.94962-.0259s.57136.18514.79235.35237c.22098.16723.42006.36233.65698.49373.23691.1314.51163.19908.9098.24089.39818.0418.91976.0577 1.20246.12743.2827.0697.3265.19312.12144.32252-.20506.12941-.65896.26478-1.17857.34442-.51962.0796-1.10491.10354-1.56878.0219-.46386-.0816-.80628-.26876-1.12481-.49373-.31854-.22496-.61318-.48775-.77045-.72068s-.17717-.43599-.18712-.53752c-.01-.10153-.01-.10158.19708-.12547z" fill="#d50c1a"/><path d="m116.79891 32.289489c.13936-.0697.46187-.0936.65299-.17123.19112-.0776.25085-.20904.3305-.31855.0797-.10952.17916-.19708.26676-.1911.0876.006.16324.10551.4778.30858.31455.20306.86799.50964 1.17458.78438.30659.27473.36631.51761.32451.6291-.0418.1115-.18515.0916-.56341-.01-.37827-.10153-.99143-.28468-1.48317-.42006s-.86203-.22297-1.06907-.32451c-.20705-.10153-.25084-.21699-.11149-.28668z" fill="#d50c1a"/><path d="m33.203958 68.532559h-22.942684c-.222421.0742-.4448428.14836-.8502748.58666s-.993853 1.24069-1.559765 2.44431c-.565913 1.20363-1.109285 2.80841-1.465442 4.11197-.356156 1.30357-.5250815 2.30586-.6714861 3.27438-.1464047.96853-.2702818 1.90324-.3265912 3.09701-.056309 1.19377-.045048 2.64652-.00563 3.91349.039417 1.26696.1069869 2.34808.304072 3.75583.1970851 1.40774.5236733 3.14203.9234723 4.58356.3998 1.44152.872789 2.59021 1.369566 3.4748s1.01732 1.50505 1.401028 1.87301c.383708.367971.6305688.483431.8276608.541171.197092.0577.344411.0577.491732.0577h25.502534c-.06371-.278711-.127414-.557431-.286683-1.106901-.159268-.54948-.41409-1.36969-.664937-2.28946-.250847-.91978-.497705-1.93906-.748552-3.19728s-.505667-2.75529-.696788-4.14889c-.191121-1.39359-.318532-2.68362-.418074-4.18074-.09954-1.49713-.171211-3.20124-.191119-4.58289-.01991-1.38165.01194-2.44075.0876-3.5397.07565-1.09895.1951-2.23768.342422-3.25301.147323-1.01533.322514-1.90721.501691-2.72744.179176-.82023.362328-1.56876.433997-2.00675.07167-.43798.03185-.56539-.213023-.62711-.244876-.0617-.694795-.0578-1.144723-.0538z" fill="#15337a"/><path d="m131.89188 68.532559h22.94269c.22242.0742.44484.14836.85027.58666.40544.4383.99386 1.24069 1.55977 2.44431.56591 1.20363 1.10928 2.80841 1.46544 4.11197.35616 1.30357.52508 2.30586.67149 3.27438.1464.96853.27028 1.90324.32659 3.09701.0563 1.19377.045 2.64652.006 3.91349-.0394 1.26696-.10699 2.34808-.30407 3.75583-.19709 1.40774-.52368 3.14203-.92348 4.58356-.3998 1.44152-.87279 2.59021-1.36956 3.4748-.49678.88459-1.01732 1.50505-1.40103 1.87301-.38371.367971-.63057.483431-.82766.541171-.19709.0577-.34441.0577-.49173.0577h-25.50254c.0637-.278711.12742-.557431.28669-1.106901.15926-.54948.41409-1.36969.66493-2.28946.25085-.91978.49771-1.93906.74855-3.19728.25085-1.25822.50567-2.75529.69679-4.14889.19112-1.39359.31853-2.68362.41808-4.18074.0995-1.49713.17121-3.20124.19112-4.58289.0199-1.38165-.0119-2.44075-.0876-3.5397-.0756-1.09895-.1951-2.23768-.34243-3.25301-.14732-1.01533-.32251-1.90721-.50169-2.72744-.17917-.82023-.36233-1.56876-.43399-2.00675-.0717-.43798-.0319-.56539.21302-.62711.24487-.0617.69479-.0578 1.14472-.0538z" fill="#15337a"/><path d="m147.0393 93.322229c-.94842-.0233-1.47639-.063-1.52809-.11467-.0183-.0183.20549-.13536.32871-.17198.19676-.0585.40542-.16401.40542-.20505 0-.15134-.75308-.17843-6.0476-.21778-6.19086-.046-7.09402-.0847-7.45294-.31993-.13021-.0853-.15686-.20241-.15306-.67233.009-1.12242.41134-3.452.70226-4.06694.0757-.16007.11102-.19574.2607-.26347.2433-.1101.60983-.1778 1.20525-.22265.86017-.0648 1.98526.054 2.33766.24678.28122.15385.37557.51181.37847 1.43578.002.59989.004.61574.0829.70007.0445.0475.12816.10141.18582.11988.15146.0485.63862.10353.91693.10353.21968 0 .24721-.008.33252-.0971.13997-.14611.23036-.48064.49831-1.84423l.24272-1.23523.25657.0175c.1411.01.97872.0403 1.86137.0682.88265.028 1.72896.0596 1.8807.0703l.27588.0193.0133 1.23881c.0145 1.35115.0261 1.43991.20614 1.57345.086.0638.14131.0708.55746.0708.75175 0 .82448-.0663 1.15242-1.05026.2658-.79754.41885-1.12342.56701-1.2074.0598-.0339.25744-.0941.43921-.13375.29551-.0645.43782-.0723 1.34407-.0736.84924 0 1.06238.008 1.31469.0599.30478.062.51392.14611.58942.23707.14134.17031.18346.71541.12168 1.57477-.0556.77285-.0313 1.14747.0912 1.40811.12753.27131.36053.38021.6851.3202.31331-.0579.41193-.11599.5032-.29638.30303-.59886.66101-2.11939.76774-3.26099.0221-.23593.0304-.46752.0186-.51462-.0292-.11644-.16329-.17811-.51634-.23754-.61874-.10414-1.66284-.12457-7.86609-.15399-3.43767-.0164-6.5924-.0456-7.01049-.065-1.10007-.0512-1.66199-.11062-1.89867-.20073-.35897-.13671-.31109-.78304.31438-4.24403.37866-2.09523.49547-2.85215.53445-3.46302.0569-.89107-.0661-1.21251-.50414-1.3176-.095-.0228-.16752-.0466-.16116-.053.0299-.0299 1.83241-.0852 3.75916-.11538 3.25318-.051 3.79151-.10938 3.82823-.41545.0223-.18539-.38988-.489-.679-.50025-.0603-.003-.0551-.009.0266-.0331.19469-.058 2.07351-.10515 3.64884-.0915 1.40366.0122 1.60948.0206 1.77374.0737.24076.0776.34608.18076.41816.40944.0945.29969.21845.37888.71439.45628.13643.0214 1.2108.0494 2.55007.0667 3.23597.0418 4.2555.11896 4.62072.34952.61007.3851.86413 1.16782.75282 2.31928-.0442.45718-.25731 1.71892-.39004 2.30926-.14603.64945-.35165.98253-.70198 1.13713-.39251.17322-.46646.1784-2.76117.19362-2.76943.0182-3.5553-.0268-3.81352-.21929-.17882-.13327-.22414-.26329-.22083-.63341.003-.37955.0687-.67032.21561-.9602.20738-.40913.43049-.49779 1.45375-.57775 1.06205-.083 1.25079-.17573 1.24957-.6142-.001-.41865-.17782-.50136-1.2101-.56652-.69339-.0438-4.40015-.14513-4.42429-.12097-.0103.0103.097.36451.2384.78724.31993.95644.40928 1.37284.41141 1.91725.001.34007-.009.42706-.0659.53964-.1505.29917-.35154.32758-2.22792.31473l-1.41713-.01-.1453-.55748c-.4163-1.59716-.45612-2.04753-.22558-2.55109.10771-.23526.0902-.3347-.0682-.38698-.15298-.0505-1.20298-.0497-1.43971 0-.64089.13748-.87259.51795-.97585 1.60248-.0421.44233-.12307 2.17265-.1026 2.19313.008.008 1.98312.031 4.38947.0514 9.00052.0764 11.2678.12959 12.37384.29038.40386.0587.51576.11115.54456.25514.0619.30951-.0116 1.21721-.19941 2.46099-.26154 1.73252-1.12599 6.46409-1.23184 6.74248-.0611.16063-.31613.22516-1.14883.2907-.56678.0446-6.26964.067-7.75377.0305z" fill="#f9f9f9" stroke-width=".056313"/><path d="m25.579078 93.366179h2.548262c.302607.008.605212.0159.826198-.0737s.360338-.27672.643039-1.60065c.282702-1.32392.708733-3.78454 1.134771-6.24521.0438-.36233.0876-.72466.06968-.99343-.01792-.26876-.09755-.44394-.252836-.55344-.155288-.1095-.38622-.15329-1.043205-.17519s-1.739974-.0219-2.822986-.0219c-5.124397 0-10.248793 0-15.37319 0-.280241.0318-.560486.0637-.738613.16968-.178128.10601-.254145.2862-.461084 1.43422-.20694 1.14803-.544788 3.2638-.882643 5.37962-.08032.42547-.160639.85093-.271474 1.16819-.110836.31725-.252185.52629-.490093.6756s-.572359.23889-.858039.3235c-.28568.0846-.522595.16425-.759504.24388 0 .0518 0 .10353.916777.12941.916777.0259 2.750332.0259 4.583886.0259.267263-.0165.53453-.0329.734324-.0968.199793-.0638.332118-.17505.438402-.44041.106285-.26536.186524-.68486.268174-1.06355.08165-.37868.164702-.71652.231381-.91775.06668-.20122.116955-.26578.285444-.29807.168488-.0323.455161-.0323.741841-.0323h9.305141c.204521-.007.409043-.0144.53383.0172s.169824.10197.171233.19347c.0014.0915-.04082.20412-.150629.27521-.109807.0711-.287168.10066-.427943.11545-.140776.0148-.244948.0148-.34912.0148-.722165 0-1.44433 0-2.166495 0-.170335.004-.340658.008-.486971.0919-.146313.0835-.268585.24619-.332708.39374-.06412.14755-.0701.27994-.05616.51984s.04778.58729.15031.8252c.10253.2379.273728.3663.450425.43549.176697.0692.358833.0792.910806.0821.551972.003 1.473709-.001 2.395463-.005.02489.001.04977.002.06221.002.01244.0005.01244.0004.522095.0004z" fill="#f9f9f9"/><path d="m19.750653 85.795779h5.642181c.129106.013.258215.0261.362576.0734.10436.0473.184007.12896.214866.22851.03086.0995.01294.21699-.08063.28269s-.262788.0796-.755525.0866c-.492738.007-1.308961.007-2.125201.007h-7.632843c-.181166 0-.362331 0-.485773-.0259s-.189118-.0776-.214004-.16025c-.02489-.0826-.009-.1961.06171-.28221.07067-.0861.196091-.14483.43849-.1737.2424-.0289.601722-.0279.961067-.0269z" fill="#103675"/><path d="m19.463974 87.838371h5.642181c.129106.013.258215.0261.362576.0734.10436.0473.184007.12896.214866.22851.03086.0995.01294.21699-.08063.28269s-.262788.0796-.755525.0866c-.492738.007-1.308961.007-2.125201.007h-7.632843c-.181166 0-.362331 0-.485773-.0259s-.189118-.0776-.214004-.16025c-.02489-.0826-.009-.1961.06171-.28221.07067-.0861.196091-.14483.43849-.1737.2424-.0289.601722-.0279.961067-.0269z" fill="#103675"/><path d="m9.3066496 76.076168h10.3682444c0-.0398 0-.0796-.135379-.15129-.135378-.0717-.406125-.17521-.493362-.22797-.08724-.0528.009-.0548-.08501-.0853-.09404-.0306-.378405-.0897-.519184-.13615-.14078-.0465-.137979-.0803-.0071-.0971.130912-.0169.38993-.0169.648952-.0169h4.75531c.152035.0451.304072.0901.36038.18864.05631.0985.01689.25057-.02252.40261h7.382131c.315331.006.630665.0113.850271.11122.219606.1.343487.29422.420911.54479.07742.25058.108394.55746.0915.81508-.01689.25762-.08165.46595-.204119.6377-.122474.17174-.30266.30688-.712317.37446-.409657.0676-1.048753.0676-1.687862.0676h-5.685512c-.306588-.0106-.613176-.0213-.774439.0123-.161262.0335-.177178.11112-.134384.16587.0428.0548.144334.0866.330484.10255.186151.0159.456898.0159.72765.0159h5.644004c.2389.0139.4778.0279.670914.0687s.340426.10849.456893.23989c.116466.1314.202067.32649.189124.51761-.01294.19113-.124424.37826-.283695.49572s-.366317.16524-.611187.18913c-.24487.0239-.527563.0239-.810261.0239h-6.384592c-.08959.0259-.179193.0517-.226962.1234-.04777.0717-.05374.18912-.005.25582.04877.0667.15229.0826.40414.0906s.651997.008 1.052154.008h5.550442c.391349.004.7827.009 1.0924.0844.309701.0754.537748.22183.709494.39921s.287173.38571.337853.61236.0366.47159-.04082.68838c-.07743.21679-.218195.40542-.415284.52367-.197089.11826-.450464.16612-.958664.19005-.508199.0239-1.271175.0239-4.739875.0239-3.468701 0-9.642865 0-15.817153 0-.361786.001-.7235744.003-.9600664-.0354-.236493-.038-.347713-.11547-.460333-.25836-.112621-.14289-.226645-.35123-.278731-.59829-.05209-.24705-.04223-.53282-.0035-.77565.03871-.24284.106282-.44273.218903-.59336s.270281-.25198.541273-.30266c.270993-.0507.6552964-.0507 1.0396064-.0507h8.086605c.05773-.0509.11547-.10179.127412-.16108.01194-.0593-.0219-.12698-.155287-.16481-.133388-.0378-.366308-.0458-.87796-.0498s-1.301995-.004-2.092355-.004h-3.726834c-.26279-.01-.525578-.0199-.699778-.0797-.1742-.0597-.259801-.16922-.307581-.35736-.04778-.18813-.05773-.4549-.02089-.63508s.120437-.27373.237894-.33943c.117458-.0657.268775-.10353.647033-.12244.378258-.0189.983459-.0189 1.588671-.0189h5.267736c.141349-.004.2827-.008.382243-.0627.09954-.0547.157273-.16025.140358-.25281-.01692-.0926-.10851-.17222-.298636-.21203-.190126-.0398-.478791-.0398-.767461-.0398-1.971228 0-3.942456 0-5.139232-.004-1.196777-.004-1.619088-.0107-1.890775-.0445-.271686-.0338-.392763-.0944-.461162-.26301-.0684-.16865-.08413-.4454-.09797-.65346s-.02578-.34742-.07355-.45691-.131397-.18913-.224972-.25284c-.09357-.0637-.197104-.1115-.3709124-.13538-.173808-.0239-.417906-.0239-.662009-.0239z" fill="#f9f9f9"/></g></svg>