<?xml version="1.0" encoding="UTF-8"?>
<svg width="299.66814" height="333.70247" version="1.1" viewBox="0 0 101.92004 113.40515" xmlns="http://www.w3.org/2000/svg">
 <path d="m75.003772 48.22166 7.693784-3.336806-2.486283 6.338243z" fill="#fff"/>
 <path d="m2.8854774 35.542405 20.198342 16.831953 36.54938-13.225103 19.344986-15.050372 11.646947-3.145525 6.716119 0.170028 3.230539-11.051845-24.73913-5.1008514-11.731957-3.1455253-47.692963 10.54176 5.100851 6.631108-13.262214 11.56193z" fill="#e8a32d"/>
 <path d="m58.374851 9.6579809 15.637196 3.1259341-15.637196 4.86998z" fill="#fff" stroke-width="33.6709" style="paint-order:stroke fill markers"/>
 <g stroke-width="4.14729">
  <path d="m92.876713 29.134477c0-0.0035-0.01659-0.0282-0.02074-0.0552-0.02488-0.11177 0.02074-0.473949 0.109488-0.879849 0.02074-0.09033 0.05184-0.238179 0.07133-0.328548 0.197826-0.910415 0.26045-1.802535 0.175016-2.486573-0.01659-0.142667-0.06221-0.362432-0.08875-0.43783-0.09663-0.278781-0.48009-0.556845-1.481082-1.074896-0.269988-0.139764-0.540268-0.272353-2.144981-1.052347-0.37533-0.182315-0.680654-0.332821-0.679078-0.334397 0-0.0012 0.106171 1e-3 0.231834 0.0058 0.126078 0.0046 0.692764 0.02488 1.259617 0.04471 1.141667 0.03981 1.303785 0.04666 1.728219 0.07245 0.910663 0.05553 1.823524 0.153824 2.29532 0.247221 0.109489 0.02157 0.303582 0.0749 0.632297 0.173025l0.474782 0.141837v0.643578c0 0.353971 0 0.700287-0.01244 0.769601-0.06677 0.911335-0.384869 1.817751-0.964827 2.744941-0.331369 0.529888-0.785871 1.093953-1.23718 1.535101-0.208194 0.203466-0.321 0.290476-0.35252 0.27115z" fill="#fff"/>
  <path d="m67.455973 33.871493-4.32112 1.577657c-8.82415 4.960724-17.648059 9.921366-23.477533 12.150286-5.829474 2.228879-8.663915 1.725876-11.49863 1.222933l-5.623766-0.685533-1.165806 0.06842-2.881633-2.331611c2.377477 2.743267 4.755167 5.486456 6.058204 7.841122 1.303038 2.354666 1.531668 4.320687 0.068421 5.623767-1.463123 1.303037-4.617712 1.943013-6.743738 2.605958-2.126025 0.662986-3.223251 1.34898-3.817598 3.017809-0.594307 1.66887-0.685929 4.320515-0.823039 6.355135-0.137275 2.034578-0.320537 3.452162-1.623492 3.955104-1.303079 0.5029-3.7258481 0.091218-5.2803358 0.479608-1.554529 0.3886-2.2402984 1.577494-2.6517926 3.520666-0.4114113 1.943171-0.5485984 4.640961 0.1600906 6.378385 0.7087306 1.737426 2.2628431 2.514561 3.06298 3.428997 0.8001368 0.914436 0.8462419 1.965733 0.6861979 2.948724-0.1600854 0.983032-0.5261108 1.897579-1.1890554 2.857719-0.6629444 0.960139-1.6230511 1.965695-2.1031001 3.22307-0.4800904 1.257335-0.4796856 2.766421 0.9605442 3.452251 1.4401882 0.68579 4.3201147 0.54865 6.0575392 1.21164 1.737383 0.66299 2.33175 2.126 2.926139 3.58908l11.659385-0.68619 1.097385 5.07507 9.601456-1.09672 1.645414-3.15532 9.875802 1.23489 1.097385-3.84084 9.601456-2.19477 2.331611 4.66388 11.247533-0.41118 1.508573 5.7606 19.614763-3.97769-0.548693-30.312935-8.641576-3.017809-0.959879-11.933067-11.52188-1.783583 4.800728-5.07441 3.566501-4.389541-2.768705-0.769232-1.309289-2.861704-2.981939-0.218547-2.691649-2.836462-3.003859-10.665627zm-3.886683 20.322218 6.461419 5.7812-10.457044-0.34011 3.995625-5.44109z" fill="#e8a32d"/>
  <path d="m70.97858 110.41354c0-2.29926-0.0535-2.99252-0.23059-2.99252-0.230589 0-11.288149 1.91787-12.057016 2.09127l-0.408094 0.0921v-2.81464c0-2.79818-0.0024-2.81461-0.408094-2.81382-0.609943 1e-3 -7.200617 1.19965-7.334741 1.33377-0.06387 0.0639 0.0041 0.93103 0.155109 1.92721l0.270819 1.81133-5.545805 0.0477-5.545763 0.0481-0.09083 0.89553-0.09083 0.89557-4.896877 0.86794c-4.182672 0.74137-5.247324 0.86865-7.299945 0.87276l-2.403108 4e-3v-2.72046c0-2.06092-0.05475-2.71806-0.226857-2.71035-0.124834 4e-3 -3.083224 0.5231-6.5745 1.15009s-6.409023 1.10729-6.48384 1.06735c-0.07465-0.0415-0.136031-1.2512-0.136031-2.69172 0-1.44048-0.02074-2.61694-0.04521-2.61429-0.02488 3e-3 -2.248912 0.39565-4.9422069 0.87379l-4.8968774 0.86895-0.047694-6.070483c-0.024884-3.338738-0.024884-6.095321 0.00829-6.125721 0.029031-0.02903 0.8884336-0.193678 1.9068019-0.362888l1.8515352-0.307609v-2.98991l-1.5869625-0.29114c-0.8727983-0.160086-1.7297539-0.29114-1.9043136-0.290725-0.2977757 3.31e-4 -0.317268-0.53496-0.317268-8.705173 0-4.788052 0.020736-8.703389 0.045206-8.700735 0.024884 0.0026 2.2489538 0.395652 4.9422073 0.873794l4.896877 0.868982 0.09083-7.08557 0.09083-7.085571 4.683914-0.09083 4.683872-0.09083-1.237927-0.610109c-3.176255-1.565305-8.623645-4.986948-12.34663-7.75506-1.1221751-0.834395-2.0403448-1.55001-2.0403448-1.590239 0-0.04147 0.9129856 0.286993 2.0288568 0.727021 2.7178471 1.071827 8.4399121 2.932469 12.11765 3.940262 3.516243 0.963541 5.458877 1.417089 5.078239 1.185587-0.149718-0.09083-1.426919-0.847956-2.838451-1.682184-7.036425-4.158493-13.517569-9.254938-18.098132-14.23146-1.4503091-1.575682-3.5005245-4.009771-3.787227-4.496373-0.07216294-0.12276 0.38403953-0.695253 1.100858-1.38107 1.9735734-1.888421 7.6681415-7.045077 11.562286-10.470179 1.98473-1.745646 3.896882-3.431493 4.249277-3.74633l0.640758-0.572431-0.928787-1.067825c-1.325683-1.524201-2.444582-3.183011-3.301164-4.894169l-0.743154-1.484524 1.03898-0.304495c2.517367-0.737737 12.804194-3.2471285 18.450073-4.5007563 18.254734-4.0533382 29.59937-6.0654814 36.093288-6.4016944l2.17791-0.11276495 0.995973 0.63622826c3.525284 2.2519564 6.806458 3.3034823 12.335259 3.9531188 9.562377 1.1235935 13.93346 2.2694829 16.809152 4.4065551 1.88959 1.4042364 1.87748 0.773906 0.14972 7.8000584-1.550012 6.302699-1.817637 7.014466-2.637557 7.014466-0.218562 0-0.364547 0.278159-0.527536 1.006528-0.675345 3.017858-2.994803 5.913512-5.883311 7.34481-0.861974 0.427142-1.613132 0.730745-1.669204 0.674673-0.05599-0.05607 0.109074-0.865242 0.367036-1.798155 0.576142-2.083734 0.814238-4.872699 0.44036-5.158099-0.138105-0.105507-1.439941-0.703062-2.892739-1.327931l-2.641495-1.13613-2.164681 0.848424c-3.004839 1.177699-6.236205 2.89324-9.301678 4.938313-2.924216 1.950822-2.990614 2.03874-3.666333 4.854691-0.654817 2.728962-0.3604 5.72841 0.800967 8.156278 1.043045 2.180665 3.281506 4.811377 4.094002 4.811377 0.984195 0 6.092502-2.161155 8.350496-3.532832 0.578175-0.351276 1.091776-0.638576 1.141377-0.638576 0.13852 0-0.371182 2.30807-0.801215 3.627324-0.457779 1.404192-1.115872 2.772053-1.722662 3.580609l-0.441314 0.588128 1.051049 0.456037c0.578091 0.250911 1.196868 0.517167 1.375119 0.59186 0.300264 0.125663 0.29114 0.180408-0.124005 0.743154-0.246349 0.333857-1.044869 1.068053-1.774337 1.631214-1.70458 1.315937-4.105864 3.622414-4.849847 4.658408l-0.580953 0.808888h9.09083v13.360429l4.670186 0.813119 4.670144 0.813118 0.04645 17.339137 0.04604 17.33918-0.499666 0.10451c-1.104134 0.23059-23.181721 4.09624-23.394726 4.09624-0.175016 0-0.228931-0.70317-0.228931-2.99252zm-37.225292-2.72593 1.858983-0.32183v-13.002893h1.26957c0.69828 0 1.272805 0.06138 1.276745 0.136031 0.0039 0.07465 0.353764 2.421232 0.777369 5.21427l0.770236 5.078242 3.183173 0.0493 3.183174 0.0494-0.419002-2.76989c-0.230589-1.52347-0.639886-4.259359-0.909875-6.079814l-0.490832-3.309915h-8.640558v-1.626735l10.42854-0.09622 0.05184-1.768324 0.05184-1.768282h-10.532346v-6.891892h-6.166406v6.891892h-10.5192v3.627307h10.5192v17.368963l1.224198-0.22852c0.673314-0.12566 2.060791-0.37367 3.083224-0.55076zm44.825003 0.17087c1.453793-0.25838 2.705405-0.50784 2.781342-0.55479 0.146399-0.0904 0.198655-30.896103 0.05267-30.896103-0.128152 0-5.187603-0.886733-5.763372-1.010115l-0.498754-0.107001v33.037349h0.392749c0.215659 0 1.581986-0.21109 3.035779-0.46947zm9.539318-1.66937 2.720501-0.49096 0.04645-13.682881c0.02488-7.525599-0.01659-13.743888-0.09083-13.818456-0.07548-0.07465-1.320582-0.345055-2.766992-0.601441-1.446369-0.256303-2.813401-0.507421-3.037853-0.558226l-0.408093-0.09248v29.750864l0.408093-8e-3c0.224369-4e-3 1.632293-0.22852 3.128554-0.49876zm-66.833206-2.59563c2.344134-0.41183 4.276027-0.75983 4.293073-0.77359 0.03732-0.029 1.511606-9.749715 1.511025-9.953389-2.07e-4 -0.07465-1.42866-0.136031-3.174298-0.136031s-3.173884 0.06885-3.173884 0.153035c0 0.591114-1.098867 7.181665-1.214701 7.285305-0.08004 0.0718-0.793212 0.23142-1.584806 0.35459-0.791594 0.12318-1.546526 0.26543-1.677622 0.31561-0.175016 0.0672-0.23847 0.57332-0.23847 1.90017v1.80863l0.498754-0.10285c0.274136-0.0568 2.416712-0.43986 4.760846-0.8516zm46.066869 0.10949c2.54362-0.44878 4.64522-0.81602 4.670145-0.81606 0.02488-5e-5 0.04521-5.548298 0.04521-12.329457v-12.329411l-0.408094-0.09124c-0.587838-0.13147-5.625889-1.003895-5.796426-1.003895-0.0788 0-0.143082 5.212694-0.143082 11.583769v11.583814l-1.133538 0.21192c-0.623463 0.11654-1.357991 0.25589-1.632293 0.31022l-0.498753 0.0983v1.79926c0 0.98959 0.06138 1.79918 0.136031 1.79914 0.07465-4e-5 2.217185-0.36703 4.760846-0.81606zm-56.314006-3.714153c2.294284-0.400214 4.355033-0.77036 4.579485-0.822575l0.408094-0.09497v-9.925392l-1.768324-0.312292c-0.972541-0.171698-2.339614-0.417881-3.037852-0.547028-0.69828-0.128981-1.3307844-0.197411-1.4056016-0.151791-0.074651 0.04562-0.1360312 1.953625-0.1360312 4.240112v4.157248l-0.4080939 0.08709c-0.2243687 0.04769-0.897765 0.175015-1.4962612 0.28243-2.1237884 0.381966-1.904355 0.128981-1.904355 2.194251v1.82461l0.4987538-0.10203c0.2741362-0.056 2.3759024-0.42949 4.6701861-0.829708zm45.704106-0.150547 5.803683-1.032345v-1.813653c0-1.103678-0.07092-1.804613-0.181237-1.79047-0.09954 0.01244-0.48739 0.07755-0.861476 0.144325l-0.680115 0.121101v-9.427548l1.722952-0.11032 0.05184-1.768324 0.05184-1.768282h-1.826801v-2.073482c0-1.818133-0.03732-2.085052-0.317268-2.167252-0.369524-0.109074-5.599056-1.018866-5.856727-1.018866-0.102853 0-0.173772 1.074938-0.173772 2.6298v2.6298h-3.821815l0.05184 1.768282 0.05184 1.768324 1.858984 0.05184 1.858983 0.05184v10.499583l-0.408094 0.08709c-0.224368 0.04769-0.897765 0.175016-1.496261 0.282431-2.123249 0.381551-1.904355 0.131055-1.904355 2.17986 0 0.995596 0.06138 1.805436 0.136031 1.799676 0.07465-4e-3 2.747666-0.47507 5.939715-1.042836zm-40.784709-15.760924c-0.045205-0.044791-2.149709-0.442641-4.677029-0.883664-2.5273203-0.440982-4.7788039-0.844058-5.003214-0.895692-0.4018729-0.092484-0.4080939-0.067601-0.4080939 1.706405v1.800341l1.6776224 0.300264c0.9227317 0.165062 3.1875285 0.565732 5.0329085 0.890424l3.355286 0.590326 0.05226-1.713206c0.02903-0.942224 0.01659-1.749993-0.02903-1.795032zm11.85691 0.128566v-1.813654h-8.886907v1.692719c0 0.931026 0.05433 1.747172 0.121101 1.813653 0.06636 0.06636 2.066058 0.121101 4.443453 0.121101h4.32256zm18.27912-0.04521 0.05184-1.768282h-9.081416v1.692719c0 0.931026 0.05599 1.748582 0.124005 1.816805 0.06843 0.06843 2.088163 0.102438 4.488783 0.07548l4.364738-0.04852zm-30.106667-3.535942-0.05184-1.76766-4.806218-0.853679c-2.6434036-0.469512-4.9111446-0.857491-5.039462-0.862136-0.1779189-0.008295-0.2210508 0.409338-0.1812368 1.759822l0.051841 1.768323 4.6248148 0.840242c2.543661 0.462133 4.811402 0.849823 5.039462 0.861476 0.408508 0.02074 0.4139-0.0041 0.362888-1.746384zm9.25303-0.81681 0.05516-0.861476h14.469499l0.11032 1.722952h6.166447v-5.259599l-13.557093-0.04645-13.557052-0.04645v2.600727c0 1.430403 0.0564 2.657048 0.125248 2.725852 0.06884 0.06884 1.476686 0.102853 3.128554 0.07548l3.00343-0.04935zm-4.136014-9.264601v-2.599442l-1.496261-0.441148-1.496262-0.441147-0.05599-0.768121c-0.05433-0.747882-0.04147-0.768079 0.498754-0.768079 0.43588 0 0.554535 0.07838 0.554535 0.367036 0 0.377818 0.338004 0.57075 1.405559 0.802957l0.589455 0.128152v-2.930686h-5.078238v4.663965l1.541591 0.414315 1.541633 0.414315v0.971752c0 0.958772-0.0083 0.971712-0.544084 0.971712-0.495809 0-0.544125-0.0535-0.544125-0.604925 0-0.578672-0.04313-0.616993-0.997508-0.882586l-0.997507-0.277454v3.578784h5.078238zm5.988113 2.138014c0.507173-1.334019 0.509662-1.329582-0.777286-1.38893l-1.171942-0.05391 1.245142-3.066635c0.684802-1.686663 1.245143-3.339319 1.245143-3.672637v-0.606044h-4.534155v1.632292h2.135732l-1.249248 3.015789c-1.15863 2.797226-1.491201 4.117766-1.128313 4.480654 0.06636 0.06636 1.007088 0.121101 2.090195 0.121101 1.942801 0 1.971666-0.0041 2.144732-0.461386zm6.415742-0.267916c0.1605-0.401043 0.291555-0.809096 0.291555-0.906806 0-0.09788-0.530108-0.177919-1.178869-0.177919h-1.178869v-7.435972h-2.357737v4.503921c0 2.477138 0.05433 4.558293 0.121101 4.624815 0.06636 0.06636 0.996222 0.121101 2.066017 0.121101h1.945081zm6.464596-0.102023c0.195752-0.457157 0.356253-0.86525 0.356253-0.906848 0-0.04147-0.57129-0.07548-1.26957-0.07548h-1.269529v-2.176376h2.176376v-1.632292h-2.176376v-1.995015h2.357738v-1.632289h-4.534155v9.249629h4.002927zm7.248186-3.793656v-4.624814h-5.259599v9.249629h5.259599zm-3.264584-0.09082v-2.901863h1.088208v5.803684h-1.088208zm6.854691 2.846786 0.0535-1.200642 1.578833-0.05226 1.578793-0.05226 0.04977-3.037893 0.04977-3.037853h-5.268351v9.227566l0.952178-0.323074 0.952177-0.323074zm0.03732-4.116356v-1.632293h1.088209v3.264585h-1.088209zm6.855604 4.290916c0.05309-1.003314 0.06636-1.026331 0.589455-1.026331h0.535042v2.698396l0.952136-0.323489 0.952178-0.323489 0.04852-4.290253 0.04852-4.290211h-5.266141v4.503921c0 2.477138 0.04728 4.551159 0.104927 4.608889 0.05765 0.05765 0.526996-0.03732 1.042837-0.213171l0.937869-0.318097zm0.03733-4.290916v-1.632293h1.088209v3.264585h-1.088209zm5.887583 5.609299c0.740998-0.277454 1.004309-0.467441 1.004309-0.725486 0-0.192434 0.04272-0.349617 0.09456-0.349617 0.05226 0 0.745808 0.327222 1.541591 0.727519l1.446908 0.727477v-2.105416l-0.952177-0.479884-0.952178-0.479883 1.904355-0.02488v-6.166447h-5.2596v4.624814c0 2.543661 0.03733 4.624815 0.08378 4.624815 0.04603 0 0.53583-0.16921 1.088209-0.375745zm1.004309-5.609299v-1.632293h1.088209v3.264585h-1.088209zm9.444968 5.454896 0.530148-0.530149v-3.468881c0-3.60823-0.131469-4.341845-0.824275-4.607811-0.161329-0.06179-1.225484-0.112806-2.364456-0.112806h-2.070868v9.249629h2.099651c2.078831 0 2.104918-0.0041 2.6298-0.530148zm-2.734437-4.185326v-2.901863h1.088209v5.803684h-1.088209zm10.065776 2.091232v-2.533541l-1.541591-0.473829-1.541632-0.47387-0.05557-0.755927c-0.05433-0.73432-0.04147-0.755928 0.498754-0.755928 0.43588 0 0.554493 0.07838 0.554493 0.367036 0 0.390675 0.409753 0.611353 1.522265 0.820003l0.654152 0.12276v-2.942216h-5.259599v4.631824l1.541591 0.425388 1.541591 0.425347v0.976729c0 0.964329-0.0083 0.976688-0.544084 0.976688-0.495809 0-0.544083-0.0535-0.544083-0.604924 0-0.578672-0.04313-0.616993-0.997508-0.882586l-0.997507-0.277454v3.588737l2.584428-0.05018 2.58447-0.05018zm-27.373807-8.937796c0.887936-4.027189 3.143816-7.297995 6.822881-9.892543 0.579792-0.408923 1.054118-0.801631 1.054118-0.872798 0-0.271648-3.106034-0.379063-4.930636-0.170454-6.200829 0.709022-12.258907 3.156175-16.371116 6.61307l-0.535457 0.450106 0.807478 0.345055c0.444134 0.189946 1.682516 0.653157 2.752021 1.02969l1.944542 0.684677 1.030769-0.942058c1.247631-1.140258 2.675835-2.124867 4.188602-2.887596 0.620601-0.313121 1.16427-0.568926 1.208107-0.568926 0.04396 0-0.272477 0.525172-0.702801 1.167008-0.803289 1.197904-1.42107 2.623496-1.637974 3.779761l-0.12276 0.654817 0.970384 0.274966c1.609649 0.455912 2.952252 0.800179 3.18869 0.817639 0.12276 0.0083 0.272892-0.208194 0.333442-0.482289zm15.040954-2.137598c-0.09995-0.03733-1.601022-0.315195-3.336167-0.616496-1.735146-0.301508-3.187611-0.580663-3.227716-0.620767-0.04147-0.04147 0.236811-0.128981 0.615708-0.197826 0.378648-0.06885 1.248377-0.250082 1.932556-0.403532l1.244023-0.278698-0.881259-0.901995c-0.484694-0.496141-1.100111-1.017249-1.367529-1.15805-0.47304-0.248837-0.508831-0.230174-1.314236 0.690442-0.699359 0.799474-2.098863 3.116278-2.098863 3.474563 0 0.06013 1.938321 0.103267 4.307422 0.09497 2.369101-0.0083 4.225803-0.04521 4.126061-0.08295zm4.828737-3.451048c0.334272-0.172942 1.507998-1.01617 2.608649-1.874204 1.100651-0.858075 2.200596-1.690562 2.444374-1.849984l0.443222-0.289896-0.66448-0.124833c-1.397887-0.262109-5.862368-2.44367-6.234919-3.046479-0.06138-0.09954-0.379892 0.08046-0.713169 0.403532l-0.601938 0.583441-0.936999-0.975734c-2.465359-2.567259-3.871915-6.346332-4.14348-11.132269l-0.123589-2.176376-0.335516 1.778816c-0.262524 1.392164-0.315195 2.298804-0.242202 4.171391 0.133128 3.410752 0.515343 4.63155 2.991319 9.556587 0.02488 0.04977-0.852269 0.06304-1.949684 0.02903-1.355005-0.04147-1.995264 0.0019-1.995264 0.136031 0 0.108659 0.07258 0.197411 0.160915 0.197411 0.08834 0 1.047482 0.838127 2.131046 1.862509 2.291339 2.166215 2.906051 2.629427 3.936073 2.966145 0.928373 0.303582 2.413892 0.204047 3.225518-0.215659zm6.090801-6.878289c0.550553-0.687912 1.526039-2.488833 1.410578-2.604252-0.03733-0.03733-0.522601 0.18331-1.074025 0.494357-0.551383 0.311047-1.576387 0.75908-2.277778 0.995268-0.971462 0.327222-1.218807 0.476193-1.038482 0.625827 0.263768 0.218977 2.144317 1.117074 2.344922 1.119853 0.0705 9.95e-4 0.356253-0.282846 0.634785-0.631053zm-47.676103-7.619303c8.863641-5.219993 10.123755-6.015112 9.857291-6.219906-0.167965-0.128981-1.062993-0.659627-1.988794-1.178868-2.016663-1.131084-2.261022-0.767457 2.37893-3.539999 9.572289-5.719833 16.99968-8.996014 25.569402-11.278524 2.230374-0.594062 7.086484-1.636601 7.559566-1.622956 0.149717 0.0041-0.666512 0.387191-1.813654 0.850846-2.914138 1.177844-9.038864 4.260541-12.060791 6.070458-4.709419 2.820597-8.819098 5.73043-12.876854 9.11736-2.220088 1.853041-8.317193 7.762936-7.164037 6.944094 0.349202-0.248008 1.818174-1.294122 3.264585-2.324849 7.036342-5.014362 14.971818-9.738795 19.95019-11.877505 1.840238-0.790557 4.352794-1.735577 4.352794-1.637157 0 0.03857-0.550927 0.462535-1.224241 0.942054-5.23119 3.725511-12.933049 10.62931-15.459747 13.857772l-0.633126 0.808971 0.633126-0.472957c12.67318-9.467429 19.297862-13.680235 26.29634-16.722575 5.633976-2.44916 11.108862-3.629285 15.219743-3.280651 0.955869 0.08108 1.819543 0.150962 1.919327 0.155316 0.32971 0.01452 0.992033-1.609544 1.106913-2.714284l0.113221-1.086467-1.635693-0.38827c-1.869352-0.44374-3.766283-1.314029-4.473812-2.052538l-0.484238-0.505456 3.140291-0.08863c2.905678-0.08203 4.137839-0.272602 4.137839-0.640036 0-0.187292-2.987048-1.163714-5.35026-1.748947-4.059331-1.005259-7.237486-1.0670994-11.290306-0.219683-1.222083 0.255515-2.772798 0.511839-3.445946 0.569565-2.697774 0.231336-2.703704 0.255308-0.226442 0.912563 3.285487 0.871653 3.359931 0.906611 2.261603 1.061529-1.512809 0.213378-3.385147 0.77768-5.363863 1.616616-1.49174 0.632454-2.472161 0.90044-4.69648 1.283691-14.114656 2.431991-29.045333 8.844704-40.802625 17.524682-1.051629 0.776399-2.062532 1.577822-2.246382 1.780998-0.365377 0.403532-0.484694 0.304826 3.012222 2.48394 0.473663 0.295287 0.86131 0.590823 0.861518 0.65718 1.65e-4 0.06636-2.142078 2.215692-4.760515 4.776415-2.618477 2.560664-4.544606 4.546763-4.28034 4.41351 0.264183-0.133128 5.053811-2.935539 10.643411-6.227305zm-23.819534-7.117629c7.8775797-4.720481 18.254776-9.807711 22.307969-10.936078l1.088209-0.302918-2.901862-0.10136c-2.064358-0.07212-3.342181-0.211719-4.427528-0.483682l-1.525666-0.38234-0.736559 0.503034c-2.196781 1.500363-9.715454 7.247162-12.032465 9.19688-2.6338227 2.216277-5.0302543 4.379216-4.6739187 4.218467 0.099535-0.04479 1.4055598-0.8154 2.901821-1.712003zm85.233843-6.252583c1.059219-1.237482 1.638554-2.597787 1.639467-3.849569l7.88e-4 -1.07823-0.816146-0.245354c-0.448862-0.134953-1.877108-0.282763-3.173884-0.328508l-2.357737-0.08315 2.014009 0.978857c1.536946 0.746999 2.041175 1.080213 2.128558 1.406746 0.183311 0.68396 0.133128 1.797616-0.131469 2.921662-0.134787 0.573571-0.180822 1.042854-0.102024 1.042854 0.0788 0 0.438204-0.344392 0.798479-0.765288zm-56.704558-8.042372c0.668088-0.155897 1.701428-0.506431 2.296358-0.778925l1.081697-0.495448-1.286532 0.0727c-2.037981 0.11517-4.201749-0.676747-5.068658-1.855052-0.221466-0.300762-0.791221-0.618834-1.611888-0.899544-1.187703-0.406269-1.239793-0.446075-0.808018-0.617727 0.656268-0.260907 3.909324-0.918775 6.056461-1.224842 3.756537-0.535474 9.649512-0.516852 12.695327 0.04023 0.419001 0.0766 0.06885-0.236769-1.424305-1.275003-1.197864-0.832875-1.878393-1.411643-1.722994-1.465346 0.952716-0.329212 7.660178-1.488186 11.138805-1.9246271 6.072885-0.7619286 10.853181-0.6560648 13.646053 0.3022134l1.313158 0.4505707 2.254967-0.380805c2.421067-0.4088402 4.29328-0.8820466 5.456514-1.3790917l0.725445-0.3100103-0.500828-0.1391417c-0.27538-0.0765176-1.540471-0.2321241-2.811161-0.34576-4.444822-0.3974768-6.681583-1.1069339-9.600739-3.0451308l-0.970841-0.6446141-2.94263 0.4072644c-12.973113 1.7955383-27.370697 4.9560509-39.89586 8.7578182-1.670821 0.507148-3.037852 0.983838-3.037852 1.059315 0 0.07548 0.428457 0.525043 0.952136 0.999042 4.383649 3.967655 9.646525 5.723284 14.065385 4.692017zm30.730131-5.825868c2.8669-0.671745 5.152102-1.274111 5.078238-1.338589-0.131054-0.114424-7.115307-1.261122-7.666897-1.258787-0.153035 6.47e-4 -0.811584 0.75611-1.463705 1.678808-1.424264 2.015088-1.494478 2.129807-1.306854 2.135484 0.08087 0.0024 2.492358-0.54517 5.359218-1.216916z" fill="#cc2321"/>
 </g>
</svg>
