<?xml version="1.0" encoding="UTF-8" standalone="no"?>
<svg xmlns:rdf="http://www.w3.org/1999/02/22-rdf-syntax-ns#" xmlns="http://www.w3.org/2000/svg" height="187.79715" width="368.65048" version="1.1" xmlns:cc="http://creativecommons.org/ns#" xmlns:dc="http://purl.org/dc/elements/1.1/" viewBox="0 0 368.65048 187.79715"><path d="M283.71474,97.084C412.66855,87.49852,388.418-34.4095,253.97508,73.48893c-1.2289-15.23851-.73736-21.79269,1.88434-44.97817-19.33488,2.94939-40.06251,15.23851-58.16849,33.67218C189.82588,25.56136,195.88851,4.26022,196.62587,0,180.732,3.68675,139.93208,17.94213,118.549,73.7347l-5.16143,2.21206C90.03827,63.41185,66.19739,61.69138,40.8818,67.34437c14.00958,17.94211,29.0023,46.12515,29.24809,66.03352l-68.0817,3.19517L64.4769,142.3899l-23.5951,5.73494,24.08665,6.39033-53.33475,4.1783,54.64559,5.653L39.489,171.47415l23.5951,6.14456L0,183.2717l76.60215,3.441,1.4747-11.71563-11.79756-4.1783,17.45057-1.96626,2.294-16.71318-16.46741-3.68676,13.27224-2.94939c2.9494-20.15414-3.441-41.45527-19.6626-68.57325A96.259,96.259,0,0,1,113.4695,90.6937l20.23609-7.61925s19.171-46.45287,45.224-61.60946c0,24.49631,2.70358,45.9613,5.4072,53.25284l16.87706,9.33975s12.28912-17.94211,36.86735-31.46015c0,0-.98313,23.34933,2.45783,33.67218L257.66181,94.872s40.22639-55.71067,89.95637-56.52995C378.50482,37.76856,345.89769,87.41659,283.71474,97.084Z" fill="#5b4099"/><polygon points="275.03 107.079 274.457 111.585 276.177 111.585 274.785 122.891 272.9 122.809 272.327 127.315 281.421 127.397 281.994 122.891 280.028 122.809 280.765 117.812 286.091 127.397 292.563 127.397 294.693 111.585 296.495 111.585 297.069 107.079 288.303 107.079 287.729 111.585 289.532 111.585 288.958 116.583 284.042 107.079 275.03 107.079" fill="#5b4099"/><path d="M210.47161,120.92491l.08192-1.22891h-3.85058l-.9012,7.61924h3.76865l.16387-.90121c.73734.57351,1.31083,1.22895,4.26022,1.147s9.2578-1.31083,9.66742-8.02888c.16387-4.42408-3.60481-5.16144-4.01443-5.40722-.40964-.16384-5.0795-.81924-5.0795-2.37588,0-.81928.98313-1.31085,2.212-1.2289s2.94939,1.147,2.94939,2.294l-.08193.57349h3.60481l.90119-6.8h-3.68673l-.08193.73732a7.904,7.904,0,0,0-4.42409-1.065c-.90118,0-4.34214.24577-6.22646,2.62165a8.11513,8.11513,0,0,0-2.04819,5.57109c0,1.22888.49155,3.60479,3.68671,4.83371s5.07953,1.065,4.99758,2.37586-1.2289,1.55665-2.29395,1.55665C212.92944,123.13694,211.0451,122.56343,210.47161,120.92491Z" fill="#5b4099"/><polygon points="109.865 186.876 111.339 174.833 107.325 174.751 108.882 162.298 117.648 174.751 113.961 174.833 112.486 186.876 142.062 186.876 143.619 174.833 140.997 174.833 127.233 156.891 141.243 144.93 145.585 145.012 147.06 133.132 119.286 133.132 117.812 144.93 123.137 145.093 109.783 155.662 111.094 144.93 115.108 144.93 116.665 133.132 88.318 133.132 86.843 144.93 91.267 145.012 87.499 174.833 83.156 174.833 81.518 186.795 109.865 186.876" fill="#5b4099"/><polygon points="155.826 144.93 151.975 174.833 147.06 174.915 145.503 186.795 174.751 186.876 176.226 174.915 171.802 174.833 175.571 144.93 180.077 145.012 181.551 133.132 152.385 133.132 150.91 144.93 155.826 144.93" fill="#5b4099"/><polygon points="186.303 133.132 184.828 144.93 189.416 144.93 185.648 174.833 180.978 174.833 179.503 186.795 202.689 186.795 204.163 174.833 199.166 174.833 200.886 161.397 214.568 186.876 231.281 186.876 236.606 144.93 241.276 144.93 242.915 133.132 220.303 133.132 218.746 144.93 223.498 144.93 221.86 158.202 209.325 133.214 186.303 133.132" fill="#5b4099"/><path d="M294.20145,132.88633l-2.6217,21.05533H279.04486c.65544-7.04577-3.03132-9.91324-6.39033-10.07708-3.359-.24578-9.2578,5.32527-10.97829,14.91081-1.63854,9.42165-1.88432,16.79511,4.58792,16.79511,6.55422,0,7.45543-5.48915,7.45543-5.48915h-5.32528L269.869,158.12h23.677c-.57347,13.68191-6.22646,29.00231-29.24807,29.65774-16.71323.57347-25.64331-11.63368-24.7421-22.69391.81926-11.0602,6.39033-33.50832,30.64088-33.01676,8.19275.16387,11.63369,3.93251,11.63369,3.93251l.32769-3.0313Z" fill="#5b4099"/><path d="M305.50745,170.32719l.32768-3.11324h-9.91319L293.546,187.1223l9.91326-.08193.24577-2.45784c2.13009,1.47471,3.52288,3.1952,11.14214,3.11328,7.61925-.24581,24.08667-3.441,24.824-20.8915.49154-11.38793-9.25785-13.3542-10.48671-13.92767-.90125-.40964-13.19034-2.294-13.19034-6.06265,0-2.294,2.62167-3.27707,5.81684-3.27707,3.19516.0819,7.61927,2.94935,7.61927,5.89875l-.16389,1.47469H338.77l2.13015-17.61437h-9.50357l-.16385,1.80237a20.86183,20.86183,0,0,0-11.5518-2.78554c-2.45785,0-11.22406.65543-16.13972,6.8-4.83371,6.22648-5.24335,11.46983-5.24335,14.58308.08192,3.03131,1.39275,9.25782,9.42165,12.37108,8.11082,3.1132,13.19032,2.70358,12.94455,6.14456s-3.27711,3.93248-6.06263,3.93248C312.06165,176.144,307.22792,174.66933,305.50745,170.32719Z" fill="#5b4099"/><polygon points="300.592 111.749 299.691 122.645 297.233 122.645 296.987 127.479 316.895 127.479 317.469 119.286 312.144 119.286 311.816 122.891 307.719 122.891 307.965 119.942 311.242 119.942 311.816 114.617 308.703 114.617 308.948 111.749 313.045 111.749 312.799 115.108 318.124 115.108 318.862 106.997 298.953 106.997 298.626 111.831 300.592 111.749" fill="#5b4099"/><path d="M260.44736,111.749l-.8193,10.8144c2.04818,0,4.26024-1.47467,4.506-5.653C264.37986,112.81409,263.069,111.749,260.44736,111.749Zm2.3759-4.75178c8.0289,0,9.83127,7.4554,9.74935,9.33972-.49157,8.35661-7.865,11.14214-11.87948,11.14214H248.9775l.32772-4.83371h2.3759l.81927-10.81447h-1.88432l.24577-4.83368Z" fill="#5b4099"/><polygon points="248.404 111.831 248.732 106.997 239.884 106.997 239.556 111.831 240.703 111.749 238.409 114.535 236.77 111.831 238.081 111.831 238.409 106.997 226.447 106.997 226.202 111.831 227.185 111.831 232.346 119.204 232.1 122.645 229.643 122.645 229.315 127.479 242.259 127.479 242.587 122.645 240.375 122.645 240.703 119.204 247.093 111.749 248.404 111.831" fill="#5b4099"/><polygon points="343.276 111.831 343.604 106.997 334.674 106.997 334.346 111.831 335.493 111.749 333.281 114.535 331.642 111.831 332.871 111.831 333.199 106.997 321.319 106.997 320.992 111.831 322.057 111.831 327.218 119.204 326.972 122.645 324.433 122.645 324.105 127.479 337.131 127.479 337.377 122.645 335.247 122.645 335.493 119.204 341.965 111.749 343.276 111.831" fill="#5b4099"/><path d="M202.19694,90.366l-7.45541,5.24336-.9012-6.14456-8.76622,5.98069-5.40722-6.55418L173.85,93.31536l-6.55418-8.11082-7.78312,8.68429-7.78311-4.99754L147.63326,94.872l-6.71806-5.81689-1.147,6.96387-6.96384-4.66989,8.35661,30.96857c9.99514,8.35661,34.24566,11.22406,51.86007-.16385Z" fill="#5b4099"/><path d="M188.3512,119.53213a50.93767,50.93767,0,0,1-18.02405,4.83372l1.88434-18.18787,3.52288,4.91564,1.065-.73734L174.83318,121.908l1.88432-.32772,2.37588-12.86261,4.09637-3.27708,4.506,5.89876,4.7518-4.91563Zm-19.74452,4.83372a51.99008,51.99008,0,0,1-8.76624-.32768l6.8-1.4747.57347-23.18548.16387-.24577,2.7036,3.8506Zm-23.10354-5.07949-3.359-12.453,4.34214,4.26024,2.04819,7.947,1.47469.65541-2.21205-9.58549,1.80241-2.6217,2.45783,12.86263,4.09637,3.03129A32.74642,32.74642,0,0,1,145.50314,119.28636Zm13.10838-7.865,3.03134-4.26023-.16387,15.07465s-3.359-.32772-5.653-.81927l-2.04819-14.41924Zm29.24812-3.60479-4.1783-5.653-7.45541,5.653-8.84815-12.61686-9.17588,12.78067-7.12769-6.63611-4.506,6.63611-8.11082-7.94693,5.653,20.89148c11.79754,8.35661,33.67217,7.78312,46.45286-.16385L196.544,98.8045Z" fill="#ffc528"/><path d="M340.16275,43.91312a30.92765,30.92765,0,1,1-30.88664-30.96857A30.9264,30.9264,0,0,1,340.16275,43.91312Z" fill="#5b4099"/><path d="M281.66656,38.66976a36.67733,36.67733,0,0,0-.49157,5.24336,27.71225,27.71225,0,0,0,1.4747,9.012,91.79959,91.79959,0,0,1,11.71563-8.35659C291.17015,40.39023,286.58221,37.85048,281.66656,38.66976Z" fill="#ffc528"/><path d="M324.26885,19.90837a18.04726,18.04726,0,0,0-3.8506,13.10838v.16387A88.29926,88.29926,0,0,1,334.182,30.477,27.91006,27.91006,0,0,0,324.26885,19.90837Z" fill="#ffc528"/><path d="M295.10265,19.58068a28.33113,28.33113,0,0,0-12.53491,15.64815,14.52294,14.52294,0,0,1,8.11085,1.80239A19.17511,19.17511,0,0,1,297.15084,42.93c2.212-1.22891,4.506-2.45781,6.96384-3.52287Z" fill="#ffc528"/><path d="M316.56765,34.40954c-.082-.49158-.16385-.9012-.24582-1.39277a21.35236,21.35236,0,0,1,4.09638-15.07464,28.64332,28.64332,0,0,0-11.06018-2.212,27.52316,27.52316,0,0,0-11.63372,2.62167l9.012,19.9903A64.71779,64.71779,0,0,1,316.56765,34.40954Z" fill="#ffc528"/><path d="M284.534,44.48661a31.99919,31.99919,0,0,1,1.63852-5.57107,6.21,6.21,0,0,0-1.31085-.24578A32.74669,32.74669,0,0,0,284.534,44.48661Z" fill="#fff"/><path d="M326.56281,27.85534a30.98731,30.98731,0,0,0-4.66989-4.09637c-.24577.57349-.40964,1.06506-.57351,1.55662A28.345,28.345,0,0,1,326.56281,27.85534Z" fill="#fff"/><path d="M297.8882,25.8891l-1.80241-3.8506a20.87617,20.87617,0,0,0-10.56865,13.35418,10.55383,10.55383,0,0,1,2.04818.49156A22.44366,22.44366,0,0,1,297.8882,25.8891Z" fill="#fff"/><path d="M317.305,24.16861a20.38538,20.38538,0,0,1,.90116-2.3759,25.578,25.578,0,0,0-19.33484-.90121l1.80237,4.01443A30.34882,30.34882,0,0,1,317.305,24.16861Z" fill="#fff"/><path d="M284.534,44.48661a31.99919,31.99919,0,0,1,1.63852-5.57107,6.21,6.21,0,0,0-1.31085-.24578A32.74669,32.74669,0,0,0,284.534,44.48661Z" fill="#fff"/><path d="M326.56281,27.85534a30.98731,30.98731,0,0,0-4.66989-4.09637c-.24577.57349-.40964,1.06506-.57351,1.55662A28.345,28.345,0,0,1,326.56281,27.85534Z" fill="#fff"/><path d="M297.8882,25.8891l-1.80241-3.8506a20.87617,20.87617,0,0,0-10.56865,13.35418,10.55383,10.55383,0,0,1,2.04818.49156A22.44366,22.44366,0,0,1,297.8882,25.8891Z" fill="#fff"/><path d="M317.305,24.16861a20.38538,20.38538,0,0,1,.90116-2.3759,25.578,25.578,0,0,0-19.33484-.90121l1.80237,4.01443A30.34882,30.34882,0,0,1,317.305,24.16861Z" fill="#fff"/><path d="M317.05923,68.3275a26.35786,26.35786,0,0,1-14.747.73732,5.63958,5.63958,0,0,1-.65542-.24577,20.432,20.432,0,0,0,3.11327-9.5855,69.14524,69.14524,0,0,0,7.37344-1.72049l-6.8-14.99272c-2.212,1.06506-4.34217,2.212-6.47226,3.359a23.71668,23.71668,0,0,1,2.70358,10.159,20.90512,20.90512,0,0,1-4.09637,13.518,28.50651,28.50651,0,0,0,20.5638,1.147Z" fill="#ffc528"/><path d="M298.29782,59.64319a23.55034,23.55034,0,0,0,.08192-3.441,19.96966,19.96966,0,0,0-2.212-8.60238A81.95314,81.95314,0,0,0,284.12437,56.448,28.167,28.167,0,0,0,294.693,67.99978c.40964-.57349.81931-1.147,1.22895-1.80239a58.53375,58.53375,0,0,1-10.97829-9.012A38.23862,38.23862,0,0,0,298.29782,59.64319Z" fill="#ffc528"/><path d="M333.6905,47.76372a17.58508,17.58508,0,0,1-3.76868-2.70362,16.08586,16.08586,0,0,0,2.45781-7.53731A34.18846,34.18846,0,0,1,333.6905,47.76372Zm1.80241-14.58308a80.96983,80.96983,0,0,0-14.41927,3.19517c2.13015,7.53731,8.27471,13.518,15.56625,14.99271a26.92763,26.92763,0,0,0-1.147-18.18788Z" fill="#ffc528"/><path d="M321.31945,66.607c-.9012-1.96628-2.78554-6.2265-4.83373-10.65057a35.78215,35.78215,0,0,0,9.17588-5.81686,25.04415,25.04415,0,0,1-8.27469-12.453c-2.94937.98313-5.98069,2.212-9.012,3.52289-.08192,0-.16385.08192-.24577.08192l12.86261,28.42881a28.1714,28.1714,0,0,0,14.50117-14.665,19.2906,19.2906,0,0,1-2.86751-.9012A23.02322,23.02322,0,0,1,321.31945,66.607Z" fill="#ffc528"/></svg>