<svg enable-background="new 0 0 1523.4 2000" height="362.284419" viewBox="0 0 1523.4 2000" width="276.026224" xmlns="http://www.w3.org/2000/svg"><path d="m1486.1 194c-109.7-10.1-219.6-17.9-329.6-23.4l-20.1-136.6c-1.2-8.2-8.3-14.3-16.5-14.3h-715.8c-8.3 0-15.3 6.1-16.5 14.2l-20.6 136.6c-110 5.5-220 13.3-329.8 23.4-10 .9-17.6 9.3-17.6 19.3v297.8c0 22.7 6 44.9 17.3 64.5l105.8 183.3-89.8 154.5 135-76.3 73.9 128c-15.5 70.3-22.7 143.9-22.7 198.9 0 6.3.1 12.6.3 18.8l-132.9-77.2 351.5 612.7-70.4 40.9 375.4 218.2 375.4-218.2-70.4-40.9 351.5-612.7-132.9 77.2c.2-6.2.3-12.5.3-18.8 0-55.8-7.4-130.6-23.3-201.7l73.3-127 135.2 78.1-90.4-155.8 105-181.9c11.3-19.6 17.3-41.9 17.3-64.5v-297.8c-.3-10-7.9-18.4-17.9-19.3zm-856.7 1516.8 47.3-27.5 62.1 35.9c14.8 8.6 33.1 8.6 47.9 0l62.1-35.9 47.3 27.5-133.4 232.6z" fill="#002a22"/><path d="m571.3 1423.4c30.8-54.5 53.8-124.8 64-200.3 39.8 12.5 82.4 19.3 127.5 19.3s87.7-6.8 127.5-19.3c10.2 75.4 33.2 145.7 64 200.3-54.9 22.8-114.1 36.5-178.3 38.2l-12.4-184.8h-1.6l-12.4 184.8c-64.3-1.7-123.4-15.4-178.3-38.2zm174.7 91.3-8.8 131.1-198.9-91.7-29.8-52c14.8-12.2 28.9-27.7 42-45.9 57.4 34.6 122.9 55.7 195.5 58.5zm229.2-58.5c13.1 18.2 27.2 33.7 42 45.9l-29.8 52-198.9 91.7-8.8-131.1c72.5-2.8 138-23.9 195.5-58.5zm-184.7-811.3c59.9 3.4 119.3 17.8 174.6 43.2-49.4 63-107.1 106.8-182.9 113.2zm-55.4 0 8.3 156.5c-75.8-6.4-133.6-50.2-183-113.3 55.4-25.5 114.8-39.9 174.7-43.2zm-231.9 74.2c64.6 75.9 140.4 129 242.9 134.2l15.8 298.6h1.6l15.8-298.6c102.4-5.2 178.2-58.2 242.8-134.1 17.4 11.1 34.2 23.4 50.3 36.9-92 54.6-188 260.9-188 381.8 0 8 .2 16.1.5 24l28.1-26.2c3.3-3.1 7.5-5.2 12-6.1l112-20.5c-81.1 48.6-171.4 78.3-274.3 78.3-102.8 0-193.2-29.7-274.3-78.3l112 20.5c4.5.8 8.7 2.9 12 6.1l28.1 26.2c.3-8 .5-16 .5-24 0-120.9-96.1-327.3-188.1-381.8 16.1-13.7 33-26 50.3-37z" fill="#008c46"/><path d="m1001.1 1169.7 35.1 20.3 35.1-60.8 145-83.8-142.7 247.2-142.7-82.4z" fill="#fff"/><path d="m524.6 1169.7-35.2 20.3-35.1-60.8-145-83.8 142.7 247.2 142.7-82.4z" fill="#fff"/><path d="m889.7 1660.8 123.7-71.8 142.5-248.4-30.9-18 185.4-107.8-297 517.9-.2-.1.1.1 45.4 26.4-216.3 125.8 108.2-188.7z" fill="#faaf3c"/><path d="m215.2 1214.8 185.4 107.8-30.9 18 142.5 248.4 123.7 71.8-60.9 35.4 108.2 188.7-216.3-125.8 45.4-26.4.1-.1-.2.1-228.6-398.7z" fill="#faaf3c"/><path d="m1523.4 511v-297.7c0-9.7-3.6-19.1-10.2-26.3s-15.5-11.7-25.2-12.6c-103.7-9.6-209.4-17.2-314.3-22.7l-17.8-120.7c-1.3-8.6-5.6-16.5-12.2-22.2s-15-8.8-23.8-8.8h-715.8c-8.7 0-17.1 3.1-23.7 8.8s-10.9 13.5-12.2 22.1l-18.2 120.8c-105 5.5-210.7 13.1-314.5 22.7-9.7.9-18.7 5.4-25.2 12.6-6.7 7.2-10.3 16.5-10.3 26.3v297.7c0 26.1 6.9 51.8 19.9 74.4l100.3 173.8-119.5 205.2 179.8-100.8 60.4 104.6c-14 66.1-20.2 131.4-21.3 180.3l-166.7-96.9 378.2 659.4-82.8 48.1 414.5 240.9 414.4-240.9-82.8-48.1 378.2-659.4-166.7 96.9c-1.1-49.6-7.5-116.1-21.9-183.2l59.8-103.6 178.7 97.4-118.1-202.4 98.9-171.4c13.2-22.5 20.1-48.2 20.1-74.3zm-1325.7 343 79.6-44.6-78.8-44.7 171.4-219 77.3 124.6c-20.8 16.7-40.3 35.1-58.2 54.7-29.1 6.4-55.4 26.4-78.4 59.4-20.2 29-37.8 68.1-52.4 116.3-3.9 13-7.5 26.1-10.8 39.3zm1079.9 83.3c-3.1-12.2-6.4-24.3-10-36.3-14.6-48.1-32.2-87.3-52.3-116.3-22.9-33.1-49.2-53.1-78.3-59.6-17.9-19.7-37.5-38.1-58.4-54.9l77.2-124.5 171.4 219-79.7 44.5 79.2 43.1zm11.7-129.4 67.4-37.4-202.8-259-101.3 163.4c27 20.2 52 43.1 74.2 68.3 112.2 16.1 159.7 279.5 159.7 420.7 0 6.3-.1 12.6-.3 18.8l132.9-77.2-351.5 612.7 70.4 40.9-375.4 218.2-375.4-218.2 70.4-40.9-351.5-612.7 132.9 77.2c-.2-6.2-.3-12.5-.3-18.8 0-141.2 47.6-405 160-420.7 22.3-25.1 47.1-48 74.1-68.1l-101.1-163.6-202.8 259 68.1 38.7-184.1 104.1 240.1-412.9c-7.7.5-15.3.9-23 1.4l-138.4 237.8-94.7-164c-11.3-19.6-17.3-41.9-17.3-64.5v-297.8c0-10 7.6-18.4 17.6-19.3 109.8-10.2 219.7-18 329.8-23.5l20.6-136.7c1.2-8.2 8.3-14.2 16.5-14.2h715.8c8.3 0 15.3 6.1 16.5 14.3l20.1 136.6c110 5.5 219.8 13.3 329.6 23.4 10 .9 17.6 9.3 17.6 19.3v297.8c0 22.7-6 44.9-17.3 64.5l-93.3 161.6-137.2-235.1c-7.8-.5-15.6-1-23.4-1.5l239.3 412.7z" fill="#37b44b"/><path d="m989.1 612.5c-68.9-34.9-144.2-53.3-219-53.3-2.4 0-4.9 0-7.3.1-2.6 0-5.3-.1-7.9-.1-74.5 0-149.6 18.4-218.4 53.4l-77.1-120.4c-7.6.3-15.2.6-22.7.9l93 145.3c70.4-39.1 150.6-61 233.1-59.5 82.7-1.4 162.8 20.5 233.1 59.4l92.9-145.2c-7.6-.3-15.1-.6-22.7-.9z" fill="#37b44b"/><path d="m786.8 1719.2c-14.8 8.6-33.1 8.6-47.9 0l-62.1-35.9-47.3 27.5 133.4 232.6 133.4-232.6-47.3-27.5zm-24 184.7-106.6-185.9 20.6-12 52.3 30.2c10.3 5.9 21.9 9.1 33.8 9.1 11.8 0 23.5-3.1 33.8-9l52.3-30.2 20.6 12z" fill="#37b44b"/><g fill="#fff"><path d="m1011.4 160.9c0-34 0-68 0-102.1 0-.7-.6-1.3-1.3-1.3-5.5 0-11 0-16.4 0-.7 0-1.3.6-1.3 1.3v101.4c0 .7.6 1.3 1.3 1.3 5.5.2 11 .4 16.4.5.7.1 1.3-.4 1.3-1.1z"/><path d="m445.2 163.6c0 .7.6 1.3 1.3 1.2 5.5-.2 11-.5 16.4-.7.7 0 1.3-.6 1.3-1.3 0-29.1 0-58.1 0-87.2 6.9 0 13.8-.1 20.7-.2.7 0 1.3-.6 1.3-1.3 0-5.1 0-10.3 0-15.4 0-.7-.6-1.3-1.3-1.3-6.9 0-13.8 0-20.7 0-3.2 0-6.4 0-9.5 0-10.1 0-20.2 0-30.2 0-.7 0-1.3.6-1.3 1.3v15.8c0 .7.6 1.3 1.3 1.3 6.9-.1 13.8-.1 20.7-.2z"/><path d="m895.8 159.1c5.5.1 11 .2 16.4.3.7 0 1.3-.5 1.3-1.2 0-26.8 0-53.6 0-80.3 5.9 26.8 11.7 53.8 17.6 80.8.1.7.7 1.1 1.5 1.2 10 .2 20 .5 29.9.8.7 0 1.3-.5 1.3-1.2 0-33.5 0-67.1 0-100.6 0-.7-.6-1.3-1.3-1.3-5.5 0-11 0-16.4 0-.7 0-1.3.6-1.3 1.2v80.4c-5.6-26.9-11.2-53.8-16.9-80.5-.1-.7-.7-1.1-1.5-1.1-10.2 0-20.4 0-30.7 0-.7 0-1.3.6-1.3 1.2v99.1c.1.6.7 1.2 1.4 1.2z"/><path d="m571.2 159.2c-5.3-33.4-10.6-66.8-16-100.5-.1-.7-.7-1.2-1.5-1.2-8.5 0-17.1 0-25.6 0-4.6 0-8.4 3.2-9.1 7.6-5 31.9-10 64-15 96.2-.1.7.4 1.3 1.1 1.2 5.5-.2 11.1-.4 16.6-.6.7 0 1.4-.6 1.5-1.3 1-6.6 2.1-13.2 3.1-19.8 7.1-2.7 14.2-5.3 21.3-7.9 1.4 8.9 2.9 17.9 4.3 26.8.1.7.7 1.2 1.5 1.2 5.5-.2 11.1-.3 16.6-.5.7.1 1.3-.5 1.2-1.2zm-41.8-37.8c2.7-17.2 5.5-34.4 8.2-51.5 2.7 17.1 5.4 34.2 8.1 51.2-5.4.1-10.8.2-16.3.3z"/><path d="m822 157c1-6.3 2.1-12.6 3.1-19 7.1-2.4 14.2-4.7 21.3-7 1.4 8.8 2.9 17.5 4.3 26.3.1.7.7 1.2 1.5 1.2 5.5.1 11.1.1 16.6.2.7 0 1.2-.6 1.1-1.2-5.3-33-10.7-65.9-16-98.7-.1-.7-.7-1.2-1.5-1.2-8.5 0-17.1 0-25.6 0-4.6 0-8.4 3.1-9.1 7.3-5 30.7-10 61.3-15 92-.1.6.4 1.2 1.1 1.2 5.6 0 11.1.1 16.7.1.7-.1 1.4-.6 1.5-1.2zm14.3-87.5c2.7 16.6 5.4 33.2 8.2 49.8-5.4 0-10.9-.1-16.3-.1 2.7-16.5 5.4-33.1 8.1-49.7z"/><path d="m1087.9 57.5c-8.5 0-17.1 0-25.6 0-4.6 0-8.4 3.3-9.1 7.7-5 32.4-10 64.5-15 96.6-.1.7.4 1.3 1.1 1.3 5.5.2 11.1.4 16.6.7.7 0 1.4-.5 1.5-1.2 1-6.6 2.1-13.3 3.1-20 7.1-2.3 14.2-4.6 21.3-7 1.4 9.4 2.9 18.7 4.3 28.1.1.7.7 1.3 1.5 1.3 5.5.2 11.1.5 16.6.8.7 0 1.2-.6 1.1-1.3-5.3-35.5-10.7-70.8-16-105.8-.1-.6-.7-1.2-1.4-1.2zm-24.3 65.4c2.7-17.5 5.4-35 8.2-52.6 2.7 17.6 5.4 35.3 8.2 53-5.6-.1-11-.3-16.4-.4z"/><path d="m702.3 156.9c0-25.3 0-50.6 0-75.9 5.5 25.3 10.9 50.6 16.4 75.9.1.6.7 1.1 1.5 1.1 7.4 0 14.8-.1 22.2-.1.7 0 1.3-.5 1.5-1.1 5.5-25.3 10.9-50.6 16.4-75.8v75.7c0 .7.6 1.2 1.3 1.2h16.4c.7 0 1.3-.5 1.3-1.2 0-32.7 0-65.3 0-98 0-.7-.6-1.2-1.3-1.2-9.8 0-19.6 0-29.5 0-.7 0-1.3.5-1.5 1.1-5.3 26.2-10.5 52.5-15.8 78.7-5.2-26.2-10.5-52.5-15.7-78.7-.1-.7-.7-1.1-1.5-1.1-9.8 0-19.6 0-29.5 0-.7 0-1.3.5-1.3 1.2v98.4c0 .7.6 1.2 1.3 1.2 5.5-.1 11-.1 16.4-.2.8.1 1.4-.5 1.4-1.2z"/><path d="m607 159.6c11.4-.2 22.9-.5 34.3-.7 8-.1 14.5-6.3 14.5-13.7 0-4.8 0-9.5 0-14.3 0-.2 0-.5 0-.7 0-4.1 0-8.2 0-12.4 0-3.1-1.8-5.9-4.6-7.4-13.1-5.8-26.3-11.6-39.4-17.5 0-6 0-12.1 0-18.1 8.3 0 16.7-.1 25-.1v16.7c3.4-.9 6.9-1.8 10.3-2.6 5.2-1.3 8.8-5.7 8.8-10.7 0-2.4 0-4.7 0-7.1 0-7.5-6.5-13.5-14.5-13.5-11.4 0-22.8 0-34.2 0-8 0-14.5 6.1-14.5 13.7v14.7 13.2c0 3.1 1.8 6 4.6 7.5 13.1 5.8 26.3 11.6 39.4 17.4v17.8c-8.4.1-16.7.3-25.1.4 0-6.2 0-12.4 0-18.6-3.4.9-6.9 1.8-10.3 2.7-5.2 1.4-8.8 5.9-8.8 10.9v9c0 7.6 6.5 13.6 14.5 13.4z"/><path d="m969.1 209.7c-17.5-.5-35.1-.9-52.6-1.2-1.3 0-2.5 1-2.7 2.3-8.1 62.2-16.1 124.5-24.2 186.7-8.1-62.5-16.1-125.1-24.2-187.6-.2-1.3-1.3-2.4-2.7-2.4-17.5-.3-35-.5-52.5-.6-1.3 0-2.4 1.1-2.4 2.4v234c0 1.3 1.1 2.4 2.4 2.4 10 .1 19.9.2 29.9.3 1.3 0 2.4-1 2.4-2.4 0-59.7 0-119.5 0-179.2 7.2 59.8 14.4 119.6 21.6 179.5.2 1.4 1.3 2.4 2.7 2.4 15.3.2 30.5.5 45.8.8 1.4 0 2.5-1 2.7-2.3 7.2-59.8 14.4-119.6 21.6-179.4v179.8c0 1.3 1.1 2.4 2.4 2.4 10 .2 19.9.5 29.9.8 1.3 0 2.4-1 2.4-2.3 0-78 0-156 0-234-.1-1.2-1.1-2.3-2.5-2.4z"/><path d="m391.8 215.7c-13.5.7-27.1 1.4-40.6 2.2-14.5.8-26.3 13.3-26.3 27.8v186.3c0 14.5 11.8 25.6 26.3 24.7 13.5-.8 27.1-1.5 40.6-2.2 14.5-.7 26.3-13 26.3-27.5 0-23.1 0-46.2 0-69.2-9 5.6-17.9 11.2-26.9 16.8-5.5 3.5-7.8 9.5-7.8 15.9v32.3c-8 .4-15.9.8-23.9 1.3 0-58.1 0-116.2 0-174.3 8-.4 15.9-.9 23.9-1.3v53.7c8.6-5.6 17.1-11.2 25.7-16.8 5.5-3.5 9-9.5 9-15.9 0-9.6 0-19.1 0-28.7-.1-14.6-11.8-25.8-26.3-25.1z"/><path d="m1441.1 307.6c5.8-2.9 9.3-8.8 9.3-15.5 0-9 0-18 0-27 0-14.5-11.7-27.4-26.2-28.7-14.3-1.3-28.6-2.6-42.9-3.8-14.5-1.2-26.2 9.6-26.2 24.1v83.5c0 6.8 3.6 13.4 9.5 17.3 17.1 11.3 34.2 22.6 51.3 34.1v82.9c-8.8-.8-17.6-1.6-26.4-2.3 0-22.6 0-45.1 0-67.7-8.4 4.3-16.9 8.6-25.3 13-5.8 3-9.3 8.9-9.3 15.6v42.2c0 14.5 11.7 27.2 26.2 28.4 14.4 1.2 28.7 2.5 43.1 3.8 14.5 1.3 26.2-9.3 26.2-23.8 0-33 0-66 0-99 0-6.8-3.6-13.5-9.5-17.4-17.1-11.5-34.2-22.9-51.2-34.2 0-22.5 0-44.9 0-67.4 8.7.8 17.5 1.5 26.2 2.3v52.5c8.3-4.3 16.8-8.6 25.2-12.9z"/><path d="m1073.2 213c-24.3-1-48.7-2-73.1-2.7-1.3 0-2.4 1-2.4 2.3v234c0 1.3 1.1 2.4 2.4 2.5 10 .3 19.9.7 29.9 1 1.3 0 2.4-1 2.4-2.3 0-26.7 0-53.4 0-80.1 16.1-5.3 32.1-10.5 48.2-15.6 11.3-3.6 18.9-14 18.9-26.1 0-28.5 0-57 0-85.6 0-14.5-11.8-26.8-26.3-27.4zm-8.4 108.4c-10.8 5.8-21.6 11.6-32.4 17.4 0-31.7 0-63.5 0-95.2 10.8.4 21.6.8 32.4 1.3z"/><path d="m779.3 206.4c-10 0-19.9 0-29.9 0-1.3 0-2.4 1.1-2.4 2.4v204.2c-8 0-15.9 0-23.9.1 0-68.1 0-136.1 0-204.2 0-1.3-1.1-2.4-2.4-2.4-10 .1-19.9.1-29.9.2-1.3 0-2.4 1.1-2.4 2.4v210.1c0 14.5 11.8 26.1 26.3 26.1 13.5-.1 27.1-.1 40.6-.1 14.5 0 26.3-11.7 26.3-26.2 0-70 0-140.1 0-210.1.1-1.4-1-2.5-2.3-2.5z"/><path d="m166.1 230.8c-9.9.8-19.9 1.6-29.8 2.5-1.3.1-2.4 1.3-2.4 2.6v236.3c-8.8.8-17.6 1.5-26.4 2.3 0-26.2 0-52.5 0-78.7-8.4 5.8-16.8 11.6-25.3 17.4-5.8 4-9.3 10.6-9.3 17.3v53.2c0 14.5 11.7 25.2 26.2 23.8 14.4-1.3 28.7-2.6 43.1-3.8 14.5-1.2 26.2-13.9 26.2-28.4 0-80.8 0-161.5 0-242.3.1-1.4-.9-2.3-2.3-2.2z"/><path d="m659.7 207.2c-10 .1-19.9.3-29.9.5-1.3 0-2.4 1.1-2.4 2.4v236.3c-8 .1-15.9.3-23.9.5 0-26.2 0-52.5 0-78.7-8.4 5.2-16.9 10.5-25.3 15.7-5.8 3.6-9.3 9.9-9.3 16.6v53.2c0 14.5 11.8 26 26.3 25.6 13.5-.3 27.1-.6 40.6-.8 14.5-.3 26.3-12.2 26.3-26.7 0-80.8 0-161.5 0-242.3 0-1.3-1.1-2.3-2.4-2.3z"/><path d="m512.6 328.9c11.8-38.9 23.6-77.8 35.4-116.7.4-1.4-.6-2.7-2-2.6-10.5.3-20.9.6-31.4 1-1.2 0-2.2.8-2.6 2-9.8 32.3-19.6 64.6-29.3 96.9-.5 1.5-1.9 2.6-3.4 2.7-.4 0-.9 0-1.3.1 0-32.6 0-65.3 0-97.9 0-1.3-1.1-2.3-2.4-2.3-10 .4-19.9.8-29.9 1.2-1.3.1-2.4 1.2-2.4 2.5v234c0 1.3 1.1 2.3 2.4 2.3 10-.4 19.9-.8 29.9-1.2 1.3-.1 2.4-1.2 2.4-2.5 0-33.4 0-66.9 0-100.3.5 0 1 0 1.5-.1 1.6-.1 2.9.9 3.4 2.3 10.7 32.4 21.3 64.8 32 97.2.4 1.1 1.4 1.8 2.6 1.8 10.5-.4 21.1-.7 31.6-1 1.4 0 2.4-1.5 2-2.8-12.9-38.9-25.7-77.8-38.5-116.6z"/><path d="m1202 219.6c-25.9-1.6-51.7-3-77.6-4.3-1.3-.1-2.4 1-2.4 2.3v29.8 174.3 29.8c0 1.3 1.1 2.4 2.4 2.5 10.7.5 21.5 1.1 32.2 1.7 15.1.8 30.2 1.7 45.4 2.6 1.3.1 2.4-.9 2.4-2.2 0-9.2 0-18.3 0-27.5 0-1.3-1.1-2.5-2.4-2.5-15.1-.9-30.2-1.8-45.4-2.6 0-21.5 0-43 0-64.5 11.5-3.6 22.9-7.1 34.4-10.6 4.7-1.4 7.9-5.7 7.9-10.8 0-2.4 0-4.8 0-7.2 0-1.3-1.1-2.5-2.4-2.5-13.3-.8-26.6-1.5-39.9-2.3 0-25.5 0-51 0-76.5 15.1.8 30.2 1.7 45.4 2.6 1.3.1 2.4-.9 2.4-2.2 0-9.2 0-18.3 0-27.5 0-1.2-1.1-2.3-2.4-2.4z"/><path d="m276.5 224.9c-.2-1.3-1.3-2.3-2.7-2.2-13.2.9-26.3 1.8-39.5 2.7-9.7.7-17.8 8.5-19 18.2-8.7 73.8-17.4 147.6-26.1 221.5-.1 1.3.8 2.3 2.1 2.2 10-.8 20-1.5 30.1-2.3 1.4-.1 2.5-1.2 2.7-2.6 1.8-15.6 3.5-31.2 5.3-46.9 11.1-4.9 22.3-9.7 33.4-14.5 2.2 19.4 4.5 38.8 6.7 58.2.2 1.3 1.3 2.3 2.7 2.2 10-.7 20.1-1.3 30.1-2 1.3-.1 2.2-1.2 2.1-2.5-9.4-77.2-18.6-154.6-27.9-232zm-43 154.9c4.4-39.4 8.9-78.8 13.3-118.2 4.4 38.8 8.9 77.5 13.3 116.3-8.8.6-17.7 1.2-26.6 1.9z"/><path d="m1301.5 368 8.1-2.4c11.3-3.3 18.8-13.4 18.8-25.5 0-28.5 0-57 0-85.6 0-14.5-11.7-27.2-26.2-28.3-24.3-1.8-48.6-3.5-73-5-1.3-.1-2.4.9-2.4 2.2v234c0 1.3 1.1 2.5 2.4 2.5 9.9.6 19.9 1.3 29.8 2 1.3.1 2.4-.9 2.4-2.2 0-26.7 0-53.4 0-80.1 3.2-1 6.5-1.9 9.7-2.9 9.9 28.8 19.8 57.6 29.7 86.4.4 1.1 1.4 1.9 2.5 2 10.6.8 21.3 1.6 31.9 2.4 1.5.1 2.5-1.3 2-2.7-11.9-32.2-23.8-64.5-35.7-96.8zm-7.6-33.5c-10.8 5.5-21.6 10.9-32.4 16.4 0-31.7 0-63.5 0-95.2 10.8.7 21.6 1.5 32.4 2.3z"/></g></svg>