<?xml version="1.0" encoding="UTF-8" standalone="no"?>
<svg xmlns:rdf="http://www.w3.org/1999/02/22-rdf-syntax-ns#" xmlns="http://www.w3.org/2000/svg" height="216.91306" width="166.79588" version="1.1" xmlns:cc="http://creativecommons.org/ns#" xmlns:dc="http://purl.org/dc/elements/1.1/" viewBox="0 0 166.79588 216.91306"><path d="M31.8574,158.53863q-6.22125,1.69334-12.3555,3.7637-3.9462-1.51756-8.0283-2.87891Q5.78425,144.23293,0,129.07772q5.39355-2.01271,10.8564-3.7695,4.6509,14.12986,9.2305,28.2773,3.1992-1.02825,6.418-1.9473-4.14855-14.291-8.3662-28.5488,5.50185-1.582,11.0595-2.9121,3.8877,15.7515,7.6748,31.5234-2.59275,3.38969-5.0156,6.83791" fill="#00437a"/><path d="M31.8574,158.53863q-6.22125,1.69334-12.3555,3.7637-3.9462-1.51756-8.0283-2.87891Q5.78425,144.23293,0,129.07772q5.39355-2.01271,10.8564-3.7695,4.6509,14.12986,9.2305,28.2773,3.1992-1.02825,6.418-1.9473-4.14855-14.291-8.3662-28.5488,5.50185-1.582,11.0595-2.9121,3.8877,15.7515,7.6748,31.5234Q34.28025,155.09044,31.8574,158.53863Z" fill="#00437a"/><path d="M69.5107,151.92342q-6.39989.53023-12.7597,1.45509-3.586-2.2002-7.3291-4.2793-2.379-13.3155-4.8213-26.6114,3.19185-3.3075,6.5537-6.5244,7.497-1.09425,15.0371-1.7314,4.0341,2.36715,7.918,4.8623.24315,4.05315.4804,8.1084-5.3847.29145-10.7519.8242-.2769-2.70119-.5635-5.3984-3.646.36179-7.2783.8359,1.4619,10.72847,2.8808,21.459,3.30615-.43064,6.6221-.76559-.271-2.69534-.5478-5.39459,5.11815-.50384,10.2548-.7812.233,4.05764.4581,8.1172-3.1626,2.8623-6.1534,5.8242" fill="#00437a"/><path d="M69.5107,151.92342q-6.39989.53023-12.7597,1.45509-3.586-2.2002-7.3291-4.2793-2.379-13.3155-4.8213-26.6114,3.19185-3.3075,6.5537-6.5244,7.497-1.09425,15.0371-1.7314,4.0341,2.36715,7.918,4.8623.24315,4.05315.4804,8.1084-5.3847.29145-10.7519.8242-.2769-2.70119-.5635-5.3984-3.646.36179-7.2783.8359,1.4619,10.72847,2.8808,21.459,3.30615-.43064,6.6221-.76559-.271-2.69534-.5478-5.39459,5.11815-.50384,10.2548-.7812.233,4.05764.4581,8.1172Q72.5015,148.96153,69.5107,151.92342Z" fill="#00437a"/><path d="M104.833,151.91172c-.2031-1.81841-.417-3.64259-.6357-5.461-2.7969-.2187-5.5909-.3886-8.3848-.49409-.4404,1.7793-.8721,3.56641-1.293,5.3476q-4.82671-.16111-9.6416-.10741,3.96675-18.96675,9.3018-37.7539,7.57318.2124,15.1455.8819,3.39555,19.29044,5.1621,38.6142-4.82086-.627-9.6543-1.0273m-3.7402-25.5166q-1.64219,5.764-3.1602,11.5498,2.52691.123,5.0566.2988-.87449-5.9268-1.8964-11.8486" fill="#00437a"/><path d="M104.833,151.91172c-.2031-1.81841-.417-3.64259-.6357-5.461-2.7969-.2187-5.5909-.3886-8.3848-.49409-.4404,1.7793-.8721,3.56641-1.293,5.3476q-4.82671-.16111-9.6416-.10741,3.96675-18.96675,9.3018-37.7539,7.57318.2124,15.1455.8819,3.39555,19.29044,5.1621,38.6142Q109.66645,152.312,104.833,151.91172Zm-3.7402-25.5166q-1.64219,5.764-3.1602,11.5498,2.52691.123,5.0566.2988Q102.11469,132.31694,101.0928,126.39512Z" fill="#00437a"/><polygon points="14.46 188.303 8.466 188.303 5.451 185.307 5.451 167.287 9.965 167.287 9.965 183.805 12.964 183.805 12.964 167.287 17.474 167.287 17.474 185.307 14.46 188.303" fill="#00437a"/><polygon points="14.46 188.303 8.466 188.303 5.451 185.307 5.451 167.287 9.965 167.287 9.965 183.805 12.964 183.805 12.964 167.287 17.474 167.287 17.474 185.307 14.46 188.303" fill="#00437a"/><polygon points="29.311 188.303 26.311 179.897 26.311 188.303 21.799 188.303 21.799 167.287 26.311 167.287 29.311 175.691 29.311 167.287 33.824 167.287 33.824 188.303 29.311 188.303" fill="#00437a"/><polygon points="29.311 188.303 26.311 179.897 26.311 188.303 21.799 188.303 21.799 167.287 26.311 167.287 29.311 175.691 29.311 167.287 33.824 167.287 33.824 188.303 29.311 188.303" fill="#00437a"/><rect x="38.1445" y="167.28672" width="4.5176" height="21.0195" fill="#00437a"/><rect x="38.1445" y="167.28672" width="4.5176" height="21.0195" fill="#00437a"/><polygon points="55.226 188.303 49.232 188.303 45.319 167.287 49.82 167.287 52.229 181.297 54.623 167.287 59.136 167.287 55.226 188.303" fill="#00437a"/><polygon points="55.226 188.303 49.232 188.303 45.319 167.287 49.82 167.287 52.229 181.297 54.623 167.287 59.136 167.287 55.226 188.303" fill="#00437a"/><polygon points="61.8 188.303 61.8 167.287 72.323 167.287 72.323 171.783 66.312 171.783 66.312 175.565 72.323 175.565 72.323 180.061 66.312 180.061 66.312 183.805 72.323 183.805 72.323 188.303 61.8 188.303" fill="#00437a"/><polygon points="61.8 188.303 61.8 167.287 72.323 167.287 72.323 171.783 66.312 171.783 66.312 175.565 72.323 175.565 72.323 180.061 66.312 180.061 66.312 183.805 72.323 183.805 72.323 188.303 61.8 188.303" fill="#00437a"/><path d="M84.1543,188.30233v-8.2422H81.1582v8.2422H76.6455V167.28672h9.0117l3.0117,2.99609v5.4082l-2.1006,2.1015,2.1006,2.1035v8.4063Zm0-16.5195H81.1582v3.7812h2.9961Z" fill="#00437a"/><path d="M84.1543,188.30233v-8.2422H81.1582v8.2422H76.6455V167.28672h9.0117l3.0117,2.99609v5.4082l-2.1006,2.1015,2.1006,2.1035v8.4063Zm0-16.5195H81.1582v3.7812h2.9961Z" fill="#00437a"/><polygon points="102.004 188.303 96.009 188.303 92.997 185.307 92.997 182.291 97.507 182.291 97.507 183.805 100.504 183.805 100.504 180.061 96.009 180.061 92.997 177.061 92.997 170.291 96.009 167.287 102.004 167.287 105.019 170.291 105.019 173.283 100.504 173.283 100.504 171.783 97.507 171.783 97.507 175.565 102.004 175.565 105.019 178.563 105.019 185.307 102.004 188.303" fill="#00437a"/><polygon points="102.004 188.303 96.009 188.303 92.997 185.307 92.997 182.291 97.507 182.291 97.507 183.805 100.504 183.805 100.504 180.061 96.009 180.061 92.997 177.061 92.997 170.291 96.009 167.287 102.004 167.287 105.019 170.291 105.019 173.283 100.504 173.283 100.504 171.783 97.507 171.783 97.507 175.565 102.004 175.565 105.019 178.563 105.019 185.307 102.004 188.303" fill="#00437a"/><rect x="109.3398" y="167.28672" width="4.5127" height="21.0195" fill="#00437a"/><rect x="109.3398" y="167.28672" width="4.5127" height="21.0195" fill="#00437a"/><path d="M127.1875,188.30233h-9.0098V167.28672h9.0098l3.0137,2.99609v15.02341Zm-1.4981-16.5195h-2.997v12.02141h2.997Z" fill="#00437a"/><path d="M127.1875,188.30233h-9.0098V167.28672h9.0098l3.0137,2.99609v15.02341Zm-1.4981-16.5195h-2.997v12.02141h2.997Z" fill="#00437a"/><path d="M142.16409,188.30233l-.4825-2.99609h-3.8154l-.50391,2.99609h-4.4971l3.90919-21.01559h5.99609l3.9082,21.01559Zm-2.39259-13.99409-1.10451,6.498h2.21091Z" fill="#00437a"/><path d="M142.16409,188.30233l-.4825-2.99609h-3.8154l-.50391,2.99609h-4.4971l3.90919-21.01559h5.99609l3.9082,21.01559Zm-2.39259-13.99409-1.10451,6.498h2.21091Z" fill="#00437a"/><path d="M158.34959,188.30233h-9.0078V167.28672h9.0078l3.0146,2.99609v15.02341Zm-1.498-16.5195H153.8535v12.02141h2.99809Z" fill="#00437a"/><path d="M158.34959,188.30233h-9.0078V167.28672h9.0078l3.0146,2.99609v15.02341Zm-1.498-16.5195H153.8535v12.02141h2.99809Z" fill="#00437a"/><path d="M147.89059,159.85893l2.9971-12.9863-9.957,11.38091-3.9659-14.5938-2.998,12.9883-10.5117-2.4258,8.3925-36.375,10.5127,2.4238,3.9678,14.5957,9.95509-11.3828,10.5127,2.4248-8.39159,36.376Z" fill="#00437a"/><path d="M14.3701,216.27352a8.279,8.279,0,0,1-3.4082.6123c-3.6387,0-6.377-2.2979-6.377-6.5303a6.42264,6.42264,0,0,1,6.7403-6.7783,6.92354,6.92354,0,0,1,3.0644.5742l-.4023,1.35941a6.066,6.066,0,0,0-2.6045-.5361c-3.0254,0-5.0361,1.93449-5.0361,5.3232,0,3.1602,1.8193,5.1904,4.9599,5.1904a6.6718,6.6718,0,0,0,2.7188-.5361Z" fill="#eda900"/><path d="M16.3965,203.09773H18.082v13.59669H16.3965Z" fill="#eda900"/><path d="M28.6699,214.167c0,.95711.0195,1.7998.0772,2.5274H27.2529l-.0957-1.5127h-.0381a3.48685,3.48685,0,0,1-3.0644,1.7236c-1.4551,0-3.1973-.8047-3.1973-4.05949v-5.42H22.542v5.1319c0,1.7617.5361,2.9492,2.0683,2.9492a2.37124,2.37124,0,0,0,2.3751-2.36737q0-.01311-.0001-.02623v-5.6875h1.6846Z" fill="#eda900"/><path d="M31.3867,216.69442c.0381-.6319.0762-1.5703.0762-2.3936V203.09773h1.666V208.92h.0391a3.45223,3.45223,0,0,1,3.1591-1.70509c2.2979,0,3.9258,1.915,3.9073,4.7305,0,3.3125-2.0879,4.9599-4.1563,4.9599a3.302,3.302,0,0,1-3.1015-1.7431h-.0577l-.0771,1.5322Zm1.7422-3.7149a3.17816,3.17816,0,0,0,.0771.6123,2.59992,2.59992,0,0,0,2.5274,1.9727c1.7617,0,2.8154-1.43649,2.8154-3.56149,0-1.85741-.958-3.4473-2.7578-3.4473a2.68647,2.68647,0,0,0-2.5654,2.06841,3.2586,3.2586,0,0,0-.0967.68941Z" fill="#eda900"/><path d="M54.4189,203.09773v11.20309c0,.8233.0196,1.7617.0772,2.3936H52.9824l-.0762-1.6084h-.038a3.42978,3.42978,0,0,1-3.1602,1.81931c-2.2402,0-3.9639-1.8965-3.9639-4.71091-.0185-3.083,1.8955-4.97951,4.1553-4.97951a3.10014,3.10014,0,0,1,2.7959,1.417h.0391v-5.53419Zm-1.6845,8.1006a2.95767,2.95767,0,0,0-.0772-.708,2.478,2.478,0,0,0-2.4316-1.9541c-1.7432,0-2.7774,1.5322-2.7774,3.581,0,1.877.92,3.4278,2.7393,3.4278a2.53277,2.53277,0,0,0,2.4697-2.0108,2.91416,2.91416,0,0,0,.0772-.72749Z" fill="#eda900"/><path d="M58.1494,212.36633a2.97,2.97,0,0,0,3.1787,3.2177,6.08374,6.08374,0,0,0,2.5664-.47951l.2871,1.20711a7.51592,7.51592,0,0,1-3.083.5742,4.3042,4.3042,0,0,1-4.5576-4.6729c0-2.7959,1.6475-4.998,4.3467-4.998,3.0264,0,3.8301,2.66209,3.8301,4.3662a6.49505,6.49505,0,0,1-.0567.7852Zm4.9414-1.2061c.0186-1.0723-.4404-2.7383-2.3369-2.7383a2.79263,2.79263,0,0,0-2.585,2.7383Z" fill="#eda900"/><path d="M70.5351,203.96a23.24309,23.24309,0,0,1,3.7725-.26849,7.13748,7.13748,0,0,1,3.8115.72749,2.8121,2.8121,0,0,1,1.5508,2.52831,2.91693,2.91693,0,0,1-2.126,2.7578v.0381a3.22987,3.22987,0,0,1,2.5664,3.1787,3.43809,3.43809,0,0,1-1.3408,2.7383c-.9385.7471-2.5088,1.168-5.0742,1.168a22.60225,22.60225,0,0,1-3.1602-.19141Zm2.8916,4.9404h.9581c1.5312,0,2.3554-.63181,2.3554-1.5898,0-.97659-.747-1.49319-2.0683-1.49319a8.01952,8.01952,0,0,0-1.2452.0762Zm0,5.7256a9.25792,9.25792,0,0,0,1.1299.0381c1.3213,0,2.4893-.4971,2.4893-1.85741,0-1.3018-1.168-1.81931-2.6231-1.81931h-.9961Z" fill="#eda900"/><path d="M87.3838,216.69442l-.1729-.93851h-.0576a3.37219,3.37219,0,0,1-2.6807,1.1494,2.87046,2.87046,0,0,1-3.02113-2.71144q-.00436-.0807-.00417-.16156c0-2.4317,2.1826-3.59959,5.496-3.5811v-.1338c0-.498-.2685-1.206-1.705-1.206a5.27058,5.27058,0,0,0-2.585.708l-.5361-1.876a7.726,7.726,0,0,1,3.6386-.8242c3.1211,0,4.1172,1.8389,4.1172,4.041v3.2549a14.51867,14.51867,0,0,0,.1338,2.2793Zm-.3447-4.4238c-1.5323-.0186-2.7198.3447-2.7198,1.47459a1.04609,1.04609,0,0,0,1.1494,1.1113,1.59057,1.59057,0,0,0,1.5127-1.0732,2.09448,2.09448,0,0,0,.0577-.4971Z" fill="#eda900"/><path d="M92.168,203.09773h2.9111v13.59669H92.168Z" fill="#eda900"/><path d="M106.6816,211.90733a4.69816,4.69816,0,0,1-4.9404,4.998,4.58741,4.58741,0,0,1-4.8447-4.8261,4.67441,4.67441,0,0,1,4.998-4.96,4.553,4.553,0,0,1,4.7871,4.7881Zm-6.7783.0957c0,1.6084.6699,2.81441,1.915,2.81441,1.1299,0,1.8575-1.1299,1.8575-2.81441,0-1.3985-.5362-2.81551-1.8575-2.81551C100.4199,209.18752,99.9033,210.62412,99.90331,212.003Z" fill="#eda900"/><path d="M108.4785,210.31742c0-1.16789-.0381-2.164-.0762-2.9873h2.5274l.1338,1.2832h.0576a3.42826,3.42826,0,0,1,2.8916-1.49409c1.915,0,3.3515,1.2646,3.3515,4.0215v5.5537h-2.9111v-5.1895c0-1.207-.4209-2.0302-1.4746-2.0302a1.55541,1.55541,0,0,0-1.4746,1.0918,2.00827,2.00827,0,0,0-.1143.72749v5.40041h-2.9111Z" fill="#eda900"/><path d="M126.7256,216.46493a7.113,7.113,0,0,1-2.6045.4209c-3.0254,0-4.96-1.83791-4.96-4.78709,0-2.7383,1.877-4.97949,5.3623-4.97949a6.75708,6.75708,0,0,1,2.2207.3642l-.459,2.16409a3.98361,3.98361,0,0,0-1.6279-.28709,2.62517,2.62517,0,0,0,.0576,5.2471,4.47888,4.47888,0,0,0,1.666-.2881Z" fill="#eda900"/><path d="M130.36031,212.94152c.09669,1.206,1.2832,1.7802,2.6436,1.7802a8.248,8.248,0,0,0,2.585-.3828l.3828,1.9727a9.24769,9.24769,0,0,1-3.38969.5742c-3.1787,0-4.998-1.83791-4.998-4.7686,0-2.374,1.47459-4.998,4.73041-4.998,3.02541,0,4.1739,2.3555,4.1739,4.67281a6.84685,6.84685,0,0,1-.0957,1.14951Zm3.4288-1.9922a1.69056,1.69056,0,0,0-1.64751-1.89549,1.91,1.91,0,0,0-1.7998,1.89549Z" fill="#eda900"/><path d="M138.2099,214.14753a5.69276,5.69276,0,0,0,2.5079.709c.8808,0,1.2451-.30659,1.2451-.7852,0-.47951-.28709-.70889-1.37891-1.0732-1.93359-.65041-2.68069-1.7041-2.66209-2.8145,0-1.7431,1.49409-3.06441,3.81149-3.06441a6.28936,6.28936,0,0,1,2.64259.5361l-.51759,2.0108a4.59826,4.59826,0,0,0-2.0293-.53619c-.709,0-1.1113.28709-1.1113.7666,0,.44051.3642.67,1.5136,1.0723,1.7803.6123,2.5274,1.5127,2.54691,2.8916,0,1.7422-1.37891,3.02541-4.0605,3.02541a6.61967,6.61967,0,0,1-3.02541-.6514Z" fill="#eda900"/><path d="M149.793,204.64953v2.6806h2.0869v2.14461H149.793v3.3896c0,1.1299.2675,1.64751,1.14841,1.64751a4.76863,4.76863,0,0,0,.8623-.07719l.0186,2.20219a5.70595,5.70595,0,0,1-1.8956.249,3.02225,3.02225,0,0,1-2.1826-.8047,3.87372,3.87372,0,0,1-.8047-2.7764v-3.83h-1.2451v-2.14459h1.2451V205.3Z" fill="#eda900"/><path d="M162.7168,211.90733a4.6989,4.6989,0,0,1-4.94141,4.998,4.58735,4.58735,0,0,1-4.8447-4.8261,4.67441,4.67441,0,0,1,4.998-4.96,4.55387,4.55387,0,0,1,4.7881,4.7881Zm-6.7793.0957c0,1.6084.66991,2.81441,1.915,2.81441,1.1299,0,1.85741-1.1299,1.85741-2.81441,0-1.3985-.5361-2.81551-1.85741-2.81551C156.45409,209.18752,155.9375,210.62412,155.9375,212.003Z" fill="#eda900"/><path d="M142.37891,2.51913A2.58885,2.58885,0,1,1,139.72076.00147q.03852-.001.077-.00094a2.53,2.53,0,0,1,2.58061,2.47836Zm-4.5313,0A1.95319,1.95319,0,0,0,139.74034,4.531q.03658.00112.07317.00086a1.9291,1.9291,0,0,0,1.92215-1.936q-.00011-.0315-.00125-.063a1.94488,1.94488,0,1,0-3.88626-.16493Q137.84494,2.44348,137.84761,2.51913Zm1.5528,1.3223h-.585V1.31993a5.21535,5.21535,0,0,1,.9688-.0762,1.54325,1.54325,0,0,1,.874.1855.69064.69064,0,0,1,.24609.5508.64526.64526,0,0,1-.5215.585v.0312a.74427.74427,0,0,1,.46091.6123,1.988,1.988,0,0,0,.18359.6329h-.6299a2.24122,2.24122,0,0,1-.2001-.6172c-.0459-.2764-.1973-.3965-.52251-.3965h-.2744Zm.0137-1.4317h.27631c.3233,0,.586-.1055.586-.3672,0-.2304-.169-.3847-.53909-.3847a1.393,1.393,0,0,0-.3232.0312Z" fill="#eda900"/><path d="M130.7773,3.25253c-9.4638,5.8154-21.6035,8.4492-30.123,9.6338a119.58485,119.58485,0,0,1-16.4756,1.1875h-.0059a127.535,127.535,0,0,1-17.0361-1.1875c-8.7725-1.1856-21.21479-3.8184-30.6777-9.6348l-2.4199-1.4883.3603,2.8203a274.20645,274.20645,0,0,0,10.0078,43.5518c4.2774,13.2432,9.2715,24.4678,14.8428,33.3613,6.832,10.9053,14.5801,18.3409,23.0371,22.1162.2607.1172.5186.2286.7812.3379l.5225.2207.5254-.2207.0039-.0009c.2236-.0948.4707-.2022.7481-.3243,8.4677-3.7705,16.2275-11.2129,23.0751-22.1289,5.5762-8.8916,10.5762-20.1172,14.8594-33.3613a274.43614,274.43614,0,0,0,10.03521-43.5518l.3623-2.8203Z" fill="#114278"/><path d="M83.5908,105.06992l-.8447-.3555c-.2774-.1172-.5401-.2314-.7988-.3477-8.6065-3.8417-16.4795-11.3896-23.3975-22.4316C52.9404,72.98393,47.917,61.69683,43.6191,48.39023a275.4872,275.4872,0,0,1-10.041-43.7051l-.583-4.5332,3.8965,2.3945c9.3398,5.7393,21.6631,8.3438,30.3564,9.5196a129.88338,129.88338,0,0,0,16.4698,1.1836c.2607,0,.413-.002.4414-.002h.0312c.0274,0,.1738.002.4258.002A121.86381,121.86381,0,0,0,100.542,12.066c8.4375-1.1719,20.457-3.7774,29.8017-9.5196L134.2412.15193l-.583,4.5371a277.70084,277.70084,0,0,1-10.0693,43.7012c-4.3038,13.3096-9.3311,24.5957-14.9444,33.5469-6.9365,11.0546-14.8213,18.6064-23.4394,22.4453-.2832.125-.5352.2343-.7627.3291ZM35.0781,3.37463l.1426,1.1035a274.6597,274.6597,0,0,0,9.9756,43.4043c4.2558,13.1758,9.2197,24.3388,14.7549,33.1758C66.69141,91.816,74.31931,99.15,82.625,102.857c.2461.1113.4951.2187.7617.3301l.2041.0859.2197-.0918c.2168-.0898.458-.1953.7256-.3125,8.3067-3.7002,15.9483-11.0391,22.7061-21.8105,5.54-8.836,10.5117-19.9981,14.7734-33.1778a275.88661,275.88661,0,0,0,10.00288-43.4043l.1407-1.1025-.94929.583c-9.5859,5.8926-21.8466,8.5547-30.4414,9.75a123.61727,123.61727,0,0,1-16.1523,1.1973c-.2451,0-.3955-.002-.4414-.002-.0322,0-.1895.002-.457.002a131.58728,131.58728,0,0,1-16.6924-1.1973c-8.8516-1.1973-21.4131-3.8584-31.001-9.75Z" fill="#e6a921"/><path d="M60.8447,20.34143a.38243.38243,0,0,1,.1924.0752c.1348.1308.084.3291.0986.6669.0166.3868.002.7188.002,2.543v1.7559a3.78279,3.78279,0,0,0,1.1514,3.1777,5.58571,5.58571,0,0,0,3.3222.8086,4.24992,4.24992,0,0,0,2.7686-.8682c1.0859-.8642,1.2275-2.2802,1.2275-3.6103V23.605c0-1.8252,0-2.1621.0254-2.5468.0273-.42.1309-.6231.4795-.6817a1.23664,1.23664,0,0,1,.2949-.0351c.1543,0,.2334-.0235.2334-.1075s-.0908-.1074-.2734-.1074c-.503,0-1.3155.0352-1.4727.0352-.0127,0-.8262-.0352-1.4853-.0352-.1817,0-.2715.0235-.2715.1074s.0762.1075.2197.1075a1.74324,1.74324,0,0,1,.3858.0351c.4257.082.5292.2754.5556.6817.0254.3847.0254.7216.0254,2.5468v1.5c0,1.2364-.0381,2.3164-.749,2.9746a2.45051,2.45051,0,0,1-1.7051.6524,2.26606,2.26606,0,0,1-1.5146-.4922c-.6329-.4785-1.0088-1.2109-1.0088-2.9541V23.608c0-1.8252,0-2.1612.0263-2.5459.0254-.419.127-.6231.4786-.6827a1.03644,1.03644,0,0,1,.2734-.038c.1289,0,.206-.0235.206-.1075s-.0898-.1074-.2812-.1074c-.4649,0-1.2813.0352-1.5928.0352-.3867,0-1.1113-.0352-1.7969-.0352-.163,0-.1982.0547-.1982.0957C60.4619,20.30233,60.749,20.32773,60.8447,20.34143Zm11.7158,7.7441a6.672,6.672,0,0,0,4.3487,1.2832,7.87661,7.87661,0,0,0,2.2832-.2705.43619.43619,0,0,0,.332-.3408,10.63168,10.63168,0,0,0,.2754-1.5674c0-.0947-.0254-.1768-.1143-.1768-.1006,0-.1259.0469-.1611.2354a2.35793,2.35793,0,0,1-.4111.9248c-.5078.541-.5928.5644-1.7217.5644a4.09446,4.09446,0,0,1-3.9942-4.1923,3.76357,3.76357,0,0,1,1.1661-3.0489,2.751,2.751,0,0,1,2.1132-.7295,2.95754,2.95754,0,0,1,2.2227.6758,1.62336,1.62336,0,0,1,.4961,1.085c0,.1631.0244.2558.1289.2558.1123,0,.1367-.0927.1494-.2685.0274-.2363.0117-.8838.0381-1.2735.0264-.4101.0625-.5546.0625-.6484,0-.0693-.0488-.1269-.1895-.1396-.3808-.0362-.7871-.1397-1.2675-.2002a13.58348,13.58348,0,0,0-1.8379-.1162,5.80324,5.80324,0,0,0-4.0088,1.247,4.44025,4.44025,0,0,0,.08981,6.7012Zm19.0323,1.2646c.4082,0,1.0195-.0351,1.2597-.0351.2324,0,.8028.0351,1.3379.0351.1924,0,.3076-.0214.3076-.1289,0-.0615-.0908-.0839-.1943-.0839a2.65354,2.65354,0,0,1-.5332-.0577c-.2178-.0468-.3818-.1552-.3818-.3818a4.20163,4.20163,0,0,1,.038-.5537l.6319-4.4922c.4512.8926,1.1162,2.1914,1.2226,2.4219.1504.332,1.1582,2.1406,1.4639,2.6855.2051.3555.3184.5606.501.5606.1894,0,.3096-.086.5996-.6446l2.7783-5.3711h.0518l.7646,5.2071c.0498.3301.0117.4863-.0654.5068-.0889.0381-.1387.0733-.1387.1309,0,.0722.0752.1074.3701.1318.5078.0342,2.2666.0703,2.584.0703.1787,0,.333-.0361.333-.1299,0-.0722-.0918-.0839-.2051-.0839a2.07634,2.07634,0,0,1-.6005-.1397c-.3829-.1084-.5098-.4512-.625-1.1963l-1.1582-7.3125c-.0342-.2265-.1778-.3554-.3155-.3594a.512.512,0,0,0-.3828.2998l-3.39261,6.5743-3.4775-6.6729a.44021.44021,0,0,0-.3623-.1972.3483.3483,0,0,0-.3232.2314l-1.2618,7.7139c-.0625.4033-.1132.9541-.4707,1.0244a1.82872,1.82872,0,0,1-.3818.0342c-.1289,0-.2022.0224-.2022.0839C91.3642,29.32873,91.4648,29.35013,91.5928,29.35013Zm-10.92-.0039c.6621,0,1.3604-.038,1.502-.038.3955,0,.9434.038,1.3516.038.1396,0,.2168-.0244.2168-.1191,0-.0693-.0391-.0947-.1924-.0947h-.1914c-.3955,0-.5078-.1533-.5078-.3672a2.22509,2.22509,0,0,1,.2011-.709l.4903-1.0273a.89729.89729,0,0,1,.5332-.3653c.0771-.0156,2.3916.0039,2.3916.0039a1.11964,1.11964,0,0,1,.5107.3682l.8535,1.8135a.1879.1879,0,0,1-.1152.2715c-.126.0117-.1777.0371-.1777.1064,0,.0811.1523.0811.3808.0947,1.0205.0244,1.9502.0244,2.4082.0244.4707,0,.586-.0244.586-.1191,0-.082-.0635-.0947-.1651-.0947a1.56058,1.56058,0,0,1-.3828-.0352c-.2686-.0605-.6377-.2265-1.1201-1.291-.8154-1.7978-2.833-6.6328-3.1602-7.2754-.1709-.3359-.2881-.3887-.4004-.3984a.50811.50811,0,0,0-.4882.3457l-3.1954,7.4297c-.2578.5898-.4384,1.1308-1.0234,1.2011-.1016.0118-.2812.0235-.3955.0235-.1035,0-.1553.0254-.1553.0947C80.4277,29.32183,80.5068,29.34623,80.67281,29.34623Zm3.2959-3.7461,1.252-2.9267c.0107-.0449.0371-.1065.0762-.1065.0351,0,.0468.0616.0683.1065l1.085,2.9219a.18426.18426,0,0,1-.1338.2588,21.36064,21.36064,0,0,1-2.249.0048C83.9346,25.85113,83.9326,25.733,83.9687,25.60013Z" fill="#e6a921"/><path d="M51.6943,22.65a15.635,15.635,0,0,0,2.4483,6.0546,1.58885,1.58885,0,0,0-.1582,1.1973,9.429,9.429,0,0,0,2.3476,4.0488.02946.02946,0,0,0,.0156-.0009,2.1872,2.1872,0,0,0-.164,1.333c.2578,2.0078,2.3896,3.8076,2.3926,3.8164a8.55848,8.55848,0,0,0,1.915,3.9922,2.49583,2.49583,0,0,0,1.6963.8418,14.72835,14.72835,0,0,0,1.3467,3.2763,3.625,3.625,0,0,0,1.2021,1.2237,4.63607,4.63607,0,0,0-.5801.1367l-.1064.0019c-2.9434,1.2871-5.167,1.4317-8.0049,3.334.0342.9785.2422,2.5899,1.2822,3.1983l-.6103.3027.0625.9746,1.8808-.9326,5.045,10.8379,2.0234,1.4765.0156-2.498L60.125,54.72033l1.7685-.877-.8017-.6094-.332.1651c.2607-.3955.1826-.9502.5527-1.0908,1.8428-.7051,1.9141.0664,3.8359.2695.4971.0527,1.4024-.0303,2.0498.082a10.46011,10.46011,0,0,1,2.2959.8281c1.6045.7764,2.8467.4844,3.5323,2.0372a25.56,25.56,0,0,0,1.1064,4.2041,22.61083,22.61083,0,0,0,.7295,3.3759c1.0098,2.2188,3.3281,3.0674,2.873,6.3897a6.2655,6.2655,0,0,1-1.2304,2.3476,8.88618,8.88618,0,0,0-1.3252,5.9112c.1172,1.1474-.4229,1.539-.2725,2.6308.3526,2.5762,3.8164,2.8145,5.666,4.0352a6.98362,6.98362,0,0,0,1.0459,2.9297,5.54282,5.54282,0,0,0,2.7735,1.6914c.5576-1.8828-.2744-4.1651-1.6368-4.7783.003-1.1573-.0664-2.2413-.8203-2.6075-.5459-.0927-.5761.3047-.9785.3506a3.10352,3.10352,0,0,0-.9355-2.8242c.5801-2.2666,2.2177-2.5215,3.2763-5.3203.8809.4902,1.0069,1.5566,1.4727,2.373.4355.7657,1.1455,1.3653,1.5781,2.1534.5528,1.0068.4072,2.2802,1.0586,3.3681a2.45959,2.45959,0,0,0,.5977,2.3936c-.0049.165-.7198-.1582-.8721.1279-.5.8106.0693,1.4522.0498,2.2959-.0293,1.2432-1.2295,2.6982-.2314,4.4893,1.7627-.5049,2.4921-2.5166,1.9736-4.8555.9092-1.0742,2.1953-1.0293,2.7998-2.0274.8486-1.4082-.2656-2.4199-.5195-3.8183-.2315-1.2676.2715-2.999.084-4.3926-.4629-3.4463-3.3887-5.7558-3.8809-9.3066a4.81742,4.81742,0,0,1,.9072-3.6299c1.1192.8808,2.3487,1.6474,3.5528,2.4385.9404,2.3183,1.8046,2.5117,2.4912,3.9941-.0899.9492-.5635,1.5313-.4883,2.6348.6855.7949,1.4638,2.2343,2.5556,1.914.4063,1.291.587,2.8155,1.712,3.3535.0527-1.0693.5537-2.0673.375-2.9609-.209-1.0361-1.3448-1.6709-1.6934-2.4785.0547-2.4883.3926-4.4766-.5176-6.3164a8.45164,8.45164,0,0,0-2.3037-2.8096c-.5576-1.9717-1.4824-2.332-2.4785-3.2285a8.27,8.27,0,0,0-.7002-2.0635,3.54083,3.54083,0,0,0-.2559-.3486c.0235-.0068.0489-.0127.0733-.0195a5.5334,5.5334,0,0,0,2.4609-1.6534,3.66239,3.66239,0,0,0,1.6582-.375,3.80782,3.80782,0,0,0,2.3487-2.6972c1.6416.5683,3.7031-1.9981,3.4023-3.2891a4.84081,4.84081,0,0,0,3.4424-1.7471,8.95924,8.95924,0,0,0,1.4873-3.2861,6.03682,6.03682,0,0,0,2.8769-1.1172c.6055-.5195,2.4922-2.3847,2.3223-4.0586.001-.0078,3.3867-2.0976,3.252-3.9951a1.52758,1.52758,0,0,0-.709-1.1924.12533.12533,0,0,0,.0332-.0029c1.1679-.9785,2.8359-2.3818,3.0996-4.1982a1.10273,1.10273,0,0,0-.6592-1.0684c1.3682-1.9141,2.6123-3.4414,2.875-6.1221.04-.4033-.0869-.7881-.1758-.7861a5.40406,5.40406,0,0,0-.6758.6094c-.415.4375-.833.8769-1.2509,1.3105-.5098.5059-1.0528.9063-1.5645,1.3975-.3398.3359-.6836.6699-1.0234,1.0049-2.2471,1.9189-3.8819,5.705-8.2852,6.2539-3.1133.3867-5.2803.334-9.3076.9404-2.667.4014-9.748,2.1172-12.9971,8.21a5.7857,5.7857,0,0,0-.455,3.6875,8.44912,8.44912,0,0,0,.5546,1.5976,10.05187,10.05187,0,0,1,.7041,1.9082c.2618,1.6602.1553,2.3916-.7744,3.4365-.2685.3018-.5674.5948-.8437.8907-.0244-.0069-.0508-.0147-.0752-.0225a5.76528,5.76528,0,0,0,.5703-2.6426,5.215,5.215,0,0,0-5.1025-5.3125,4.75479,4.75479,0,0,0-3.503,1.6797,5.48126,5.48126,0,0,0-1.208,2.3799,1.07516,1.07516,0,0,1-.5547-.9902c-.0488-.5801,1.5782-3.3819,1.6045-3.9073a15.61461,15.61461,0,0,0,.0147-1.7412,11.39836,11.39836,0,0,0-.877-3.8174c-1.8877-4.0293-4.3994-5.1972-5.8633-5.3125a19.481,19.481,0,0,1-6.2324-1.0761c-2.8144-1.1485-5.0537-4.5-6.5605-6.2539-.2364-.3145-.4737-.6231-.71-.9375-.3506-.458-.7041-.8145-1.0586-1.2862-.293-.4091-.6269-.7978-.9199-1.208-.1045-.1289-.2793-.3828-.3301-.3408A2.864,2.864,0,0,0,51.6943,22.65ZM81.5,52.39123a1.65293,1.65293,0,0,1-.293-.2286c.6768-5.4873-5.3271-5.997-6.4346-2.8925a2.1114,2.1114,0,0,0-.7392-.1924,4.597,4.597,0,0,1,.9961-1.957,3.8279,3.8279,0,0,1,2.8174-1.3575c.0732-.0019.1455-.0019.2177,0a4.30977,4.30977,0,0,1,3.9239,4.3916A4.85286,4.85286,0,0,1,81.5,52.39123Z" fill="#e6a921"/></svg>