<svg height="347.512629" viewBox="0 0 103.2412 124.80608" width="287.759326" xmlns="http://www.w3.org/2000/svg"><g stroke-width=".264583" transform="matrix(2.1954172 0 0 2.1954172 -268.873164 -252.5649)"><path d="m165.25201 170.03556-6.04308-6.72041a5.9954583 5.9954583 0 0 0 -4.28889-1.85209h-4.37621v.55563a3.7041666 3.7041666 0 0 0 -1.88119-.508l-16.84073-.0185c-2.53206 0-3.4581 1.99496-3.46075 3.33375v3.70416a3.175 3.175 0 0 0 .93927 2.36538 3.889375 3.889375 0 0 0 2.53471.98425h6.47171l.0159-.0185h10.31875a3.952875 3.952875 0 0 0 1.89971-.51065v.52917h4.83394v-2.41565h.39423a2.2251458 2.2251458 0 0 0 1.80446-.94191l2.6035 2.97127.3466.39687h6.40292z" fill="#fff"/><path d="m154.93326 162.59019a4.7942499 4.7942499 0 0 1 3.41842 1.4605l6.02986 6.72042h-3.32053l-4.40795-5.02709a3.4686875 3.4686875 0 0 0 -1.85209-.89429h-.5715v1.47108h1.53988a1.0583333 1.0583333 0 0 1 1.02658 1.02659 1.0398125 1.0398125 0 0 1 -1.02658.99483h-1.53723v2.41565h-2.52413v-8.16769z" fill="#313435"/><path d="m131.82191 162.61929c-2.29923 0-2.30717 2.21457-2.30717 2.21457v3.70416c0 2.23838 2.31246 2.22515 2.31246 2.22515h5.99811l2.286-2.21721h-7.29457a.69849999.69849999 0 0 1 -.73554-.72231v-2.22515a.73818749.73818749 0 0 1 .75671-.76729h6.67015a2.8945416 2.8945416 0 0 0 0-.5715 1.9473333 1.9473333 0 0 1 .33337-1.09273 1.80975 1.80975 0 0 1 .52917-.55827z" fill="#972023"/><path d="m149.91147 166.66213s1.00013-.33073 1.00013-1.82034c0-2.2225-2.27806-2.22779-2.27806-2.22779h-6.10923c-2.30982 0-2.30188 2.05052-2.30717 2.22779v2.80194h2.54v-2.02671a.77258332.77258332 0 0 1 .84137-.74877h4.41855s.46566.0212.46566.4445a.43391666.43391666 0 0 1 -.45508.46567h-4.49792v1.88648h4.46617a.45508333.45508333 0 0 1 .48154.46831.43920833.43920833 0 0 1 -.48154.44185h-6.64104l-2.24896 2.18282h9.525s2.27012.0423 2.27012-2.21192c0-1.42081-1.00012-1.88383-1.00012-1.88383" fill="#313435"/><path d="m145.97976 115.04721a23.8125 23.8125 0 0 0 -15.79297 5.91873 1.2435417 1.2435417 0 0 1 -.0132.36777s-.15082-.12435-.21432-.16669c-.0794.0714-.14022.11642-.22754.20373a22.259396 22.259396 0 0 0 -6.93473 20.24856c.0397-.0132.10319-.11906.17727-.0953.14023.0423.09 1.68011 1.00013 4.34446 3.34962 8.63071 11.93535 14.77698 22.00804 14.77698a23.878646 23.878646 0 0 0 14.80079-5.09058c-4.26773-5.12763-6.92414-11.92213-6.32354-12.45923 1.05833-.94456 2.30188 3.14325 6.87917 4.73075 4.31271 1.49489 6.11187-.9234 6.70189-2.07433a22.124458 22.124458 0 0 0 1.45521-7.9084c0-12.59152-10.52512-22.80179-23.50823-22.80179" fill="#fff"/><path d="m161.52404 122.25181a16.004646 16.004646 0 0 0 -11.37709-1.82033c-3.2041.67733-4.23333 1.13242-6.74952 1.44727-.76464.0953-3.15648.6694-3.48456-.0609-.4101-.90752 2.24367-4.78896 5.40014-5.66738 0 0 8.97732-.75141 16.20573 6.08542" fill="#060002"/><path d="m143.83664 116.24048s-2.64583 1.1774-4.064 2.61144c-1.93675 1.96056-1.52135 2.21721-2.48444 2.91041-1.01864.72232-3.37873.17992-5.11968-.97102 0 0 4.51643-3.88408 11.66547-4.54025" fill="#09311e"/><path d="m132.82733 136.95736c.0318-.34661.1905-1.05834-.24871-1.47373-.3519-.32544-.56092-.47625-1.1139-.4154-1.54516.17198-6.71248 3.19352-5.92137 11.67342a22.259396 22.259396 0 0 0 5.18319 6.98764c4.07458 3.79413 9.22602 5.02709 9.21543 5.00592-.0106-.0212-5.67002-4.49792-6.92414-14.6685a36.628916 36.628916 0 0 1 -.1905-7.112" fill="#152a4e"/><path d="m158.32258 155.94915s-4.33388-2.68817-10.09386-9.54617c-2.79929-3.76502-5.53773-7.4295-7.14375-8.74712-1.91293-1.56898-4.30741-3.175-5.57212-2.26484-.46302.33338-.56356 1.99231-.62442 3.99521a36.411958 36.411958 0 0 0 .21961 5.64885c.42333 3.00038 1.2065 10.45105 6.35 14.08113 0 0 8.64922 2.11667 16.84866-3.175" fill="#972023"/><path d="m162.38393 123.12758s-.15081-.0952-.42598-.23547a9.8107499 9.8107499 0 0 0 -5.20171.23547c-3.95023 1.21709-7.82902 1.6563-7.92162 1.0848-.0291-.17198 1.62454-.62707 3.86027-2.01084a7.5723749 7.5723749 0 0 1 2.04258-.86783 13.843 13.843 0 0 0 -3.45281.52917c-6.39498 1.89177-10.58333 2.21985-12.0306 2.34685-.89959.0794-1.16946.24077-1.52136 1.35467-.0873.26458-.46831 1.21179-.58737 1.51341.45773 0 1.87854-.49741 2.99773-1.05833.79375-.40217 2.92893-.85725 2.41564-.3175-1.05833 1.12448 1.143 1.35467 1.14565 1.35467 8.39523 1.20385 17.62125 4.92654 22.76739 10.77118.50271.56886 1.61396 2.06905 1.73038 2.38125 0 0 1.61396-9.46943-5.82083-17.10266m1.83356 14.2875c-4.18571-3.175-15.47813-7.82373-27.71511-8.29998 0-.0238-.26458.92869-.40481 1.48431a1.3678958 1.3678958 0 0 0 1.03981 1.73831 9.1254791 9.1254791 0 0 1 2.52413.95515c2.83104 1.72508 4.18042 2.5744 8.11212 8.78681 4.43971 7.01146 9.96686 12.13644 11.59405 13.16831-4.69636-5.80231-6.63575-11.75543-5.91609-12.87991.52917-.84138 2.04523-.73819 3.66184 1.12448 3.81793 4.40531 8.23647 4.44764 9.82927 1.91293.52916-.83872.90487-2.78606 1.22237-4.23333 0 0-1.21179-1.78064-3.94229-3.74914" fill="#972023"/><path d="m124.60408 131.36671a21.407437 21.407437 0 0 0 -.93927 8.03275c.2196-.26458.52916-.3175.508.19844a14.2875 14.2875 0 0 0 .91546 6.08541v.0132.0132l.0185.0423c-1.29911-8.51959 3.92377-12.6365 6.70189-13.27944 1.74361-.40746 1.97644-1.03452 2.46327-3.3999-6.26798-.20108-8.48254 1.17211-9.67846 2.30188m11.18659-7.14375a.93397915.93397915 0 0 0 -.61119-.56886c-2.68552-1.02129-3.54542-2.48179-3.54542-2.48179-.32543.25136-.57414.49477-.88635.77523a2.0584583 2.0584583 0 0 1 -.0661.8599c-.0503.037-.20373-.24077-.39423-.44186a22.344062 22.344062 0 0 0 -3.06916 3.65919 22.611291 22.611291 0 0 0 -2.2225 4.23333s1.20385-2.77812 5.90285-3.09827c1.44727-.10054.79375-1.32291 1.143-1.62719.17727-.14552.84402.33867 1.11919.61119s1.28058.94192 1.82827.93134c.46038-1.3388 1.11919-2.0955.79375-2.85486" fill="#bf761d"/></g></svg>